<svg width="64" height="41" viewBox="0 0 64 41" fill="none" xmlns="http://www.w3.org/2000/svg">
<path fill-rule="evenodd" clip-rule="evenodd" d="M13.9697 40C13.9697 40.5523 13.522 41 12.9697 41H0.999925C0.435987 41 -0.0164055 40.5339 0.000367694 39.9703L0.53861 21.8818C0.540304 21.8249 0.547038 21.7672 0.558434 21.7114C1.50304 17.0867 2.40314 14.6432 5.01735 10.8501C10.2029 4.26349 13.6113 1.85507 22.3434 0.0214527C22.4105 0.00736059 22.4805 0 22.549 0H37.9867C38.3316 0 38.6522 0.177748 38.8349 0.470299L44.1748 9.02092C44.565 9.64576 45.474 9.64849 45.868 9.02601L51.1039 0.753261C51.2872 0.463622 51.6061 0.288056 51.9488 0.288056H62.158C62.945 0.288056 63.4236 1.15512 63.0041 1.82104L51.542 20.0175C51.3376 20.3419 51.3367 20.7546 51.5397 21.0799L63.0154 39.4706C63.431 40.1367 62.9521 41 62.167 41H52.0395C51.6992 41 51.3823 40.827 51.1983 40.5408L45.6741 31.9479C45.2789 31.3332 44.3794 31.3361 43.9883 31.9534L38.5555 40.5266C38.3691 40.8207 38.0432 40.9967 37.695 40.9912L27.832 40.8358C27.0546 40.8236 26.5879 39.9677 26.9987 39.3075L32.1602 31.0141L35.3232 26.043C35.373 25.9648 35.4155 25.876 35.3621 25.8002C34.8985 25.1417 31.0298 22.295 27.684 21.7963C25.0299 21.4006 21.3614 22.5929 20.1168 23.2149C19.8134 23.3664 19.5244 23.6548 19.2659 23.8744C16.2095 26.471 14.9504 28.4758 13.9939 32.7303C13.9779 32.8013 13.9697 32.8751 13.9697 32.9479V40ZM3.10767 33.5212L3.10766 33.5193C3.07505 29.1677 3.05528 26.5284 3.39235 22.3497C3.39626 22.3013 3.40382 22.2523 3.41484 22.205C4.57394 17.2302 6.68306 13.2279 7.01734 13.4426C7.29709 13.6223 10.0177 18.2983 10.9192 19.8563C11.099 20.1669 11.0959 20.5472 10.9145 20.8569L3.4468 33.6118C3.35337 33.7714 3.10906 33.7061 3.10767 33.5212ZM5.29826 36.6242C4.91824 37.2909 5.39966 38.1194 6.16702 38.1194H10.1252C10.7087 38.1194 11.167 37.6202 11.1309 37.0378C10.7886 31.5142 11.4665 28.8612 13.7437 25.7152C13.9845 25.3825 13.9881 24.93 13.7399 24.6028C13.3491 24.0875 12.5608 24.1317 12.23 24.6875L9.20782 29.7658L5.29826 36.6242ZM12.0429 16.1285C12.4385 16.7777 13.3852 16.7655 13.7639 16.1063L19.8944 5.43723C20.3106 4.71292 19.7066 3.82939 18.8956 4.02931C17.5404 4.36335 16.358 4.86723 14.6364 5.85714C12.1463 7.37605 10.9647 8.43318 9.30859 10.3003C9.01989 10.6258 8.98052 11.1023 9.20689 11.4738L12.0429 16.1285ZM14.9449 19.8346C14.7553 20.1551 14.7594 20.5544 14.9556 20.8709L15.4646 21.692C15.7828 22.2052 16.4784 22.3195 16.9586 21.9534C19.7192 19.8491 21.7481 19.1215 25.3983 18.9157C30.1424 18.706 32.5911 19.706 36.0544 22.7422C36.5155 23.1465 37.2311 23.0655 37.5735 22.5567L38.3712 21.3716C38.5906 21.0456 38.5988 20.6213 38.3921 20.2871L27.9772 3.45051C27.7949 3.15589 27.4732 2.97658 27.1267 2.97658H25.4923C25.1389 2.97658 24.8117 3.16312 24.6317 3.46726L14.9449 19.8346ZM32.0851 4.51174C31.6633 3.84593 32.1417 2.97658 32.9299 2.97658H36.0835C36.4275 2.97658 36.7474 3.15345 36.9304 3.44483L42.8804 12.9211C43.0812 13.2409 43.0847 13.6465 42.8896 13.9697L41.3768 16.4754C40.9927 17.1116 40.0736 17.1215 39.6759 16.4938L32.0851 4.51174ZM45.8305 17.574C45.452 16.947 44.55 16.9263 44.143 17.5351L42.4344 20.0913C42.2106 20.4262 42.2095 20.8626 42.4317 21.1986L44.0738 23.6819C44.4728 24.2854 45.3608 24.2785 45.7505 23.6689L47.3494 21.1675C47.5543 20.847 47.5595 20.4378 47.3629 20.1121L45.8305 17.574ZM39.7188 24.82C40.1061 24.21 40.9925 24.1994 41.3943 24.7999L42.9446 27.1175C43.1628 27.4438 43.17 27.8676 42.9629 28.2011L37.2155 37.455C37.0331 37.7487 36.7118 37.9274 36.366 37.9274H33.2176C32.429 37.9274 31.9507 37.0572 32.3733 36.3915L39.7188 24.82ZM46.9939 13.9775C46.7761 13.6517 46.7687 13.2288 46.9749 12.8956L52.8194 3.45039C53.0017 3.15584 53.3234 2.97658 53.6698 2.97658H56.7727C57.5505 2.97658 58.0305 3.82553 57.6296 4.49203L50.4012 16.5089C50.0233 17.1371 49.1203 17.1586 48.7129 16.5491L46.9939 13.9775ZM50.3799 24.7973C50.0034 24.1916 49.132 24.1634 48.7171 24.7436L47.0272 27.1069C46.7909 27.4374 46.778 27.878 46.9947 28.2218L52.8184 37.4606C53.0015 37.7512 53.3209 37.9274 53.6643 37.9274H56.7421C57.5265 37.9274 58.0055 37.0656 57.5914 36.3995L50.3799 24.7973Z" fill="url(#paint0_linear_161_1221)"/>
<defs>
<linearGradient id="paint0_linear_161_1221" x1="7.90684" y1="-58.4532" x2="90.4958" y2="45.1275" gradientUnits="userSpaceOnUse">
<stop offset="0.0715811" stop-color="#0B2B8C"/>
<stop offset="0.278846" stop-color="#4669BA"/>
<stop offset="0.543269" stop-color="#14357E"/>
<stop offset="0.778846" stop-color="#42A4D9"/>
</linearGradient>
</defs>
</svg>
