<svg width="234" height="273" viewBox="0 0 234 273" fill="none" xmlns="http://www.w3.org/2000/svg">
<path d="M23.7967 262V227.091H38.3535C40.9672 227.091 43.1547 227.46 44.9161 228.199C46.6888 228.937 48.0183 229.972 48.9047 231.301C49.8024 232.631 50.2513 234.17 50.2513 235.92C50.2513 237.25 49.9729 238.438 49.4161 239.483C48.8592 240.517 48.0922 241.375 47.1149 242.057C46.1376 242.739 45.007 243.216 43.7229 243.489V243.83C45.132 243.898 46.4331 244.278 47.6263 244.972C48.8308 245.665 49.7967 246.631 50.524 247.869C51.2513 249.097 51.6149 250.551 51.6149 252.233C51.6149 254.108 51.1376 255.784 50.1831 257.261C49.2286 258.727 47.8479 259.886 46.0411 260.739C44.2342 261.58 42.041 262 39.4615 262H23.7967ZM32.2342 255.199H37.4501C39.2797 255.199 40.6263 254.852 41.4899 254.159C42.3649 253.466 42.8024 252.5 42.8024 251.261C42.8024 250.364 42.5922 249.591 42.1717 248.943C41.7513 248.284 41.1547 247.778 40.382 247.426C39.6092 247.062 38.6831 246.881 37.6035 246.881H32.2342V255.199ZM32.2342 241.443H36.9047C37.8251 241.443 38.6433 241.29 39.3592 240.983C40.0751 240.676 40.632 240.233 41.0297 239.653C41.4388 239.074 41.6433 238.375 41.6433 237.557C41.6433 236.386 41.2285 235.466 40.399 234.795C39.5695 234.125 38.4501 233.79 37.041 233.79H32.2342V241.443ZM55.0717 262V235.818H63.1683V240.591H63.441C63.9183 238.864 64.6967 237.58 65.7763 236.739C66.8558 235.886 68.1115 235.46 69.5433 235.46C69.9297 235.46 70.3274 235.489 70.7365 235.545C71.1456 235.591 71.5263 235.665 71.8785 235.767V243.011C71.4808 242.875 70.9581 242.767 70.3104 242.688C69.674 242.608 69.1058 242.568 68.6058 242.568C67.6172 242.568 66.7251 242.79 65.9297 243.233C65.1456 243.665 64.5263 244.273 64.0717 245.057C63.6285 245.83 63.407 246.739 63.407 247.784V262H55.0717ZM74.6749 262V235.818H83.0101V262H74.6749ZM78.851 232.767C77.6805 232.767 76.6749 232.381 75.8339 231.608C74.993 230.824 74.5726 229.881 74.5726 228.778C74.5726 227.687 74.993 226.756 75.8339 225.983C76.6749 225.199 77.6805 224.807 78.851 224.807C80.0328 224.807 81.0385 225.199 81.868 225.983C82.7089 226.756 83.1294 227.687 83.1294 228.778C83.1294 229.881 82.7089 230.824 81.868 231.608C81.0385 232.381 80.0328 232.767 78.851 232.767ZM97.278 262.375C95.3462 262.375 93.5905 261.875 92.0109 260.875C90.4314 259.875 89.17 258.375 88.2268 256.375C87.2837 254.375 86.8121 251.892 86.8121 248.926C86.8121 245.847 87.3007 243.312 88.278 241.324C89.2553 239.335 90.5337 237.864 92.1132 236.909C93.7041 235.955 95.4144 235.477 97.2439 235.477C98.6189 235.477 99.795 235.716 100.772 236.193C101.75 236.659 102.556 237.261 103.193 238C103.829 238.739 104.312 239.506 104.642 240.301H104.812V227.091H113.147V262H104.897V257.756H104.642C104.289 258.562 103.789 259.318 103.142 260.023C102.494 260.727 101.681 261.295 100.704 261.727C99.7382 262.159 98.5962 262.375 97.278 262.375ZM100.176 255.881C101.187 255.881 102.051 255.597 102.767 255.028C103.483 254.449 104.034 253.636 104.42 252.591C104.806 251.545 105 250.318 105 248.909C105 247.477 104.806 246.244 104.42 245.21C104.045 244.176 103.494 243.381 102.767 242.824C102.051 242.267 101.187 241.989 100.176 241.989C99.1416 241.989 98.2666 242.273 97.5507 242.841C96.8348 243.409 96.2894 244.21 95.9144 245.244C95.5507 246.278 95.3689 247.5 95.3689 248.909C95.3689 250.318 95.5564 251.545 95.9314 252.591C96.3064 253.636 96.8462 254.449 97.5507 255.028C98.2666 255.597 99.1416 255.881 100.176 255.881ZM130.023 272.364C127.535 272.364 125.404 272.017 123.631 271.324C121.858 270.631 120.466 269.682 119.455 268.477C118.444 267.273 117.836 265.909 117.631 264.386L125.523 263.943C125.671 264.477 125.944 264.943 126.341 265.341C126.75 265.739 127.279 266.045 127.927 266.261C128.586 266.477 129.358 266.585 130.245 266.585C131.642 266.585 132.796 266.244 133.705 265.562C134.625 264.892 135.086 263.716 135.086 262.034V257.432H134.796C134.466 258.239 133.966 258.96 133.296 259.597C132.625 260.233 131.79 260.733 130.79 261.097C129.802 261.46 128.665 261.642 127.381 261.642C125.472 261.642 123.722 261.199 122.131 260.312C120.552 259.415 119.285 258.028 118.33 256.153C117.387 254.267 116.915 251.841 116.915 248.875C116.915 245.818 117.404 243.301 118.381 241.324C119.358 239.335 120.637 237.864 122.216 236.909C123.807 235.955 125.517 235.477 127.347 235.477C128.722 235.477 129.898 235.716 130.875 236.193C131.864 236.659 132.677 237.261 133.313 238C133.949 238.739 134.432 239.506 134.762 240.301H135V235.818H143.302V262.102C143.302 264.318 142.745 266.188 141.631 267.71C140.517 269.233 138.961 270.386 136.961 271.17C134.961 271.966 132.648 272.364 130.023 272.364ZM130.279 255.574C131.29 255.574 132.154 255.307 132.87 254.773C133.586 254.239 134.137 253.472 134.523 252.472C134.91 251.472 135.103 250.273 135.103 248.875C135.103 247.455 134.91 246.233 134.523 245.21C134.148 244.176 133.597 243.381 132.87 242.824C132.154 242.267 131.29 241.989 130.279 241.989C129.245 241.989 128.37 242.273 127.654 242.841C126.938 243.409 126.392 244.21 126.017 245.244C125.654 246.267 125.472 247.477 125.472 248.875C125.472 250.273 125.66 251.472 126.035 252.472C126.41 253.472 126.949 254.239 127.654 254.773C128.37 255.307 129.245 255.574 130.279 255.574ZM160.254 262.494C157.515 262.494 155.152 261.955 153.163 260.875C151.186 259.784 149.663 258.233 148.595 256.222C147.538 254.199 147.01 251.795 147.01 249.011C147.01 246.307 147.544 243.943 148.612 241.92C149.68 239.886 151.186 238.307 153.129 237.182C155.072 236.045 157.362 235.477 159.998 235.477C161.862 235.477 163.567 235.767 165.112 236.347C166.658 236.926 167.993 237.784 169.118 238.92C170.243 240.057 171.118 241.46 171.743 243.131C172.368 244.79 172.68 246.693 172.68 248.841V250.92H149.925V246.08H164.925C164.913 245.193 164.703 244.403 164.294 243.71C163.885 243.017 163.322 242.477 162.606 242.091C161.902 241.693 161.089 241.494 160.169 241.494C159.237 241.494 158.402 241.705 157.663 242.125C156.925 242.534 156.339 243.097 155.908 243.812C155.476 244.517 155.248 245.318 155.226 246.216V251.142C155.226 252.21 155.436 253.148 155.856 253.955C156.277 254.75 156.873 255.369 157.646 255.812C158.419 256.256 159.339 256.477 160.408 256.477C161.146 256.477 161.817 256.375 162.419 256.17C163.021 255.966 163.538 255.665 163.97 255.267C164.402 254.869 164.726 254.381 164.942 253.801L172.595 254.023C172.277 255.739 171.578 257.233 170.498 258.506C169.43 259.767 168.027 260.75 166.288 261.455C164.55 262.148 162.538 262.494 160.254 262.494ZM194.59 227.091L200.965 238.119H201.237L207.681 227.091H217.124L206.59 244.545L217.465 262H207.783L201.237 250.852H200.965L194.419 262H184.806L195.629 244.545L185.078 227.091H194.59Z" fill="#00244D"/>
<path fill-rule="evenodd" clip-rule="evenodd" d="M55.875 150C55.875 152.209 54.0841 154 51.875 154H10.12C7.86456 154 6.0551 152.136 6.12176 149.882L8.02566 85.4876C8.03235 85.2613 8.05893 85.0322 8.10398 84.8104C11.4667 68.2504 14.6752 59.4921 23.9821 45.9016C42.4465 22.2981 54.5858 13.6598 85.659 7.08689C85.929 7.02977 86.2105 7 86.4865 7H141.185C142.569 7 143.854 7.71517 144.584 8.89095L163.106 38.7396C164.665 41.2519 168.317 41.2629 169.891 38.7599L188.038 9.90338C188.77 8.73923 190.049 8.03279 191.424 8.03279H226.778C229.92 8.03279 231.836 11.4909 230.168 14.155L189.858 78.5599C189.048 79.8529 189.045 81.4935 189.849 82.7899L230.213 147.892C231.865 150.557 229.949 154 226.813 154H191.745C190.38 154 189.109 153.304 188.374 152.153L169.199 122.135C167.62 119.663 164.006 119.675 162.443 122.157L143.592 152.096C142.847 153.278 141.54 153.986 140.143 153.964L106.008 153.423C102.904 153.374 101.036 149.961 102.669 147.32L120.679 118.197L131.916 100.423C132.114 100.11 132.267 99.748 132.047 99.4499C130.232 96.9933 116.564 86.9226 104.732 85.1475C95.4126 83.7494 82.5829 87.882 77.9704 90.1363C76.7567 90.7295 75.5983 91.8638 74.5732 92.7436C63.8173 101.975 59.3591 109.162 55.9704 124.308C55.9072 124.59 55.875 124.884 55.875 125.173V150ZM17.1789 127.186L17.1789 127.179C17.0628 111.587 16.9924 102.126 18.1908 87.1606C18.2062 86.9681 18.2361 86.7733 18.2797 86.5852C22.4103 68.7617 29.9169 54.4274 31.1071 55.1967C32.0922 55.8334 41.5721 72.2192 44.8933 77.9931C45.6052 79.2308 45.5936 80.7436 44.8756 81.9778L18.389 127.507C18.057 128.078 17.1839 127.846 17.1789 127.186ZM25.3286 137.701C23.8183 140.367 25.7446 143.672 28.8091 143.672H41.7074C44.0407 143.672 45.8732 141.683 45.7351 139.354C44.578 119.838 47.0202 110.384 55.082 99.1814C55.934 97.9974 55.9468 96.3917 55.0689 95.2268C53.6744 93.3764 50.8477 93.5346 49.6683 95.529L38.9107 113.721L25.3286 137.701ZM48.62 64.181C50.2001 66.7909 54.0028 66.7422 55.5155 64.0927L76.5614 27.2307C78.2165 24.3318 75.794 20.8042 72.5693 21.6666C68.0884 22.8649 64.019 24.6616 58.25 28C49.4757 33.3866 45.2619 37.1533 39.4618 43.7128C38.3149 45.0099 38.1604 46.904 39.0571 48.3851L48.62 64.181ZM59.4705 77.9082C58.7196 79.1851 58.7359 80.7724 59.5127 82.0336L60.9345 84.3419C62.2063 86.4065 65.0043 86.8612 66.9362 85.3957C76.562 78.0933 83.7683 75.5471 96.5893 74.8197C113.309 74.0759 122.026 77.5768 134.156 88.1916C136.01 89.8135 138.884 89.4882 140.253 87.4409L142.663 83.8375C143.532 82.5379 143.565 80.8512 142.746 79.5193L105.903 19.5776C105.176 18.3935 103.885 17.6721 102.496 17.6721H97.181C95.7633 17.6721 94.4516 18.4225 93.733 19.6445L59.4705 77.9082ZM120.806 23.803C119.129 21.1393 121.043 17.6721 124.191 17.6721H134.406C135.786 17.6721 137.069 18.3838 137.8 19.5549L158.74 53.1204C159.535 54.3948 159.549 56.0072 158.777 57.2953L153.884 65.4516C152.35 68.009 148.657 68.0486 147.069 65.5248L120.806 23.803ZM169.74 70.6115C168.228 68.0907 164.604 68.0074 162.978 70.4561L157.426 78.8153C156.54 80.1502 156.535 81.8854 157.415 83.2248L162.743 91.3335C164.338 93.7605 167.906 93.7329 169.462 91.2816L174.658 83.101C175.47 81.8232 175.49 80.1968 174.712 78.8987L169.74 70.6115ZM147.24 96.5687C148.788 94.1157 152.349 94.0731 153.955 96.4885L158.956 104.013C159.821 105.314 159.849 106.999 159.029 108.328L138.815 141.084C138.086 142.265 136.798 142.984 135.411 142.984H125.216C122.067 142.984 120.153 139.513 121.833 136.85L147.24 96.5687ZM173.665 57.3266C172.802 56.028 172.773 54.3466 173.589 53.0186L194.15 19.5771C194.878 18.3933 196.168 17.6721 197.558 17.6721H207.61C210.716 17.6721 212.637 21.0581 211.043 23.7243L186.023 65.5865C184.513 68.1122 180.885 68.1985 179.257 65.7474L173.665 57.3266ZM185.938 96.4769C184.433 94.0411 180.932 93.9282 179.274 96.262L173.797 103.971C172.86 105.289 172.809 107.041 173.667 108.411L194.146 141.107C194.877 142.275 196.158 142.984 197.536 142.984H207.489C210.621 142.984 212.538 139.547 210.892 136.882L185.938 96.4769Z" fill="url(#paint0_linear_135_128)"/>
<g filter="url(#filter0_di_135_128)">
<circle cx="13" cy="148" r="7" fill="white"/>
</g>
<g filter="url(#filter1_di_135_128)">
<ellipse cx="13" cy="82.5" rx="7" ry="7.5" fill="white"/>
</g>
<g filter="url(#filter2_di_135_128)">
<circle cx="99" cy="12" r="7" fill="white"/>
</g>
<g filter="url(#filter3_di_135_128)">
<ellipse cx="30" cy="45.5" rx="7" ry="7.5" fill="white"/>
</g>
<g filter="url(#filter4_di_135_128)">
<circle cx="99" cy="81" r="7" fill="white"/>
</g>
<g filter="url(#filter5_di_135_128)">
<circle cx="50" cy="148" r="7" fill="white"/>
</g>
<g filter="url(#filter6_di_135_128)">
<path d="M59 80C59 83.866 55.866 87 52 87C48.134 87 45 83.866 45 80C45 76.134 48.134 73 52 73C55.866 73 59 76.134 59 80Z" fill="white"/>
</g>
<defs>
<filter id="filter0_di_135_128" x="0" y="136" width="26" height="26" filterUnits="userSpaceOnUse" color-interpolation-filters="sRGB">
<feFlood flood-opacity="0" result="BackgroundImageFix"/>
<feColorMatrix in="SourceAlpha" type="matrix" values="0 0 0 0 0 0 0 0 0 0 0 0 0 0 0 0 0 0 127 0" result="hardAlpha"/>
<feMorphology radius="2" operator="dilate" in="SourceAlpha" result="effect1_dropShadow_135_128"/>
<feOffset dy="1"/>
<feGaussianBlur stdDeviation="2"/>
<feComposite in2="hardAlpha" operator="out"/>
<feColorMatrix type="matrix" values="0 0 0 0 1 0 0 0 0 0.983654 0 0 0 0 0.983654 0 0 0 0.25 0"/>
<feBlend mode="overlay" in2="BackgroundImageFix" result="effect1_dropShadow_135_128"/>
<feBlend mode="normal" in="SourceGraphic" in2="effect1_dropShadow_135_128" result="shape"/>
<feColorMatrix in="SourceAlpha" type="matrix" values="0 0 0 0 0 0 0 0 0 0 0 0 0 0 0 0 0 0 127 0" result="hardAlpha"/>
<feMorphology radius="1" operator="erode" in="SourceAlpha" result="effect2_innerShadow_135_128"/>
<feOffset dy="1"/>
<feGaussianBlur stdDeviation="2.95"/>
<feComposite in2="hardAlpha" operator="arithmetic" k2="-1" k3="1"/>
<feColorMatrix type="matrix" values="0 0 0 0 0 0 0 0 0 0.260633 0 0 0 0 0.553846 0 0 0 1 0"/>
<feBlend mode="normal" in2="shape" result="effect2_innerShadow_135_128"/>
</filter>
<filter id="filter1_di_135_128" x="0" y="70" width="26" height="27" filterUnits="userSpaceOnUse" color-interpolation-filters="sRGB">
<feFlood flood-opacity="0" result="BackgroundImageFix"/>
<feColorMatrix in="SourceAlpha" type="matrix" values="0 0 0 0 0 0 0 0 0 0 0 0 0 0 0 0 0 0 127 0" result="hardAlpha"/>
<feMorphology radius="2" operator="dilate" in="SourceAlpha" result="effect1_dropShadow_135_128"/>
<feOffset dy="1"/>
<feGaussianBlur stdDeviation="2"/>
<feComposite in2="hardAlpha" operator="out"/>
<feColorMatrix type="matrix" values="0 0 0 0 1 0 0 0 0 0.983654 0 0 0 0 0.983654 0 0 0 0.25 0"/>
<feBlend mode="overlay" in2="BackgroundImageFix" result="effect1_dropShadow_135_128"/>
<feBlend mode="normal" in="SourceGraphic" in2="effect1_dropShadow_135_128" result="shape"/>
<feColorMatrix in="SourceAlpha" type="matrix" values="0 0 0 0 0 0 0 0 0 0 0 0 0 0 0 0 0 0 127 0" result="hardAlpha"/>
<feMorphology radius="1" operator="erode" in="SourceAlpha" result="effect2_innerShadow_135_128"/>
<feOffset dy="1"/>
<feGaussianBlur stdDeviation="2.95"/>
<feComposite in2="hardAlpha" operator="arithmetic" k2="-1" k3="1"/>
<feColorMatrix type="matrix" values="0 0 0 0 0 0 0 0 0 0.260633 0 0 0 0 0.553846 0 0 0 1 0"/>
<feBlend mode="normal" in2="shape" result="effect2_innerShadow_135_128"/>
</filter>
<filter id="filter2_di_135_128" x="86" y="0" width="26" height="26" filterUnits="userSpaceOnUse" color-interpolation-filters="sRGB">
<feFlood flood-opacity="0" result="BackgroundImageFix"/>
<feColorMatrix in="SourceAlpha" type="matrix" values="0 0 0 0 0 0 0 0 0 0 0 0 0 0 0 0 0 0 127 0" result="hardAlpha"/>
<feMorphology radius="2" operator="dilate" in="SourceAlpha" result="effect1_dropShadow_135_128"/>
<feOffset dy="1"/>
<feGaussianBlur stdDeviation="2"/>
<feComposite in2="hardAlpha" operator="out"/>
<feColorMatrix type="matrix" values="0 0 0 0 1 0 0 0 0 0.983654 0 0 0 0 0.983654 0 0 0 0.25 0"/>
<feBlend mode="overlay" in2="BackgroundImageFix" result="effect1_dropShadow_135_128"/>
<feBlend mode="normal" in="SourceGraphic" in2="effect1_dropShadow_135_128" result="shape"/>
<feColorMatrix in="SourceAlpha" type="matrix" values="0 0 0 0 0 0 0 0 0 0 0 0 0 0 0 0 0 0 127 0" result="hardAlpha"/>
<feMorphology radius="1" operator="erode" in="SourceAlpha" result="effect2_innerShadow_135_128"/>
<feOffset dy="1"/>
<feGaussianBlur stdDeviation="2.95"/>
<feComposite in2="hardAlpha" operator="arithmetic" k2="-1" k3="1"/>
<feColorMatrix type="matrix" values="0 0 0 0 0 0 0 0 0 0.260633 0 0 0 0 0.553846 0 0 0 1 0"/>
<feBlend mode="normal" in2="shape" result="effect2_innerShadow_135_128"/>
</filter>
<filter id="filter3_di_135_128" x="17" y="33" width="26" height="27" filterUnits="userSpaceOnUse" color-interpolation-filters="sRGB">
<feFlood flood-opacity="0" result="BackgroundImageFix"/>
<feColorMatrix in="SourceAlpha" type="matrix" values="0 0 0 0 0 0 0 0 0 0 0 0 0 0 0 0 0 0 127 0" result="hardAlpha"/>
<feMorphology radius="2" operator="dilate" in="SourceAlpha" result="effect1_dropShadow_135_128"/>
<feOffset dy="1"/>
<feGaussianBlur stdDeviation="2"/>
<feComposite in2="hardAlpha" operator="out"/>
<feColorMatrix type="matrix" values="0 0 0 0 1 0 0 0 0 0.983654 0 0 0 0 0.983654 0 0 0 0.25 0"/>
<feBlend mode="overlay" in2="BackgroundImageFix" result="effect1_dropShadow_135_128"/>
<feBlend mode="normal" in="SourceGraphic" in2="effect1_dropShadow_135_128" result="shape"/>
<feColorMatrix in="SourceAlpha" type="matrix" values="0 0 0 0 0 0 0 0 0 0 0 0 0 0 0 0 0 0 127 0" result="hardAlpha"/>
<feMorphology radius="1" operator="erode" in="SourceAlpha" result="effect2_innerShadow_135_128"/>
<feOffset dy="1"/>
<feGaussianBlur stdDeviation="2.95"/>
<feComposite in2="hardAlpha" operator="arithmetic" k2="-1" k3="1"/>
<feColorMatrix type="matrix" values="0 0 0 0 0 0 0 0 0 0.260633 0 0 0 0 0.553846 0 0 0 1 0"/>
<feBlend mode="normal" in2="shape" result="effect2_innerShadow_135_128"/>
</filter>
<filter id="filter4_di_135_128" x="86" y="69" width="26" height="26" filterUnits="userSpaceOnUse" color-interpolation-filters="sRGB">
<feFlood flood-opacity="0" result="BackgroundImageFix"/>
<feColorMatrix in="SourceAlpha" type="matrix" values="0 0 0 0 0 0 0 0 0 0 0 0 0 0 0 0 0 0 127 0" result="hardAlpha"/>
<feMorphology radius="2" operator="dilate" in="SourceAlpha" result="effect1_dropShadow_135_128"/>
<feOffset dy="1"/>
<feGaussianBlur stdDeviation="2"/>
<feComposite in2="hardAlpha" operator="out"/>
<feColorMatrix type="matrix" values="0 0 0 0 1 0 0 0 0 0.983654 0 0 0 0 0.983654 0 0 0 0.25 0"/>
<feBlend mode="overlay" in2="BackgroundImageFix" result="effect1_dropShadow_135_128"/>
<feBlend mode="normal" in="SourceGraphic" in2="effect1_dropShadow_135_128" result="shape"/>
<feColorMatrix in="SourceAlpha" type="matrix" values="0 0 0 0 0 0 0 0 0 0 0 0 0 0 0 0 0 0 127 0" result="hardAlpha"/>
<feMorphology radius="1" operator="erode" in="SourceAlpha" result="effect2_innerShadow_135_128"/>
<feOffset dy="1"/>
<feGaussianBlur stdDeviation="2.95"/>
<feComposite in2="hardAlpha" operator="arithmetic" k2="-1" k3="1"/>
<feColorMatrix type="matrix" values="0 0 0 0 0 0 0 0 0 0.260633 0 0 0 0 0.553846 0 0 0 1 0"/>
<feBlend mode="normal" in2="shape" result="effect2_innerShadow_135_128"/>
</filter>
<filter id="filter5_di_135_128" x="37" y="136" width="26" height="26" filterUnits="userSpaceOnUse" color-interpolation-filters="sRGB">
<feFlood flood-opacity="0" result="BackgroundImageFix"/>
<feColorMatrix in="SourceAlpha" type="matrix" values="0 0 0 0 0 0 0 0 0 0 0 0 0 0 0 0 0 0 127 0" result="hardAlpha"/>
<feMorphology radius="2" operator="dilate" in="SourceAlpha" result="effect1_dropShadow_135_128"/>
<feOffset dy="1"/>
<feGaussianBlur stdDeviation="2"/>
<feComposite in2="hardAlpha" operator="out"/>
<feColorMatrix type="matrix" values="0 0 0 0 1 0 0 0 0 0.983654 0 0 0 0 0.983654 0 0 0 0.25 0"/>
<feBlend mode="overlay" in2="BackgroundImageFix" result="effect1_dropShadow_135_128"/>
<feBlend mode="normal" in="SourceGraphic" in2="effect1_dropShadow_135_128" result="shape"/>
<feColorMatrix in="SourceAlpha" type="matrix" values="0 0 0 0 0 0 0 0 0 0 0 0 0 0 0 0 0 0 127 0" result="hardAlpha"/>
<feMorphology radius="1" operator="erode" in="SourceAlpha" result="effect2_innerShadow_135_128"/>
<feOffset dy="1"/>
<feGaussianBlur stdDeviation="2.95"/>
<feComposite in2="hardAlpha" operator="arithmetic" k2="-1" k3="1"/>
<feColorMatrix type="matrix" values="0 0 0 0 0 0 0 0 0 0.260633 0 0 0 0 0.553846 0 0 0 1 0"/>
<feBlend mode="normal" in2="shape" result="effect2_innerShadow_135_128"/>
</filter>
<filter id="filter6_di_135_128" x="41" y="70" width="22" height="22" filterUnits="userSpaceOnUse" color-interpolation-filters="sRGB">
<feFlood flood-opacity="0" result="BackgroundImageFix"/>
<feColorMatrix in="SourceAlpha" type="matrix" values="0 0 0 0 0 0 0 0 0 0 0 0 0 0 0 0 0 0 127 0" result="hardAlpha"/>
<feOffset dy="1"/>
<feGaussianBlur stdDeviation="2"/>
<feComposite in2="hardAlpha" operator="out"/>
<feColorMatrix type="matrix" values="0 0 0 0 1 0 0 0 0 0.983654 0 0 0 0 0.983654 0 0 0 0.25 0"/>
<feBlend mode="overlay" in2="BackgroundImageFix" result="effect1_dropShadow_135_128"/>
<feBlend mode="normal" in="SourceGraphic" in2="effect1_dropShadow_135_128" result="shape"/>
<feColorMatrix in="SourceAlpha" type="matrix" values="0 0 0 0 0 0 0 0 0 0 0 0 0 0 0 0 0 0 127 0" result="hardAlpha"/>
<feOffset dy="1"/>
<feGaussianBlur stdDeviation="2.95"/>
<feComposite in2="hardAlpha" operator="arithmetic" k2="-1" k3="1"/>
<feColorMatrix type="matrix" values="0 0 0 0 0 0 0 0 0 0.260633 0 0 0 0 0.553846 0 0 0 1 0"/>
<feBlend mode="normal" in2="shape" result="effect2_innerShadow_135_128"/>
</filter>
<linearGradient id="paint0_linear_135_128" x1="34.276" y1="-202.576" x2="330.804" y2="166.949" gradientUnits="userSpaceOnUse">
<stop offset="0.0715811" stop-color="#0B2B8C"/>
<stop offset="0.278846" stop-color="#4669BA"/>
<stop offset="0.543269" stop-color="#14357E"/>
<stop offset="0.778846" stop-color="#42A4D9"/>
</linearGradient>
</defs>
</svg>
