<svg width="396" height="186" viewBox="0 0 396 186" fill="none" xmlns="http://www.w3.org/2000/svg">
<path fill-rule="evenodd" clip-rule="evenodd" d="M116.688 15.9235C116.688 17.0703 115.758 18 114.611 18H113.902C112.319 18 111.054 16.6819 111.12 15.1L111.213 12.8484C111.226 12.5368 111.272 12.2265 111.366 11.9292C111.712 10.8387 112.106 10.1636 113.051 9.17564C115.106 7.29457 116.474 6.57783 119.835 6.04561C120.032 6.0145 120.231 6 120.43 6H125.525C126.252 6 126.943 6.31551 127.419 6.86474L127.456 6.90751C128.432 8.03283 130.176 8.03859 131.159 6.91976L131.318 6.7383C131.684 6.3226 132.21 6.08431 132.763 6.08431C134.416 6.08431 135.299 8.02996 134.211 9.27377L133.284 10.3348C132.442 11.2976 132.439 12.7335 133.276 13.7002L134.245 14.8196C135.324 16.0644 134.439 18 132.792 18C132.245 18 131.723 17.7663 131.358 17.3576L131.136 17.1089C130.119 15.9691 128.334 15.9754 127.325 17.1225L127.128 17.3464C126.764 17.7613 126.236 17.9964 125.683 17.9901L125.389 17.9868C123.892 17.9698 123.099 16.2101 124.077 15.0773L125.022 14.0074C125.268 13.729 125.271 13.4511 124.944 13.2754C124.343 12.9531 123.245 12.4853 122.259 12.3794C122.068 12.3589 121.864 12.353 121.655 12.3581C120.015 12.3983 117.804 13.2539 117.046 14.7084C116.95 14.8922 116.865 15.0922 116.786 15.3144C116.716 15.5094 116.688 15.7165 116.688 15.9235ZM112.275 15.8111L112.275 15.8105C112.263 14.6712 112.255 13.9329 112.352 12.9144C112.377 12.652 112.43 12.3923 112.523 12.1455C113.007 10.8584 113.738 9.87677 113.863 9.93443C113.935 9.96758 114.401 10.5239 114.827 11.0448C115.261 11.5753 115.257 12.3373 114.825 12.8693L112.399 15.8544C112.358 15.9052 112.275 15.8765 112.275 15.8111ZM113.925 15.7583C113.477 16.3241 113.88 17.1569 114.602 17.1569C115.116 17.1569 115.506 16.7098 115.501 16.1957C115.488 15.0384 115.782 14.3614 116.518 13.6046C116.649 13.4705 116.651 13.2545 116.515 13.1256C116.378 12.9956 116.16 13.0088 116.04 13.1543L114.753 14.7119L113.925 15.7583ZM115.352 10.0671C115.823 10.624 116.686 10.6116 117.14 10.0413L117.862 9.13655C118.474 8.369 117.865 7.33855 116.958 7.71429C116.336 7.98781 115.915 8.21018 115.526 8.46808C114.99 8.82365 114.937 9.57602 115.352 10.0671ZM117.242 11.613C117.078 11.8124 117.081 12.1006 117.249 12.2961C117.417 12.4907 117.699 12.536 117.924 12.4129C119.034 11.8066 119.858 11.5961 121.33 11.5363C123.217 11.4762 124.21 11.7555 125.572 12.6014C125.828 12.7608 126.163 12.7233 126.369 12.5025C126.584 12.2725 126.592 11.9176 126.387 11.6787L122.619 7.29079C122.391 7.02444 122.057 6.87119 121.706 6.87119C121.346 6.87119 121.004 7.03251 120.776 7.31085L117.242 11.613ZM124.881 8.2688C124.403 7.72497 124.789 6.87119 125.513 6.87119C125.756 6.87119 125.988 6.97648 126.147 7.1599L128.097 9.39633C128.367 9.70619 128.371 10.1665 128.107 10.4815C127.778 10.8737 127.178 10.8808 126.84 10.4966L124.881 8.2688ZM129.916 11.4837C129.589 11.0939 128.995 11.0789 128.649 11.4517L128.632 11.4704C128.332 11.7933 128.331 12.2922 128.629 12.6168C128.967 12.9859 129.551 12.9809 129.884 12.6062L129.9 12.5872C130.178 12.274 130.185 11.8046 129.916 11.4837ZM126.88 13.5691C127.202 13.203 127.77 13.1956 128.102 13.5531C128.388 13.8609 128.397 14.3343 128.123 14.6523L126.263 16.8092C126.104 16.9943 125.871 17.1007 125.627 17.1007C124.904 17.1007 124.519 16.2481 124.997 15.7057L126.88 13.5691ZM130.486 10.5033C130.185 10.1792 130.176 9.6811 130.464 9.34574L132.335 7.1671C132.496 6.97926 132.732 6.87119 132.979 6.87119C133.7 6.87119 134.093 7.71169 133.631 8.26465L131.791 10.4692C131.455 10.8713 130.842 10.8873 130.486 10.5033ZM131.755 13.5774C131.433 13.2041 130.861 13.1841 130.514 13.534C130.201 13.8493 130.185 14.3528 130.478 14.6871L132.339 16.8151C132.498 16.9966 132.728 17.1007 132.969 17.1007C133.684 17.1007 134.069 16.2601 133.602 15.7182L131.755 13.5774Z" fill="url(#paint0_linear_944_527)" fill-opacity="0.17"/>
<path fill-rule="evenodd" clip-rule="evenodd" d="M240.688 159.923C240.688 161.07 239.758 162 238.611 162H237.902C236.319 162 235.054 160.682 235.12 159.1L235.213 156.848C235.226 156.537 235.272 156.227 235.366 155.929C235.712 154.839 236.106 154.164 237.051 153.176C239.106 151.295 240.474 150.578 243.835 150.046C244.032 150.015 244.231 150 244.43 150H249.525C250.252 150 250.943 150.316 251.419 150.865L251.456 150.908C252.432 152.033 254.176 152.039 255.159 150.92L255.318 150.738C255.684 150.323 256.21 150.084 256.763 150.084C258.416 150.084 259.299 152.03 258.211 153.274L257.284 154.335C256.442 155.298 256.439 156.733 257.276 157.7L258.245 158.82C259.324 160.064 258.439 162 256.792 162C256.245 162 255.723 161.766 255.358 161.358L255.136 161.109C254.119 159.969 252.334 159.975 251.325 161.122L251.128 161.346C250.764 161.761 250.236 161.996 249.683 161.99L249.389 161.987C247.892 161.97 247.099 160.21 248.077 159.077L249.022 158.007C249.268 157.729 249.271 157.451 248.944 157.275C248.343 156.953 247.245 156.485 246.259 156.379C246.068 156.359 245.864 156.353 245.655 156.358C244.015 156.398 241.804 157.254 241.046 158.708C240.95 158.892 240.865 159.092 240.786 159.314C240.716 159.509 240.688 159.716 240.688 159.923ZM236.275 159.811L236.275 159.811C236.263 158.671 236.255 157.933 236.352 156.914C236.377 156.652 236.43 156.392 236.523 156.145C237.007 154.858 237.738 153.877 237.863 153.934C237.935 153.968 238.401 154.524 238.827 155.045C239.261 155.575 239.257 156.337 238.825 156.869L236.399 159.854C236.358 159.905 236.275 159.876 236.275 159.811ZM237.925 159.758C237.477 160.324 237.88 161.157 238.602 161.157C239.116 161.157 239.506 160.71 239.501 160.196C239.488 159.038 239.782 158.361 240.518 157.605C240.649 157.47 240.651 157.254 240.515 157.126C240.378 156.996 240.16 157.009 240.04 157.154L238.753 158.712L237.925 159.758ZM239.352 154.067C239.823 154.624 240.686 154.612 241.14 154.041L241.862 153.137C242.474 152.369 241.865 151.339 240.958 151.714C240.336 151.988 239.915 152.21 239.526 152.468C238.99 152.824 238.937 153.576 239.352 154.067ZM241.242 155.613C241.078 155.812 241.081 156.101 241.249 156.296C241.417 156.491 241.699 156.536 241.924 156.413C243.034 155.807 243.858 155.596 245.33 155.536C247.217 155.476 248.21 155.756 249.572 156.601C249.828 156.761 250.163 156.723 250.369 156.503C250.584 156.272 250.592 155.918 250.387 155.679L246.619 151.291C246.391 151.024 246.057 150.871 245.706 150.871C245.346 150.871 245.004 151.033 244.776 151.311L241.242 155.613ZM248.881 152.269C248.403 151.725 248.789 150.871 249.513 150.871C249.756 150.871 249.988 150.976 250.147 151.16L252.097 153.396C252.367 153.706 252.371 154.166 252.107 154.481C251.778 154.874 251.178 154.881 250.84 154.497L248.881 152.269ZM253.916 155.484C253.589 155.094 252.995 155.079 252.649 155.452L252.632 155.47C252.332 155.793 252.331 156.292 252.629 156.617C252.967 156.986 253.551 156.981 253.884 156.606L253.9 156.587C254.178 156.274 254.185 155.805 253.916 155.484ZM250.88 157.569C251.202 157.203 251.77 157.196 252.102 157.553C252.388 157.861 252.397 158.334 252.123 158.652L250.263 160.809C250.104 160.994 249.871 161.101 249.627 161.101C248.904 161.101 248.519 160.248 248.997 159.706L250.88 157.569ZM254.486 154.503C254.185 154.179 254.176 153.681 254.464 153.346L256.335 151.167C256.496 150.979 256.732 150.871 256.979 150.871C257.7 150.871 258.093 151.712 257.631 152.265L255.791 154.469C255.455 154.871 254.842 154.887 254.486 154.503ZM255.755 157.577C255.433 157.204 254.861 157.184 254.514 157.534C254.201 157.849 254.185 158.353 254.478 158.687L256.339 160.815C256.498 160.997 256.728 161.101 256.969 161.101C257.684 161.101 258.069 160.26 257.602 159.718L255.755 157.577Z" fill="url(#paint1_linear_944_527)" fill-opacity="0.17"/>
<path fill-rule="evenodd" clip-rule="evenodd" d="M79.6875 141.923C79.6875 143.07 78.7578 144 77.611 144H76.9025C75.3192 144 74.0544 142.682 74.1198 141.1L74.2128 138.848C74.2256 138.537 74.272 138.227 74.3662 137.929C74.7119 136.839 75.1055 136.164 76.0506 135.176C78.1062 133.295 79.4744 132.578 82.8352 132.046C83.0316 132.015 83.2308 132 83.4297 132H88.5252C89.2521 132 89.9431 132.316 90.4192 132.865L90.4563 132.908C91.4318 134.033 93.176 134.039 94.1589 132.92L94.3183 132.738C94.6835 132.323 95.21 132.084 95.7634 132.084C97.4155 132.084 98.2989 134.03 97.2114 135.274L96.2837 136.335C95.4419 137.298 95.4386 138.733 96.2758 139.7L97.2454 140.82C98.3235 142.064 97.4393 144 95.7925 144C95.2447 144 94.723 143.766 94.3583 143.358L94.1364 143.109C93.1193 141.969 91.3343 141.975 90.3254 143.122L90.1285 143.346C89.7635 143.761 89.2357 143.996 88.6832 143.99L88.3889 143.987C86.892 143.97 86.0988 142.21 87.0774 141.077L88.0223 140.007C88.2682 139.729 88.2708 139.451 87.9437 139.275C87.3433 138.953 86.2452 138.485 85.2589 138.379C85.0681 138.359 84.8643 138.353 84.6554 138.358C83.0153 138.398 80.8045 139.254 80.0457 140.708C79.9499 140.892 79.8646 141.092 79.7856 141.314C79.7162 141.509 79.6875 141.716 79.6875 141.923ZM75.2748 141.811L75.2748 141.811C75.2629 140.671 75.2553 139.933 75.3518 138.914C75.3767 138.652 75.4305 138.392 75.5232 138.145C76.0067 136.858 76.7385 135.877 76.8631 135.934C76.9348 135.968 77.4006 136.524 77.8269 137.045C78.2611 137.575 78.2571 138.337 77.8248 138.869L75.3989 141.854C75.3576 141.905 75.2755 141.876 75.2748 141.811ZM76.9251 141.758C76.4774 142.324 76.8804 143.157 77.6019 143.157C78.1161 143.157 78.5065 142.71 78.5007 142.196C78.4876 141.038 78.7822 140.361 79.5183 139.605C79.6488 139.47 79.6506 139.254 79.5149 139.126C79.3781 138.996 79.1598 139.009 79.0397 139.154L77.753 140.712L76.9251 141.758ZM78.3521 136.067C78.8231 136.624 79.6856 136.612 80.1404 136.041L80.862 135.137C81.4742 134.369 80.8654 133.339 79.9583 133.714C79.3359 133.988 78.9147 134.21 78.5261 134.468C77.9902 134.824 77.9368 135.576 78.3521 136.067ZM80.2416 137.613C80.0778 137.812 80.0811 138.101 80.2494 138.296C80.4169 138.491 80.6991 138.536 80.9245 138.413C82.0344 137.807 82.8575 137.596 84.3304 137.536C86.2174 137.476 87.2105 137.756 88.5718 138.601C88.8284 138.761 89.1632 138.723 89.3694 138.503C89.5844 138.272 89.5918 137.918 89.3867 137.679L85.6192 133.291C85.3905 133.024 85.0569 132.871 84.7059 132.871C84.3457 132.871 84.0044 133.033 83.7757 133.311L80.2416 137.613ZM87.8807 134.269C87.4025 133.725 87.7887 132.871 88.5129 132.871C88.7562 132.871 88.9876 132.976 89.1474 133.16L91.0965 135.396C91.3666 135.706 91.371 136.166 91.107 136.481C90.7784 136.874 90.1776 136.881 89.8397 136.497L87.8807 134.269ZM92.916 137.484C92.5893 137.094 91.9949 137.079 91.649 137.452L91.6317 137.47C91.3321 137.793 91.3307 138.292 91.6286 138.617C91.9674 138.986 92.551 138.981 92.8835 138.606L92.9004 138.587C93.1782 138.274 93.1849 137.805 92.916 137.484ZM89.8796 139.569C90.2022 139.203 90.7703 139.196 91.1023 139.553C91.388 139.861 91.3968 140.334 91.1226 140.652L89.2632 142.809C89.1036 142.994 88.8714 143.101 88.6271 143.101C87.9042 143.101 87.5191 142.248 87.997 141.706L89.8796 139.569ZM93.4861 136.503C93.1855 136.179 93.1759 135.681 93.4639 135.346L95.3351 133.167C95.4965 132.979 95.7317 132.871 95.9793 132.871C96.6997 132.871 97.0929 133.712 96.6312 134.265L94.7906 136.469C94.4549 136.871 93.8424 136.887 93.4861 136.503ZM94.7549 139.577C94.4328 139.204 93.8611 139.184 93.5138 139.534C93.2009 139.849 93.1851 140.353 93.4776 140.687L95.3394 142.815C95.4982 142.997 95.7276 143.101 95.9688 143.101C96.6845 143.101 97.0694 142.26 96.6019 141.718L94.7549 139.577Z" fill="url(#paint2_linear_944_527)" fill-opacity="0.17"/>
<path fill-rule="evenodd" clip-rule="evenodd" d="M361.688 81.9235C361.688 83.0703 360.758 84 359.611 84H358.902C357.319 84 356.054 82.6819 356.12 81.1L356.213 78.8484C356.226 78.5368 356.272 78.2265 356.366 77.9292C356.712 76.8387 357.106 76.1636 358.051 75.1756C360.106 73.2946 361.474 72.5778 364.835 72.0456C365.032 72.0145 365.231 72 365.43 72H370.525C371.252 72 371.943 72.3155 372.419 72.8647L372.456 72.9075C373.432 74.0328 375.176 74.0386 376.159 72.9198L376.318 72.7383C376.684 72.3226 377.21 72.0843 377.763 72.0843C379.416 72.0843 380.299 74.03 379.211 75.2738L378.284 76.3348C377.442 77.2976 377.439 78.7335 378.276 79.7002L379.245 80.8196C380.324 82.0644 379.439 84 377.792 84C377.245 84 376.723 83.7663 376.358 83.3576L376.136 83.1089C375.119 81.9691 373.334 81.9754 372.325 83.1225L372.128 83.3464C371.764 83.7613 371.236 83.9964 370.683 83.9901L370.389 83.9868C368.892 83.9698 368.099 82.2101 369.077 81.0773L370.022 80.0074C370.268 79.729 370.271 79.4511 369.944 79.2754C369.343 78.9531 368.245 78.4853 367.259 78.3794C367.068 78.3589 366.864 78.353 366.655 78.3581C365.015 78.3983 362.804 79.2539 362.046 80.7084C361.95 80.8922 361.865 81.0922 361.786 81.3144C361.716 81.5094 361.688 81.7165 361.688 81.9235ZM357.275 81.8111L357.275 81.8105C357.263 80.6712 357.255 79.9329 357.352 78.9144C357.377 78.652 357.43 78.3923 357.523 78.1455C358.007 76.8584 358.738 75.8768 358.863 75.9344C358.935 75.9676 359.401 76.5239 359.827 77.0448C360.261 77.5753 360.257 78.3373 359.825 78.8693L357.399 81.8544C357.358 81.9052 357.275 81.8765 357.275 81.8111ZM358.925 81.7583C358.477 82.3241 358.88 83.1569 359.602 83.1569C360.116 83.1569 360.506 82.7098 360.501 82.1957C360.488 81.0384 360.782 80.3614 361.518 79.6046C361.649 79.4705 361.651 79.2545 361.515 79.1256C361.378 78.9956 361.16 79.0088 361.04 79.1543L359.753 80.7119L358.925 81.7583ZM360.352 76.0671C360.823 76.624 361.686 76.6116 362.14 76.0413L362.862 75.1366C363.474 74.369 362.865 73.3385 361.958 73.7143C361.336 73.9878 360.915 74.2102 360.526 74.4681C359.99 74.8237 359.937 75.576 360.352 76.0671ZM362.242 77.613C362.078 77.8124 362.081 78.1006 362.249 78.2961C362.417 78.4907 362.699 78.536 362.924 78.4129C364.034 77.8066 364.858 77.5961 366.33 77.5363C368.217 77.4762 369.21 77.7555 370.572 78.6014C370.828 78.7608 371.163 78.7233 371.369 78.5025C371.584 78.2725 371.592 77.9176 371.387 77.6787L367.619 73.2908C367.391 73.0244 367.057 72.8712 366.706 72.8712C366.346 72.8712 366.004 73.0325 365.776 73.3109L362.242 77.613ZM369.881 74.2688C369.403 73.725 369.789 72.8712 370.513 72.8712C370.756 72.8712 370.988 72.9765 371.147 73.1599L373.097 75.3963C373.367 75.7062 373.371 76.1665 373.107 76.4815C372.778 76.8737 372.178 76.8808 371.84 76.4966L369.881 74.2688ZM374.916 77.4837C374.589 77.0939 373.995 77.0789 373.649 77.4517L373.632 77.4704C373.332 77.7933 373.331 78.2922 373.629 78.6168C373.967 78.9859 374.551 78.9809 374.884 78.6062L374.9 78.5872C375.178 78.274 375.185 77.8046 374.916 77.4837ZM371.88 79.5691C372.202 79.203 372.77 79.1956 373.102 79.5531C373.388 79.8609 373.397 80.3343 373.123 80.6523L371.263 82.8092C371.104 82.9943 370.871 83.1007 370.627 83.1007C369.904 83.1007 369.519 82.2481 369.997 81.7057L371.88 79.5691ZM375.486 76.5033C375.185 76.1792 375.176 75.6811 375.464 75.3457L377.335 73.1671C377.496 72.9793 377.732 72.8712 377.979 72.8712C378.7 72.8712 379.093 73.7117 378.631 74.2647L376.791 76.4692C376.455 76.8713 375.842 76.8873 375.486 76.5033ZM376.755 79.5774C376.433 79.2041 375.861 79.1841 375.514 79.534C375.201 79.8493 375.185 80.3528 375.478 80.6871L377.339 82.8151C377.498 82.9966 377.728 83.1007 377.969 83.1007C378.684 83.1007 379.069 82.2601 378.602 81.7182L376.755 79.5774Z" fill="url(#paint3_linear_944_527)" fill-opacity="0.17"/>
<path fill-rule="evenodd" clip-rule="evenodd" d="M5.6875 34.9235C5.6875 36.0703 4.7578 37 3.61097 37H2.90245C1.31922 37 0.0544402 35.6819 0.119775 34.1L0.212772 31.8484C0.225642 31.5368 0.272006 31.2265 0.366235 30.9292C0.711889 29.8387 1.10552 29.1636 2.0506 28.1756C4.10619 26.2946 5.47435 25.5778 8.83516 25.0456C9.03158 25.0145 9.23081 25 9.42968 25H14.5252C15.2521 25 15.9431 25.3155 16.4192 25.8647L16.4563 25.9075C17.4318 27.0328 19.176 27.0386 20.1589 25.9198L20.3183 25.7383C20.6835 25.3226 21.21 25.0843 21.7634 25.0843C23.4155 25.0843 24.2989 27.03 23.2114 28.2738L22.2837 29.3348C21.4419 30.2976 21.4386 31.7335 22.2758 32.7002L23.2454 33.8196C24.3235 35.0644 23.4393 37 21.7925 37C21.2447 37 20.723 36.7663 20.3583 36.3576L20.1364 36.1089C19.1193 34.9691 17.3343 34.9754 16.3254 36.1225L16.1285 36.3464C15.7635 36.7613 15.2357 36.9964 14.6832 36.9901L14.3889 36.9868C12.892 36.9698 12.0988 35.2101 13.0774 34.0773L14.0223 33.0074C14.2682 32.729 14.2708 32.4511 13.9437 32.2754C13.3433 31.9531 12.2452 31.4853 11.2589 31.3794C11.0681 31.3589 10.8643 31.353 10.6554 31.3581C9.0153 31.3983 6.80449 32.2539 6.04575 33.7084C5.94989 33.8922 5.86461 34.0922 5.78556 34.3144C5.71619 34.5094 5.6875 34.7165 5.6875 34.9235ZM1.27479 34.8111L1.27478 34.8105C1.26294 33.6712 1.25526 32.9329 1.35179 31.9144C1.37666 31.652 1.43049 31.3923 1.5232 31.1455C2.00675 29.8584 2.73848 28.8768 2.8631 28.9344C2.93475 28.9676 3.4006 29.5239 3.82688 30.0448C4.26107 30.5753 4.25713 31.3373 3.82477 31.8693L1.39889 34.8544C1.35764 34.9052 1.27547 34.8765 1.27479 34.8111ZM2.9251 34.7583C2.47738 35.3241 2.88039 36.1569 3.60195 36.1569C4.11609 36.1569 4.5065 35.7098 4.5007 35.1957C4.48764 34.0384 4.78224 33.3614 5.51834 32.6046C5.6488 32.4705 5.65061 32.2545 5.51493 32.1256C5.37811 31.9956 5.15983 32.0088 5.03966 32.1543L3.75298 33.7119L2.9251 34.7583ZM4.35209 29.0671C4.82309 29.624 5.68562 29.6116 6.14042 29.0413L6.86205 28.1366C7.47421 27.369 6.86536 26.3385 5.95833 26.7143C5.33592 26.9878 4.91475 27.2102 4.52608 27.4681C3.99023 27.8237 3.93681 28.576 4.35209 29.0671ZM6.24159 30.613C6.07784 30.8124 6.08113 31.1006 6.24939 31.2961C6.41686 31.4907 6.69914 31.536 6.92449 31.4129C8.03444 30.8066 8.85751 30.5961 10.3304 30.5363C12.2174 30.4762 13.2105 30.7555 14.5718 31.6014C14.8284 31.7608 15.1632 31.7233 15.3694 31.5025C15.5844 31.2725 15.5918 30.9176 15.3867 30.6787L11.6192 26.2908C11.3905 26.0244 11.0569 25.8712 10.7059 25.8712C10.3457 25.8712 10.0044 26.0325 9.77573 26.3109L6.24159 30.613ZM13.8807 27.2688C13.4025 26.725 13.7887 25.8712 14.5129 25.8712C14.7562 25.8712 14.9876 25.9765 15.1474 26.1599L17.0965 28.3963C17.3666 28.7062 17.371 29.1665 17.107 29.4815C16.7784 29.8737 16.1776 29.8808 15.8397 29.4966L13.8807 27.2688ZM18.916 30.4837C18.5893 30.0939 17.9949 30.0789 17.649 30.4517L17.6317 30.4704C17.3321 30.7933 17.3307 31.2922 17.6286 31.6168C17.9674 31.9859 18.551 31.9809 18.8835 31.6062L18.9004 31.5872C19.1782 31.274 19.1849 30.8046 18.916 30.4837ZM15.8796 32.5691C16.2022 32.203 16.7703 32.1956 17.1023 32.5531C17.388 32.8609 17.3968 33.3343 17.1226 33.6523L15.2632 35.8092C15.1036 35.9943 14.8714 36.1007 14.6271 36.1007C13.9042 36.1007 13.5191 35.2481 13.997 34.7057L15.8796 32.5691ZM19.4861 29.5033C19.1855 29.1792 19.1759 28.6811 19.4639 28.3457L21.3351 26.1671C21.4965 25.9793 21.7317 25.8712 21.9793 25.8712C22.6997 25.8712 23.0929 26.7117 22.6312 27.2647L20.7906 29.4692C20.4549 29.8713 19.8424 29.8873 19.4861 29.5033ZM20.7549 32.5774C20.4328 32.2041 19.8611 32.1841 19.5138 32.534C19.2009 32.8493 19.1851 33.3528 19.4776 33.6871L21.3394 35.8151C21.4982 35.9966 21.7276 36.1007 21.9688 36.1007C22.6845 36.1007 23.0694 35.2601 22.6019 34.7182L20.7549 32.5774Z" fill="url(#paint4_linear_944_527)" fill-opacity="0.17"/>
<path fill-rule="evenodd" clip-rule="evenodd" d="M175.688 87.9235C175.688 89.0703 174.758 90 173.611 90H172.902C171.319 90 170.054 88.6819 170.12 87.1L170.213 84.8484C170.226 84.5368 170.272 84.2265 170.366 83.9292C170.712 82.8387 171.106 82.1636 172.051 81.1756C174.106 79.2946 175.474 78.5778 178.835 78.0456C179.032 78.0145 179.231 78 179.43 78H184.525C185.252 78 185.943 78.3155 186.419 78.8647L186.456 78.9075C187.432 80.0328 189.176 80.0386 190.159 78.9198L190.318 78.7383C190.684 78.3226 191.21 78.0843 191.763 78.0843C193.416 78.0843 194.299 80.03 193.211 81.2738L192.284 82.3348C191.442 83.2976 191.439 84.7335 192.276 85.7002L193.245 86.8196C194.324 88.0644 193.439 90 191.792 90C191.245 90 190.723 89.7663 190.358 89.3576L190.136 89.1089C189.119 87.9691 187.334 87.9754 186.325 89.1225L186.128 89.3464C185.764 89.7613 185.236 89.9964 184.683 89.9901L184.389 89.9868C182.892 89.9698 182.099 88.2101 183.077 87.0773L184.022 86.0074C184.268 85.729 184.271 85.4511 183.944 85.2754C183.343 84.9531 182.245 84.4853 181.259 84.3794C181.068 84.3589 180.864 84.353 180.655 84.3581C179.015 84.3983 176.804 85.2539 176.046 86.7084C175.95 86.8922 175.865 87.0922 175.786 87.3144C175.716 87.5094 175.688 87.7165 175.688 87.9235ZM171.275 87.8111L171.275 87.8105C171.263 86.6712 171.255 85.9329 171.352 84.9144C171.377 84.652 171.43 84.3923 171.523 84.1455C172.007 82.8584 172.738 81.8768 172.863 81.9344C172.935 81.9676 173.401 82.5239 173.827 83.0448C174.261 83.5753 174.257 84.3373 173.825 84.8693L171.399 87.8544C171.358 87.9052 171.275 87.8765 171.275 87.8111ZM172.925 87.7583C172.477 88.3241 172.88 89.1569 173.602 89.1569C174.116 89.1569 174.506 88.7098 174.501 88.1957C174.488 87.0384 174.782 86.3614 175.518 85.6046C175.649 85.4705 175.651 85.2545 175.515 85.1256C175.378 84.9956 175.16 85.0088 175.04 85.1543L173.753 86.7119L172.925 87.7583ZM174.352 82.0671C174.823 82.624 175.686 82.6116 176.14 82.0413L176.862 81.1366C177.474 80.369 176.865 79.3385 175.958 79.7143C175.336 79.9878 174.915 80.2102 174.526 80.4681C173.99 80.8237 173.937 81.576 174.352 82.0671ZM176.242 83.613C176.078 83.8124 176.081 84.1006 176.249 84.2961C176.417 84.4907 176.699 84.536 176.924 84.4129C178.034 83.8066 178.858 83.5961 180.33 83.5363C182.217 83.4762 183.21 83.7555 184.572 84.6014C184.828 84.7608 185.163 84.7233 185.369 84.5025C185.584 84.2725 185.592 83.9176 185.387 83.6787L181.619 79.2908C181.391 79.0244 181.057 78.8712 180.706 78.8712C180.346 78.8712 180.004 79.0325 179.776 79.3109L176.242 83.613ZM183.881 80.2688C183.403 79.725 183.789 78.8712 184.513 78.8712C184.756 78.8712 184.988 78.9765 185.147 79.1599L187.097 81.3963C187.367 81.7062 187.371 82.1665 187.107 82.4815C186.778 82.8737 186.178 82.8808 185.84 82.4966L183.881 80.2688ZM188.916 83.4837C188.589 83.0939 187.995 83.0789 187.649 83.4517L187.632 83.4704C187.332 83.7933 187.331 84.2922 187.629 84.6168C187.967 84.9859 188.551 84.9809 188.884 84.6062L188.9 84.5872C189.178 84.274 189.185 83.8046 188.916 83.4837ZM185.88 85.5691C186.202 85.203 186.77 85.1956 187.102 85.5531C187.388 85.8609 187.397 86.3343 187.123 86.6523L185.263 88.8092C185.104 88.9943 184.871 89.1007 184.627 89.1007C183.904 89.1007 183.519 88.2481 183.997 87.7057L185.88 85.5691ZM189.486 82.5033C189.185 82.1792 189.176 81.6811 189.464 81.3457L191.335 79.1671C191.496 78.9793 191.732 78.8712 191.979 78.8712C192.7 78.8712 193.093 79.7117 192.631 80.2647L190.791 82.4692C190.455 82.8713 189.842 82.8873 189.486 82.5033ZM190.755 85.5774C190.433 85.2041 189.861 85.1841 189.514 85.534C189.201 85.8493 189.185 86.3528 189.478 86.6871L191.339 88.8151C191.498 88.9966 191.728 89.1007 191.969 89.1007C192.684 89.1007 193.069 88.2601 192.602 87.7182L190.755 85.5774Z" fill="url(#paint5_linear_944_527)" fill-opacity="0.17"/>
<path fill-rule="evenodd" clip-rule="evenodd" d="M6.6875 183.923C6.6875 185.07 5.7578 186 4.61097 186H3.90245C2.31922 186 1.05444 184.682 1.11978 183.1L1.21277 180.848C1.22564 180.537 1.27201 180.227 1.36623 179.929C1.71189 178.839 2.10552 178.164 3.0506 177.176C5.10619 175.295 6.47435 174.578 9.83516 174.046C10.0316 174.015 10.2308 174 10.4297 174H15.5252C16.2521 174 16.9431 174.316 17.4192 174.865L17.4563 174.908C18.4318 176.033 20.176 176.039 21.1589 174.92L21.3183 174.738C21.6835 174.323 22.21 174.084 22.7634 174.084C24.4155 174.084 25.2989 176.03 24.2114 177.274L23.2837 178.335C22.4419 179.298 22.4386 180.733 23.2758 181.7L24.2454 182.82C25.3235 184.064 24.4393 186 22.7925 186C22.2447 186 21.723 185.766 21.3583 185.358L21.1364 185.109C20.1193 183.969 18.3343 183.975 17.3254 185.122L17.1285 185.346C16.7635 185.761 16.2357 185.996 15.6832 185.99L15.3889 185.987C13.892 185.97 13.0988 184.21 14.0774 183.077L15.0223 182.007C15.2682 181.729 15.2708 181.451 14.9437 181.275C14.3433 180.953 13.2452 180.485 12.2589 180.379C12.0681 180.359 11.8643 180.353 11.6554 180.358C10.0153 180.398 7.80449 181.254 7.04575 182.708C6.94989 182.892 6.86461 183.092 6.78556 183.314C6.71619 183.509 6.6875 183.716 6.6875 183.923ZM2.27479 183.811L2.27478 183.811C2.26294 182.671 2.25526 181.933 2.35179 180.914C2.37666 180.652 2.43049 180.392 2.5232 180.145C3.00675 178.858 3.73848 177.877 3.8631 177.934C3.93475 177.968 4.4006 178.524 4.82688 179.045C5.26107 179.575 5.25713 180.337 4.82477 180.869L2.39889 183.854C2.35764 183.905 2.27547 183.876 2.27479 183.811ZM3.9251 183.758C3.47738 184.324 3.88039 185.157 4.60195 185.157C5.11609 185.157 5.5065 184.71 5.5007 184.196C5.48764 183.038 5.78224 182.361 6.51834 181.605C6.6488 181.47 6.65061 181.254 6.51493 181.126C6.37811 180.996 6.15983 181.009 6.03966 181.154L4.75298 182.712L3.9251 183.758ZM5.35209 178.067C5.82309 178.624 6.68562 178.612 7.14042 178.041L7.86205 177.137C8.47421 176.369 7.86536 175.339 6.95833 175.714C6.33592 175.988 5.91475 176.21 5.52608 176.468C4.99023 176.824 4.93681 177.576 5.35209 178.067ZM7.24159 179.613C7.07784 179.812 7.08113 180.101 7.24939 180.296C7.41686 180.491 7.69914 180.536 7.92449 180.413C9.03444 179.807 9.85751 179.596 11.3304 179.536C13.2174 179.476 14.2105 179.756 15.5718 180.601C15.8284 180.761 16.1632 180.723 16.3694 180.503C16.5844 180.272 16.5918 179.918 16.3867 179.679L12.6192 175.291C12.3905 175.024 12.0569 174.871 11.7059 174.871C11.3457 174.871 11.0044 175.033 10.7757 175.311L7.24159 179.613ZM14.8807 176.269C14.4025 175.725 14.7887 174.871 15.5129 174.871C15.7562 174.871 15.9876 174.976 16.1474 175.16L18.0965 177.396C18.3666 177.706 18.371 178.166 18.107 178.481C17.7784 178.874 17.1776 178.881 16.8397 178.497L14.8807 176.269ZM19.916 179.484C19.5893 179.094 18.9949 179.079 18.649 179.452L18.6317 179.47C18.3321 179.793 18.3307 180.292 18.6286 180.617C18.9674 180.986 19.551 180.981 19.8835 180.606L19.9004 180.587C20.1782 180.274 20.1849 179.805 19.916 179.484ZM16.8796 181.569C17.2022 181.203 17.7703 181.196 18.1023 181.553C18.388 181.861 18.3968 182.334 18.1226 182.652L16.2632 184.809C16.1036 184.994 15.8714 185.101 15.6271 185.101C14.9042 185.101 14.5191 184.248 14.997 183.706L16.8796 181.569ZM20.4861 178.503C20.1855 178.179 20.1759 177.681 20.4639 177.346L22.3351 175.167C22.4965 174.979 22.7317 174.871 22.9793 174.871C23.6997 174.871 24.0929 175.712 23.6312 176.265L21.7906 178.469C21.4549 178.871 20.8424 178.887 20.4861 178.503ZM21.7549 181.577C21.4328 181.204 20.8611 181.184 20.5138 181.534C20.2009 181.849 20.1851 182.353 20.4776 182.687L22.3394 184.815C22.4982 184.997 22.7276 185.101 22.9688 185.101C23.6845 185.101 24.0694 184.26 23.6019 183.718L21.7549 181.577Z" fill="url(#paint6_linear_944_527)" fill-opacity="0.17"/>
<path fill-rule="evenodd" clip-rule="evenodd" d="M277.688 9.92347C277.688 11.0703 276.758 12 275.611 12H274.902C273.319 12 272.054 10.6819 272.12 9.10002L272.213 6.8484C272.226 6.5368 272.272 6.22653 272.366 5.92924C272.712 4.83868 273.106 4.16355 274.051 3.17564C276.106 1.29457 277.474 0.577832 280.835 0.0456084C281.032 0.0145019 281.231 0 281.43 0H286.525C287.252 0 287.943 0.315514 288.419 0.864737L288.456 0.907509C289.432 2.03283 291.176 2.03859 292.159 0.919756L292.318 0.738299C292.684 0.322602 293.21 0.0843091 293.763 0.0843091C295.416 0.0843091 296.299 2.02996 295.211 3.27377L294.284 4.33479C293.442 5.29755 293.439 6.73347 294.276 7.70015L295.245 8.81955C296.324 10.0644 295.439 12 293.792 12C293.245 12 292.723 11.7663 292.358 11.3576L292.136 11.1089C291.119 9.96906 289.334 9.97544 288.325 11.1225L288.128 11.3464C287.764 11.7613 287.236 11.9964 286.683 11.9901L286.389 11.9868C284.892 11.9698 284.099 10.2101 285.077 9.07728L286.022 8.00735C286.268 7.72902 286.271 7.45107 285.944 7.27541C285.343 6.95306 284.245 6.48531 283.259 6.37939C283.068 6.35889 282.864 6.35296 282.655 6.35808C281.015 6.39829 278.804 7.25387 278.046 8.70844C277.95 8.89221 277.865 9.09221 277.786 9.3144C277.716 9.50942 277.688 9.71648 277.688 9.92347ZM273.275 9.81109L273.275 9.81052C273.263 8.67122 273.255 7.93291 273.352 6.91442C273.377 6.65199 273.43 6.39225 273.523 6.14548C274.007 4.85835 274.738 3.87677 274.863 3.93443C274.935 3.96758 275.401 4.52389 275.827 5.04477C276.261 5.57532 276.257 6.33727 275.825 6.86931L273.399 9.85443C273.358 9.9052 273.275 9.87649 273.275 9.81109ZM274.925 9.75827C274.477 10.3241 274.88 11.1569 275.602 11.1569C276.116 11.1569 276.506 10.7098 276.501 10.1957C276.488 9.03842 276.782 8.36144 277.518 7.60461C277.649 7.47047 277.651 7.25445 277.515 7.12558C277.378 6.99563 277.16 7.00882 277.04 7.1543L275.753 8.71194L274.925 9.75827ZM276.352 4.06706C276.823 4.62399 277.686 4.61159 278.14 4.04135L278.862 3.13655C279.474 2.369 278.865 1.33855 277.958 1.71429C277.336 1.98781 276.915 2.21018 276.526 2.46808C275.99 2.82365 275.937 3.57602 276.352 4.06706ZM278.242 5.61303C278.078 5.81236 278.081 6.10056 278.249 6.2961C278.417 6.49073 278.699 6.53602 278.924 6.41292C280.034 5.80662 280.858 5.59612 282.33 5.5363C284.217 5.47621 285.21 5.75554 286.572 6.60135C286.828 6.7608 287.163 6.72333 287.369 6.50255C287.584 6.27249 287.592 5.91757 287.387 5.6787L283.619 1.29079C283.391 1.02444 283.057 0.871194 282.706 0.871194C282.346 0.871194 282.004 1.03251 281.776 1.31085L278.242 5.61303ZM285.881 2.2688C285.403 1.72497 285.789 0.871194 286.513 0.871194C286.756 0.871194 286.988 0.976477 287.147 1.1599L289.097 3.39633C289.367 3.70619 289.371 4.16647 289.107 4.4815C288.778 4.87366 288.178 4.88081 287.84 4.49657L285.881 2.2688ZM290.916 5.48372C290.589 5.09394 289.995 5.07894 289.649 5.45174L289.632 5.47039C289.332 5.79332 289.331 6.29223 289.629 6.61677C289.967 6.98587 290.551 6.98095 290.884 6.60619L290.9 6.58716C291.178 6.274 291.185 5.8046 290.916 5.48372ZM287.88 7.56907C288.202 7.20301 288.77 7.1956 289.102 7.55314C289.388 7.8609 289.397 8.33427 289.123 8.65235L287.263 10.8092C287.104 10.9943 286.871 11.1007 286.627 11.1007C285.904 11.1007 285.519 10.2481 285.997 9.70572L287.88 7.56907ZM291.486 4.5033C291.185 4.17923 291.176 3.6811 291.464 3.34574L293.335 1.1671C293.496 0.979262 293.732 0.871194 293.979 0.871194C294.7 0.871194 295.093 1.71169 294.631 2.26465L292.791 4.46919C292.455 4.87128 291.842 4.8873 291.486 4.5033ZM292.755 7.57736C292.433 7.20408 291.861 7.18412 291.514 7.53403C291.201 7.84928 291.185 8.35283 291.478 8.68711L293.339 10.8151C293.498 10.9966 293.728 11.1007 293.969 11.1007C294.684 11.1007 295.069 10.2601 294.602 9.71823L292.755 7.57736Z" fill="url(#paint7_linear_944_527)" fill-opacity="0.17"/>
<path fill-rule="evenodd" clip-rule="evenodd" d="M6.6875 103.923C6.6875 105.07 5.7578 106 4.61097 106H3.90245C2.31922 106 1.05444 104.682 1.11978 103.1L1.21277 100.848C1.22564 100.537 1.27201 100.227 1.36623 99.9292C1.71189 98.8387 2.10552 98.1636 3.0506 97.1756C5.10619 95.2946 6.47435 94.5778 9.83516 94.0456C10.0316 94.0145 10.2308 94 10.4297 94H15.5252C16.2521 94 16.9431 94.3155 17.4192 94.8647L17.4563 94.9075C18.4318 96.0328 20.176 96.0386 21.1589 94.9198L21.3183 94.7383C21.6835 94.3226 22.21 94.0843 22.7634 94.0843C24.4155 94.0843 25.2989 96.03 24.2114 97.2738L23.2837 98.3348C22.4419 99.2976 22.4386 100.733 23.2758 101.7L24.2454 102.82C25.3235 104.064 24.4393 106 22.7925 106C22.2447 106 21.723 105.766 21.3583 105.358L21.1364 105.109C20.1193 103.969 18.3343 103.975 17.3254 105.122L17.1285 105.346C16.7635 105.761 16.2357 105.996 15.6832 105.99L15.3889 105.987C13.892 105.97 13.0988 104.21 14.0774 103.077L15.0223 102.007C15.2682 101.729 15.2708 101.451 14.9437 101.275C14.3433 100.953 13.2452 100.485 12.2589 100.379C12.0681 100.359 11.8643 100.353 11.6554 100.358C10.0153 100.398 7.80449 101.254 7.04575 102.708C6.94989 102.892 6.86461 103.092 6.78556 103.314C6.71619 103.509 6.6875 103.716 6.6875 103.923ZM2.27479 103.811L2.27478 103.811C2.26294 102.671 2.25526 101.933 2.35179 100.914C2.37666 100.652 2.43049 100.392 2.5232 100.145C3.00675 98.8584 3.73848 97.8768 3.8631 97.9344C3.93475 97.9676 4.4006 98.5239 4.82688 99.0448C5.26107 99.5753 5.25713 100.337 4.82477 100.869L2.39889 103.854C2.35764 103.905 2.27547 103.876 2.27479 103.811ZM3.9251 103.758C3.47738 104.324 3.88039 105.157 4.60195 105.157C5.11609 105.157 5.5065 104.71 5.5007 104.196C5.48764 103.038 5.78224 102.361 6.51834 101.605C6.6488 101.47 6.65061 101.254 6.51493 101.126C6.37811 100.996 6.15983 101.009 6.03966 101.154L4.75298 102.712L3.9251 103.758ZM5.35209 98.0671C5.82309 98.624 6.68562 98.6116 7.14042 98.0413L7.86205 97.1366C8.47421 96.369 7.86536 95.3385 6.95833 95.7143C6.33592 95.9878 5.91475 96.2102 5.52608 96.4681C4.99023 96.8237 4.93681 97.576 5.35209 98.0671ZM7.24159 99.613C7.07784 99.8124 7.08113 100.101 7.24939 100.296C7.41686 100.491 7.69914 100.536 7.92449 100.413C9.03444 99.8066 9.85751 99.5961 11.3304 99.5363C13.2174 99.4762 14.2105 99.7555 15.5718 100.601C15.8284 100.761 16.1632 100.723 16.3694 100.503C16.5844 100.272 16.5918 99.9176 16.3867 99.6787L12.6192 95.2908C12.3905 95.0244 12.0569 94.8712 11.7059 94.8712C11.3457 94.8712 11.0044 95.0325 10.7757 95.3109L7.24159 99.613ZM14.8807 96.2688C14.4025 95.725 14.7887 94.8712 15.5129 94.8712C15.7562 94.8712 15.9876 94.9765 16.1474 95.1599L18.0965 97.3963C18.3666 97.7062 18.371 98.1665 18.107 98.4815C17.7784 98.8737 17.1776 98.8808 16.8397 98.4966L14.8807 96.2688ZM19.916 99.4837C19.5893 99.0939 18.9949 99.0789 18.649 99.4517L18.6317 99.4704C18.3321 99.7933 18.3307 100.292 18.6286 100.617C18.9674 100.986 19.551 100.981 19.8835 100.606L19.9004 100.587C20.1782 100.274 20.1849 99.8046 19.916 99.4837ZM16.8796 101.569C17.2022 101.203 17.7703 101.196 18.1023 101.553C18.388 101.861 18.3968 102.334 18.1226 102.652L16.2632 104.809C16.1036 104.994 15.8714 105.101 15.6271 105.101C14.9042 105.101 14.5191 104.248 14.997 103.706L16.8796 101.569ZM20.4861 98.5033C20.1855 98.1792 20.1759 97.6811 20.4639 97.3457L22.3351 95.1671C22.4965 94.9793 22.7317 94.8712 22.9793 94.8712C23.6997 94.8712 24.0929 95.7117 23.6312 96.2647L21.7906 98.4692C21.4549 98.8713 20.8424 98.8873 20.4861 98.5033ZM21.7549 101.577C21.4328 101.204 20.8611 101.184 20.5138 101.534C20.2009 101.849 20.1851 102.353 20.4776 102.687L22.3394 104.815C22.4982 104.997 22.7276 105.101 22.9688 105.101C23.6845 105.101 24.0694 104.26 23.6019 103.718L21.7549 101.577Z" fill="url(#paint8_linear_944_527)" fill-opacity="0.17"/>
<path fill-rule="evenodd" clip-rule="evenodd" d="M375.688 177.923C375.688 179.07 374.758 180 373.611 180H372.902C371.319 180 370.054 178.682 370.12 177.1L370.213 174.848C370.226 174.537 370.272 174.227 370.366 173.929C370.712 172.839 371.106 172.164 372.051 171.176C374.106 169.295 375.474 168.578 378.835 168.046C379.032 168.015 379.231 168 379.43 168H384.525C385.252 168 385.943 168.316 386.419 168.865L386.456 168.908C387.432 170.033 389.176 170.039 390.159 168.92L390.318 168.738C390.684 168.323 391.21 168.084 391.763 168.084C393.416 168.084 394.299 170.03 393.211 171.274L392.284 172.335C391.442 173.298 391.439 174.733 392.276 175.7L393.245 176.82C394.324 178.064 393.439 180 391.792 180C391.245 180 390.723 179.766 390.358 179.358L390.136 179.109C389.119 177.969 387.334 177.975 386.325 179.122L386.128 179.346C385.764 179.761 385.236 179.996 384.683 179.99L384.389 179.987C382.892 179.97 382.099 178.21 383.077 177.077L384.022 176.007C384.268 175.729 384.271 175.451 383.944 175.275C383.343 174.953 382.245 174.485 381.259 174.379C381.068 174.359 380.864 174.353 380.655 174.358C379.015 174.398 376.804 175.254 376.046 176.708C375.95 176.892 375.865 177.092 375.786 177.314C375.716 177.509 375.688 177.716 375.688 177.923ZM371.275 177.811L371.275 177.811C371.263 176.671 371.255 175.933 371.352 174.914C371.377 174.652 371.43 174.392 371.523 174.145C372.007 172.858 372.738 171.877 372.863 171.934C372.935 171.968 373.401 172.524 373.827 173.045C374.261 173.575 374.257 174.337 373.825 174.869L371.399 177.854C371.358 177.905 371.275 177.876 371.275 177.811ZM372.925 177.758C372.477 178.324 372.88 179.157 373.602 179.157C374.116 179.157 374.506 178.71 374.501 178.196C374.488 177.038 374.782 176.361 375.518 175.605C375.649 175.47 375.651 175.254 375.515 175.126C375.378 174.996 375.16 175.009 375.04 175.154L373.753 176.712L372.925 177.758ZM374.352 172.067C374.823 172.624 375.686 172.612 376.14 172.041L376.862 171.137C377.474 170.369 376.865 169.339 375.958 169.714C375.336 169.988 374.915 170.21 374.526 170.468C373.99 170.824 373.937 171.576 374.352 172.067ZM376.242 173.613C376.078 173.812 376.081 174.101 376.249 174.296C376.417 174.491 376.699 174.536 376.924 174.413C378.034 173.807 378.858 173.596 380.33 173.536C382.217 173.476 383.21 173.756 384.572 174.601C384.828 174.761 385.163 174.723 385.369 174.503C385.584 174.272 385.592 173.918 385.387 173.679L381.619 169.291C381.391 169.024 381.057 168.871 380.706 168.871C380.346 168.871 380.004 169.033 379.776 169.311L376.242 173.613ZM383.881 170.269C383.403 169.725 383.789 168.871 384.513 168.871C384.756 168.871 384.988 168.976 385.147 169.16L387.097 171.396C387.367 171.706 387.371 172.166 387.107 172.481C386.778 172.874 386.178 172.881 385.84 172.497L383.881 170.269ZM388.916 173.484C388.589 173.094 387.995 173.079 387.649 173.452L387.632 173.47C387.332 173.793 387.331 174.292 387.629 174.617C387.967 174.986 388.551 174.981 388.884 174.606L388.9 174.587C389.178 174.274 389.185 173.805 388.916 173.484ZM385.88 175.569C386.202 175.203 386.77 175.196 387.102 175.553C387.388 175.861 387.397 176.334 387.123 176.652L385.263 178.809C385.104 178.994 384.871 179.101 384.627 179.101C383.904 179.101 383.519 178.248 383.997 177.706L385.88 175.569ZM389.486 172.503C389.185 172.179 389.176 171.681 389.464 171.346L391.335 169.167C391.496 168.979 391.732 168.871 391.979 168.871C392.7 168.871 393.093 169.712 392.631 170.265L390.791 172.469C390.455 172.871 389.842 172.887 389.486 172.503ZM390.755 175.577C390.433 175.204 389.861 175.184 389.514 175.534C389.201 175.849 389.185 176.353 389.478 176.687L391.339 178.815C391.498 178.997 391.728 179.101 391.969 179.101C392.684 179.101 393.069 178.26 392.602 177.718L390.755 175.577Z" fill="url(#paint9_linear_944_527)" fill-opacity="0.17"/>
<defs>
<linearGradient id="paint0_linear_944_527" x1="114.224" y1="-11.1083" x2="135.643" y2="26.1778" gradientUnits="userSpaceOnUse">
<stop stop-color="#0B2B8C"/>
<stop offset="0.168269" stop-color="#4669BA"/>
<stop offset="0.447115" stop-color="#14357E"/>
<stop offset="0.778846" stop-color="#42A4D9"/>
</linearGradient>
<linearGradient id="paint1_linear_944_527" x1="238.224" y1="132.892" x2="259.643" y2="170.178" gradientUnits="userSpaceOnUse">
<stop stop-color="#0B2B8C"/>
<stop offset="0.168269" stop-color="#4669BA"/>
<stop offset="0.447115" stop-color="#14357E"/>
<stop offset="0.778846" stop-color="#42A4D9"/>
</linearGradient>
<linearGradient id="paint2_linear_944_527" x1="77.2245" y1="114.892" x2="98.6432" y2="152.178" gradientUnits="userSpaceOnUse">
<stop stop-color="#0B2B8C"/>
<stop offset="0.168269" stop-color="#4669BA"/>
<stop offset="0.447115" stop-color="#14357E"/>
<stop offset="0.778846" stop-color="#42A4D9"/>
</linearGradient>
<linearGradient id="paint3_linear_944_527" x1="359.224" y1="54.8917" x2="380.643" y2="92.1778" gradientUnits="userSpaceOnUse">
<stop stop-color="#0B2B8C"/>
<stop offset="0.168269" stop-color="#4669BA"/>
<stop offset="0.447115" stop-color="#14357E"/>
<stop offset="0.778846" stop-color="#42A4D9"/>
</linearGradient>
<linearGradient id="paint4_linear_944_527" x1="3.22445" y1="7.89174" x2="24.6432" y2="45.1778" gradientUnits="userSpaceOnUse">
<stop stop-color="#0B2B8C"/>
<stop offset="0.168269" stop-color="#4669BA"/>
<stop offset="0.447115" stop-color="#14357E"/>
<stop offset="0.778846" stop-color="#42A4D9"/>
</linearGradient>
<linearGradient id="paint5_linear_944_527" x1="173.224" y1="60.8917" x2="194.643" y2="98.1778" gradientUnits="userSpaceOnUse">
<stop stop-color="#0B2B8C"/>
<stop offset="0.168269" stop-color="#4669BA"/>
<stop offset="0.447115" stop-color="#14357E"/>
<stop offset="0.778846" stop-color="#42A4D9"/>
</linearGradient>
<linearGradient id="paint6_linear_944_527" x1="4.22445" y1="156.892" x2="25.6432" y2="194.178" gradientUnits="userSpaceOnUse">
<stop stop-color="#0B2B8C"/>
<stop offset="0.168269" stop-color="#4669BA"/>
<stop offset="0.447115" stop-color="#14357E"/>
<stop offset="0.778846" stop-color="#42A4D9"/>
</linearGradient>
<linearGradient id="paint7_linear_944_527" x1="275.224" y1="-17.1083" x2="296.643" y2="20.1778" gradientUnits="userSpaceOnUse">
<stop stop-color="#0B2B8C"/>
<stop offset="0.168269" stop-color="#4669BA"/>
<stop offset="0.447115" stop-color="#14357E"/>
<stop offset="0.778846" stop-color="#42A4D9"/>
</linearGradient>
<linearGradient id="paint8_linear_944_527" x1="4.22445" y1="76.8917" x2="25.6432" y2="114.178" gradientUnits="userSpaceOnUse">
<stop stop-color="#0B2B8C"/>
<stop offset="0.168269" stop-color="#4669BA"/>
<stop offset="0.447115" stop-color="#14357E"/>
<stop offset="0.778846" stop-color="#42A4D9"/>
</linearGradient>
<linearGradient id="paint9_linear_944_527" x1="373.224" y1="150.892" x2="394.643" y2="188.178" gradientUnits="userSpaceOnUse">
<stop stop-color="#0B2B8C"/>
<stop offset="0.168269" stop-color="#4669BA"/>
<stop offset="0.447115" stop-color="#14357E"/>
<stop offset="0.778846" stop-color="#42A4D9"/>
</linearGradient>
</defs>
</svg>
