<svg width="225" height="147" viewBox="0 0 225 147" fill="none" xmlns="http://www.w3.org/2000/svg">
<path fill-rule="evenodd" clip-rule="evenodd" d="M49.755 143C49.755 145.209 47.9641 147 45.755 147H4.00002C1.74457 147 -0.064891 145.136 0.00176533 142.882L1.90567 78.4876C1.91236 78.2613 1.93894 78.0322 1.98398 77.8104C5.34672 61.2504 8.55522 52.4921 17.8621 38.9016C36.3265 15.2981 48.4658 6.65984 79.539 0.0868931C79.809 0.0297729 80.0905 0 80.3666 0H135.065C136.449 0 137.734 0.715175 138.464 1.89095L156.986 31.7396C158.545 34.2519 162.197 34.2629 163.771 31.7599L181.918 2.90338C182.65 1.73923 183.929 1.03279 185.304 1.03279H220.658C223.8 1.03279 225.716 4.49085 224.048 7.15495L183.738 71.5599C182.928 72.8529 182.925 74.4935 183.729 75.7899L224.093 140.892C225.745 143.557 223.829 147 220.693 147H185.625C184.26 147 182.989 146.304 182.254 145.153L163.079 115.135C161.5 112.663 157.886 112.675 156.323 115.157L137.472 145.096C136.727 146.278 135.42 146.986 134.023 146.964L99.888 146.423C96.7836 146.374 94.9164 142.961 96.5494 140.32L114.559 111.197L125.796 93.423C125.994 93.1097 126.147 92.748 125.927 92.4499C124.112 89.9933 110.444 79.9226 98.6121 78.1475C89.2926 76.7494 76.4629 80.882 71.8504 83.1363C70.6367 83.7295 69.4783 84.8638 68.4532 85.7436C57.6973 94.9746 53.2391 102.162 49.8504 117.308C49.7872 117.59 49.755 117.884 49.755 118.173V143ZM11.0589 120.186L11.0589 120.179C10.9428 104.587 10.8724 95.1259 12.0708 80.1606C12.0862 79.9681 12.1161 79.7733 12.1597 79.5852C16.2903 61.7617 23.7969 47.4274 24.9871 48.1967C25.9722 48.8334 35.4521 65.2192 38.7733 70.9931C39.4852 72.2308 39.4736 73.7436 38.7556 74.9778L12.269 120.507C11.937 121.078 11.0639 120.846 11.0589 120.186ZM19.2086 130.701C17.6983 133.367 19.6246 136.672 22.6891 136.672H35.5874C37.9207 136.672 39.7532 134.683 39.6151 132.354C38.458 112.838 40.9002 103.384 48.962 92.1814C49.814 90.9974 49.8269 89.3917 48.9489 88.2268C47.5544 86.3764 44.7277 86.5346 43.5483 88.529L32.7907 106.721L19.2086 130.701ZM42.5 57.181C44.0801 59.7909 47.8828 59.7422 49.3955 57.0927L70.4414 20.2307C72.0965 17.3318 69.674 13.8042 66.4493 14.6666C61.9684 15.8649 57.899 17.6616 52.13 21C43.3558 26.3866 39.1419 30.1533 33.3418 36.7128C32.1949 38.0099 32.0404 39.904 32.9371 41.3851L42.5 57.181ZM53.3505 70.9082C52.5996 72.1851 52.6159 73.7724 53.3927 75.0336L54.8145 77.3419C56.0863 79.4065 58.8843 79.8612 60.8162 78.3957C70.442 71.0933 77.6483 68.5471 90.4693 67.8197C107.189 67.0759 115.906 70.5768 128.036 81.1916C129.89 82.8135 132.764 82.4882 134.133 80.4409L136.543 76.8375C137.412 75.5379 137.445 73.8512 136.626 72.5193L99.7833 12.5776C99.0555 11.3935 97.7654 10.6721 96.3755 10.6721H91.061C89.6433 10.6721 88.3316 11.4225 87.613 12.6445L53.3505 70.9082ZM114.686 16.803C113.009 14.1393 114.923 10.6721 118.071 10.6721H128.286C129.666 10.6721 130.949 11.3838 131.68 12.5549L152.62 46.1204C153.415 47.3948 153.429 49.0072 152.657 50.2953L147.764 58.4516C146.23 61.009 142.537 61.0486 140.949 58.5248L114.686 16.803ZM163.62 63.6115C162.108 61.0907 158.484 61.0074 156.858 63.4561L151.306 71.8153C150.42 73.1502 150.415 74.8854 151.295 76.2248L156.623 84.3335C158.218 86.7605 161.786 86.7329 163.342 84.2816L168.538 76.101C169.35 74.8232 169.37 73.1968 168.592 71.8987L163.62 63.6115ZM141.12 89.5687C142.668 87.1157 146.229 87.0731 147.835 89.4885L152.837 97.0134C153.701 98.3141 153.729 99.9991 152.909 101.328L132.695 134.084C131.966 135.265 130.678 135.984 129.291 135.984H119.096C115.947 135.984 114.033 132.513 115.713 129.85L141.12 89.5687ZM167.545 50.3266C166.682 49.028 166.653 47.3466 167.469 46.0186L188.03 12.5771C188.758 11.3933 190.048 10.6721 191.438 10.6721H201.49C204.596 10.6721 206.517 14.0581 204.923 16.7243L179.903 58.5865C178.393 61.1122 174.765 61.1985 173.137 58.7474L167.545 50.3266ZM179.818 89.4769C178.313 87.0411 174.812 86.9282 173.154 89.262L167.677 96.9707C166.74 98.2886 166.689 100.041 167.547 101.411L188.026 134.107C188.757 135.275 190.038 135.984 191.416 135.984H201.369C204.501 135.984 206.418 132.547 204.772 129.882L179.818 89.4769Z" fill="url(#paint0_linear_707_4962)"/>
<defs>
<linearGradient id="paint0_linear_707_4962" x1="28.156" y1="-209.576" x2="324.684" y2="159.949" gradientUnits="userSpaceOnUse">
<stop offset="0.0715811" stop-color="#0B2B8C"/>
<stop offset="0.201652" stop-color="#4669BA"/>
<stop offset="0.390174" stop-color="#14357E"/>
<stop offset="0.639411" stop-color="#42A4D9"/>
</linearGradient>
</defs>
</svg>
