<svg width="56" height="14" viewBox="0 0 56 14" fill="none" xmlns="http://www.w3.org/2000/svg">
<path d="M-4.05312e-05 10.71V8.96996H1.37996V1.94996H-4.05312e-05V0.20996H5.39996C6.03996 0.20996 6.59496 0.31996 7.06496 0.53996C7.54496 0.749961 7.91496 1.05496 8.17496 1.45496C8.44496 1.84496 8.57996 2.31496 8.57996 2.86496V3.01496C8.57996 3.49496 8.48996 3.88996 8.30996 4.19996C8.12996 4.49996 7.91496 4.73496 7.66496 4.90496C7.42496 5.06496 7.19496 5.17996 6.97496 5.24996V5.51996C7.19496 5.57996 7.43496 5.69496 7.69496 5.86496C7.95496 6.02496 8.17496 6.25996 8.35496 6.56996C8.54496 6.87996 8.63996 7.28496 8.63996 7.78496V7.93496C8.63996 8.51496 8.50496 9.01496 8.23496 9.43496C7.96496 9.84496 7.58996 10.16 7.10996 10.38C6.63996 10.6 6.08996 10.71 5.45996 10.71H-4.05312e-05ZM3.35996 8.90996H5.21996C5.64996 8.90996 5.99496 8.80496 6.25496 8.59496C6.52496 8.38496 6.65996 8.08496 6.65996 7.69496V7.54496C6.65996 7.15496 6.52996 6.85496 6.26996 6.64496C6.00996 6.43496 5.65996 6.32996 5.21996 6.32996H3.35996V8.90996ZM3.35996 4.52996H5.18996C5.59996 4.52996 5.93496 4.42496 6.19496 4.21496C6.46496 4.00496 6.59996 3.71496 6.59996 3.34496V3.19496C6.59996 2.81496 6.46996 2.52496 6.20996 2.32496C5.94996 2.11496 5.60996 2.00996 5.18996 2.00996H3.35996V4.52996ZM9.7209 10.71V3.26996H11.5809V4.10996H11.8509C11.9609 3.80996 12.1409 3.58996 12.3909 3.44996C12.6509 3.30996 12.9509 3.23996 13.2909 3.23996H14.1909V4.91996H13.2609C12.7809 4.91996 12.3859 5.04996 12.0759 5.30996C11.7659 5.55996 11.6109 5.94996 11.6109 6.47996V10.71H9.7209ZM15.0682 10.71V3.26996H16.9582V10.71H15.0682ZM16.0132 2.39996C15.6732 2.39996 15.3832 2.28996 15.1432 2.06996C14.9132 1.84996 14.7982 1.55996 14.7982 1.19996C14.7982 0.839961 14.9132 0.549961 15.1432 0.32996C15.3832 0.10996 15.6732 -3.97563e-05 16.0132 -3.97563e-05C16.3632 -3.97563e-05 16.6532 0.10996 16.8832 0.32996C17.1132 0.549961 17.2282 0.839961 17.2282 1.19996C17.2282 1.55996 17.1132 1.84996 16.8832 2.06996C16.6532 2.28996 16.3632 2.39996 16.0132 2.39996ZM21.4525 10.92C20.8625 10.92 20.3075 10.775 19.7875 10.485C19.2775 10.185 18.8675 9.74996 18.5575 9.17996C18.2475 8.60996 18.0925 7.91996 18.0925 7.10996V6.86996C18.0925 6.05996 18.2475 5.36996 18.5575 4.79996C18.8675 4.22996 19.2775 3.79996 19.7875 3.50996C20.2975 3.20996 20.8525 3.05996 21.4525 3.05996C21.9025 3.05996 22.2775 3.11496 22.5775 3.22496C22.8875 3.32496 23.1375 3.45496 23.3275 3.61496C23.5175 3.77496 23.6625 3.94496 23.7625 4.12496H24.0325V0.20996H25.9225V10.71H24.0625V9.80996H23.7925C23.6225 10.09 23.3575 10.345 22.9975 10.575C22.6475 10.805 22.1325 10.92 21.4525 10.92ZM22.0225 9.26996C22.6025 9.26996 23.0875 9.08496 23.4775 8.71496C23.8675 8.33496 24.0625 7.78496 24.0625 7.06496V6.91496C24.0625 6.19496 23.8675 5.64996 23.4775 5.27996C23.0975 4.89996 22.6125 4.70996 22.0225 4.70996C21.4425 4.70996 20.9575 4.89996 20.5675 5.27996C20.1775 5.64996 19.9825 6.19496 19.9825 6.91496V7.06496C19.9825 7.78496 20.1775 8.33496 20.5675 8.71496C20.9575 9.08496 21.4425 9.26996 22.0225 9.26996ZM27.058 7.01996V6.77996C27.058 5.99996 27.213 5.33496 27.523 4.78496C27.833 4.22496 28.243 3.79996 28.753 3.50996C29.273 3.20996 29.838 3.05996 30.448 3.05996C31.128 3.05996 31.643 3.17996 31.993 3.41996C32.343 3.65996 32.598 3.90996 32.758 4.16996H33.028V3.26996H34.888V12.03C34.888 12.54 34.738 12.945 34.438 13.245C34.138 13.555 33.738 13.71 33.238 13.71H28.258V12.06H32.578C32.858 12.06 32.998 11.91 32.998 11.61V9.67496H32.728C32.628 9.83496 32.488 9.99996 32.308 10.17C32.128 10.33 31.888 10.465 31.588 10.575C31.288 10.685 30.908 10.74 30.448 10.74C29.838 10.74 29.273 10.595 28.753 10.305C28.243 10.005 27.833 9.57996 27.523 9.02996C27.213 8.46996 27.058 7.79996 27.058 7.01996ZM30.988 9.08996C31.568 9.08996 32.053 8.90496 32.443 8.53496C32.833 8.16496 33.028 7.64496 33.028 6.97496V6.82496C33.028 6.14496 32.833 5.62496 32.443 5.26496C32.063 4.89496 31.578 4.70996 30.988 4.70996C30.408 4.70996 29.923 4.89496 29.533 5.26496C29.143 5.62496 28.948 6.14496 28.948 6.82496V6.97496C28.948 7.64496 29.143 8.16496 29.533 8.53496C29.923 8.90496 30.408 9.08996 30.988 9.08996ZM39.7734 10.92C39.0334 10.92 38.3784 10.765 37.8084 10.455C37.2484 10.135 36.8084 9.68996 36.4884 9.11996C36.1784 8.53996 36.0234 7.85996 36.0234 7.07996V6.89996C36.0234 6.11996 36.1784 5.44496 36.4884 4.87496C36.7984 4.29496 37.2334 3.84996 37.7934 3.53996C38.3534 3.21996 39.0034 3.05996 39.7434 3.05996C40.4734 3.05996 41.1084 3.22496 41.6484 3.55496C42.1884 3.87496 42.6084 4.32496 42.9084 4.90496C43.2084 5.47496 43.3584 6.13996 43.3584 6.89996V7.54496H37.9434C37.9634 8.05496 38.1534 8.46996 38.5134 8.78996C38.8734 9.10996 39.3134 9.26996 39.8334 9.26996C40.3634 9.26996 40.7534 9.15496 41.0034 8.92496C41.2534 8.69496 41.4434 8.43996 41.5734 8.15996L43.1184 8.96996C42.9784 9.22996 42.7734 9.51496 42.5034 9.82496C42.2434 10.125 41.8934 10.385 41.4534 10.605C41.0134 10.815 40.4534 10.92 39.7734 10.92ZM37.9584 6.13496H41.4384C41.3984 5.70496 41.2234 5.35996 40.9134 5.09996C40.6134 4.83996 40.2184 4.70996 39.7284 4.70996C39.2184 4.70996 38.8134 4.83996 38.5134 5.09996C38.2134 5.35996 38.0284 5.70496 37.9584 6.13496Z" fill="#00244D"/>
<path d="M46.9292 10.71L50.0042 5.41496L46.9592 0.20996H49.2092L51.2942 4.00496H51.5642L53.6492 0.20996H55.8992L52.8542 5.41496L55.9292 10.71H53.6792L51.5642 6.82496H51.2942L49.1792 10.71H46.9292Z" fill="#0060CF"/>
</svg>
