<svg width="84" height="28" viewBox="0 0 84 28" fill="none" xmlns="http://www.w3.org/2000/svg">
<path d="M1.2642 21V6.45455H7.08807C8.15814 6.45455 9.05066 6.61316 9.76562 6.9304C10.4806 7.24763 11.018 7.68797 11.3778 8.25142C11.7377 8.81013 11.9176 9.45407 11.9176 10.1832C11.9176 10.7514 11.804 11.2509 11.5767 11.6818C11.3494 12.108 11.0369 12.4583 10.6392 12.733C10.2462 13.0028 9.7964 13.1946 9.28977 13.3082V13.4503C9.84375 13.474 10.3622 13.6302 10.8452 13.919C11.3329 14.2079 11.7282 14.6127 12.0312 15.1335C12.3343 15.6496 12.4858 16.2652 12.4858 16.9801C12.4858 17.7519 12.294 18.4408 11.9105 19.0469C11.5317 19.6482 10.9706 20.1241 10.2273 20.4744C9.4839 20.8248 8.56771 21 7.47869 21H1.2642ZM4.33949 18.4858H6.84659C7.7036 18.4858 8.3286 18.3224 8.72159 17.9957C9.11458 17.6643 9.31108 17.224 9.31108 16.6747C9.31108 16.2723 9.21402 15.9171 9.01989 15.6094C8.82576 15.3016 8.54877 15.0601 8.18892 14.8849C7.83381 14.7098 7.41004 14.6222 6.91761 14.6222H4.33949V18.4858ZM4.33949 12.5412H6.61932C7.04072 12.5412 7.41477 12.4678 7.74148 12.321C8.07292 12.1695 8.33333 11.9564 8.52273 11.6818C8.71686 11.4072 8.81392 11.0781 8.81392 10.6946C8.81392 10.169 8.62689 9.74527 8.25284 9.4233C7.88352 9.10133 7.35795 8.94034 6.67614 8.94034H4.33949V12.5412ZM14.43 21V10.0909H17.3633V11.9943H17.4769C17.6758 11.3172 18.0096 10.8059 18.4783 10.4602C18.9471 10.1098 19.4869 9.93466 20.0977 9.93466C20.2492 9.93466 20.4125 9.94413 20.5877 9.96307C20.7629 9.98201 20.9168 10.008 21.0494 10.0412V12.7259C20.9073 12.6832 20.7108 12.6454 20.4599 12.6122C20.2089 12.5791 19.9793 12.5625 19.771 12.5625C19.3259 12.5625 18.9281 12.6596 18.5778 12.8537C18.2321 13.0431 17.9575 13.3082 17.7539 13.6491C17.555 13.9901 17.4556 14.383 17.4556 14.8281V21H14.43ZM22.6136 21V10.0909H25.6392V21H22.6136ZM24.1335 8.68466C23.6837 8.68466 23.2978 8.53551 22.9759 8.23722C22.6586 7.93419 22.5 7.57197 22.5 7.15057C22.5 6.7339 22.6586 6.37642 22.9759 6.07812C23.2978 5.77509 23.6837 5.62358 24.1335 5.62358C24.5833 5.62358 24.9669 5.77509 25.2841 6.07812C25.6061 6.37642 25.767 6.7339 25.767 7.15057C25.767 7.57197 25.6061 7.93419 25.2841 8.23722C24.9669 8.53551 24.5833 8.68466 24.1335 8.68466ZM32.0827 21.1776C31.2541 21.1776 30.5037 20.9645 29.8313 20.5384C29.1637 20.1075 28.6334 19.4754 28.2404 18.642C27.8522 17.804 27.658 16.7765 27.658 15.5597C27.658 14.3097 27.8593 13.2704 28.2617 12.4418C28.6642 11.6084 29.1992 10.9858 29.8668 10.5739C30.5392 10.1572 31.2754 9.94886 32.0756 9.94886C32.6864 9.94886 33.1954 10.053 33.6026 10.2614C34.0146 10.465 34.346 10.7206 34.5969 11.0284C34.8526 11.3314 35.0468 11.6297 35.1793 11.9233H35.2717V6.45455H38.2901V21H35.3072V19.2528H35.1793C35.0373 19.5559 34.8361 19.8565 34.5756 20.1548C34.32 20.4484 33.9862 20.6922 33.5742 20.8864C33.167 21.0805 32.6699 21.1776 32.0827 21.1776ZM33.0415 18.7699C33.5292 18.7699 33.9412 18.6373 34.2773 18.3722C34.6183 18.1023 34.8787 17.7259 35.0586 17.2429C35.2433 16.7599 35.3356 16.1941 35.3356 15.5455C35.3356 14.8968 35.2456 14.3333 35.0657 13.8551C34.8858 13.3769 34.6254 13.0076 34.2844 12.7472C33.9435 12.4867 33.5292 12.3565 33.0415 12.3565C32.5444 12.3565 32.1254 12.4915 31.7844 12.7614C31.4435 13.0312 31.1855 13.4053 31.0103 13.8835C30.8351 14.3617 30.7475 14.9157 30.7475 15.5455C30.7475 16.1799 30.8351 16.741 31.0103 17.2287C31.1902 17.7116 31.4483 18.0904 31.7844 18.3651C32.1254 18.6349 32.5444 18.7699 33.0415 18.7699ZM45.6925 25.3182C44.7124 25.3182 43.8719 25.1832 43.1712 24.9134C42.4751 24.6482 41.9212 24.286 41.5092 23.8267C41.0973 23.3674 40.8298 22.8513 40.7067 22.2784L43.505 21.902C43.5902 22.1198 43.7251 22.3234 43.9098 22.5128C44.0945 22.7022 44.3383 22.8537 44.6413 22.9673C44.9491 23.0857 45.3232 23.1449 45.7635 23.1449C46.4216 23.1449 46.9638 22.9839 47.3899 22.6619C47.8208 22.3447 48.0362 21.812 48.0362 21.0639V19.0682H47.9084C47.7758 19.3712 47.5769 19.6577 47.3118 19.9276C47.0466 20.1974 46.7057 20.4176 46.2891 20.5881C45.8724 20.7585 45.3752 20.8438 44.7976 20.8438C43.9785 20.8438 43.2327 20.6544 42.5604 20.2756C41.8928 19.892 41.3601 19.3073 40.9624 18.5213C40.5694 17.7306 40.3729 16.7315 40.3729 15.5241C40.3729 14.2884 40.5741 13.2562 40.9766 12.4276C41.379 11.599 41.9141 10.9787 42.5817 10.5668C43.254 10.1548 43.9903 9.94886 44.7905 9.94886C45.4013 9.94886 45.9126 10.053 46.3246 10.2614C46.7365 10.465 47.0679 10.7206 47.3189 11.0284C47.5746 11.3314 47.7711 11.6297 47.9084 11.9233H48.022V10.0909H51.0263V21.1065C51.0263 22.0346 50.799 22.8111 50.3445 23.4361C49.8899 24.0611 49.2602 24.5298 48.4553 24.8423C47.6551 25.1596 46.7341 25.3182 45.6925 25.3182ZM45.7564 18.571C46.2441 18.571 46.656 18.4503 46.9922 18.2088C47.3331 17.9626 47.5935 17.6122 47.7734 17.1577C47.9581 16.6984 48.0504 16.1491 48.0504 15.5099C48.0504 14.8707 47.9605 14.3168 47.7805 13.848C47.6006 13.3745 47.3402 13.0076 46.9993 12.7472C46.6584 12.4867 46.2441 12.3565 45.7564 12.3565C45.2592 12.3565 44.8402 12.4915 44.4993 12.7614C44.1584 13.0265 43.9003 13.3958 43.7251 13.8693C43.55 14.3428 43.4624 14.8897 43.4624 15.5099C43.4624 16.1397 43.55 16.6842 43.7251 17.1435C43.9051 17.598 44.1631 17.9508 44.4993 18.2017C44.8402 18.4479 45.2592 18.571 45.7564 18.571ZM58.4055 21.2131C57.2834 21.2131 56.3175 20.9858 55.5078 20.5312C54.7029 20.072 54.0826 19.4233 53.647 18.5852C53.2114 17.7424 52.9936 16.7457 52.9936 15.5952C52.9936 14.473 53.2114 13.4882 53.647 12.6406C54.0826 11.7931 54.6958 11.1326 55.4865 10.6591C56.282 10.1856 57.2147 9.94886 58.2848 9.94886C59.0045 9.94886 59.6745 10.0649 60.2947 10.2969C60.9197 10.5241 61.4643 10.8674 61.9283 11.3267C62.397 11.786 62.7616 12.3636 63.022 13.0597C63.2824 13.7509 63.4126 14.5606 63.4126 15.4886V16.3196H54.201V14.4446H60.5646C60.5646 14.009 60.4699 13.6231 60.2805 13.2869C60.0911 12.9508 59.8284 12.688 59.4922 12.4986C59.1607 12.3045 58.7749 12.2074 58.3345 12.2074C57.8752 12.2074 57.468 12.3139 57.1129 12.527C56.7625 12.7353 56.4879 13.017 56.2891 13.3722C56.0902 13.7225 55.9884 14.1132 55.9837 14.544V16.3267C55.9837 16.8665 56.0831 17.3329 56.282 17.7259C56.4856 18.1188 56.772 18.4219 57.1413 18.6349C57.5107 18.848 57.9486 18.9545 58.4553 18.9545C58.7914 18.9545 59.0992 18.9072 59.3786 18.8125C59.6579 18.7178 59.897 18.5758 60.0959 18.3864C60.2947 18.197 60.4463 17.965 60.5504 17.6903L63.3487 17.875C63.2067 18.5473 62.9155 19.1345 62.4751 19.6364C62.0395 20.1335 61.4761 20.5218 60.7848 20.8011C60.0982 21.0758 59.3052 21.2131 58.4055 21.2131Z" fill="#003066"/>
<path d="M73.1357 6.45455L75.7919 11.0497H75.9055L78.5902 6.45455H82.5249L78.1357 13.7273L82.6669 21H78.6328L75.9055 16.3551H75.7919L73.0646 21H69.0589L73.5689 13.7273L69.1726 6.45455H73.1357Z" fill="#5B2587"/>
</svg>
