<svg width="38" height="37" viewBox="0 0 38 37" fill="none" xmlns="http://www.w3.org/2000/svg">
<g filter="url(#filter0_d_726_252)">
<path d="M19 0C10.7125 0 4 6.65722 4 14.8682C4 21.4386 8.2975 27.0105 14.2562 28.9743C15.0062 29.1143 15.2812 28.6546 15.2812 28.2594C15.2812 27.9063 15.2688 26.9708 15.2625 25.7318C11.09 26.6289 10.21 23.737 10.21 23.737C9.5275 22.021 8.54125 21.5625 8.54125 21.5625C7.1825 20.6407 8.64625 20.6593 8.64625 20.6593C10.1525 20.7634 10.9437 22.1907 10.9437 22.1907C12.2812 24.4643 14.455 23.8076 15.3125 23.4273C15.4475 22.4658 15.8338 21.8103 16.2625 21.4386C12.9313 21.0669 9.43 19.7883 9.43 14.0913C9.43 12.4682 10.0113 11.1424 10.9738 10.1017C10.805 9.72625 10.2987 8.21465 11.105 6.16657C11.105 6.16657 12.3612 5.7676 15.23 7.69055C16.43 7.35974 17.705 7.19619 18.98 7.18875C20.255 7.19619 21.53 7.35974 22.73 7.69055C25.58 5.7676 26.8362 6.16657 26.8362 6.16657C27.6425 8.21465 27.1362 9.72625 26.9862 10.1017C27.9425 11.1424 28.5238 12.4682 28.5238 14.0913C28.5238 19.8031 25.0175 21.0607 21.68 21.4262C22.2175 21.8872 22.7087 22.7916 22.7087 24.1793C22.7087 26.1692 22.69 27.7675 22.69 28.2507C22.69 28.641 22.9525 29.1056 23.7213 28.957C29.7062 27.0043 34 21.4287 34 14.8682C34 6.65722 27.2838 0 19 0Z" fill="#1A1C20"/>
</g>
<defs>
<filter id="filter0_d_726_252" x="0" y="0" width="38" height="37" filterUnits="userSpaceOnUse" color-interpolation-filters="sRGB">
<feFlood flood-opacity="0" result="BackgroundImageFix"/>
<feColorMatrix in="SourceAlpha" type="matrix" values="0 0 0 0 0 0 0 0 0 0 0 0 0 0 0 0 0 0 127 0" result="hardAlpha"/>
<feOffset dy="4"/>
<feGaussianBlur stdDeviation="2"/>
<feComposite in2="hardAlpha" operator="out"/>
<feColorMatrix type="matrix" values="0 0 0 0 0 0 0 0 0 0 0 0 0 0 0 0 0 0 0.25 0"/>
<feBlend mode="normal" in2="BackgroundImageFix" result="effect1_dropShadow_726_252"/>
<feBlend mode="normal" in="SourceGraphic" in2="effect1_dropShadow_726_252" result="shape"/>
</filter>
</defs>
</svg>
