<?xml version="1.0" encoding="UTF-8"?>
<svg version="1.1" xmlns="http://www.w3.org/2000/svg" width="394" height="410">
<path d="M0 0 C130.02 0 260.04 0 394 0 C394 135.3 394 270.6 394 410 C263.98 410 133.96 410 0 410 C0 274.7 0 139.4 0 0 Z " fill="#FEFEFE" transform="translate(0,0)"/>
<path d="M0 0 C5 2 5 2 7 5 C7.265625 8.36328125 7.265625 8.36328125 7.25 12.3125 C7.25515625 13.60800781 7.2603125 14.90351562 7.265625 16.23828125 C7.01067704 19.84879431 6.31094654 22.64460112 5 26 C5.66 26 6.32 26 7 26 C7.22139648 26.69561035 7.44279297 27.3912207 7.67089844 28.10791016 C8.68762263 31.28345402 9.71865891 34.45417472 10.75 37.625 C11.09804688 38.71941406 11.44609375 39.81382813 11.8046875 40.94140625 C15.36157716 51.8096802 18.7488024 56.67451713 29 62 C35.69901513 65.62850217 35.69901513 65.62850217 43 67 C42.62095792 63.70924004 42.62095792 63.70924004 41 61 C40.89977613 58.93951522 40.87033804 56.87541556 40.875 54.8125 C40.87242187 53.68457031 40.86984375 52.55664062 40.8671875 51.39453125 C41 48 41 48 41.59765625 44.765625 C42.13873809 41.046344 40.73417241 39.26024413 39 36 C38.6875 33.25 38.6875 33.25 39 31 C41 29 41 29 43.05859375 28.875 C44.64193426 28.95819687 46.22526763 29.04152976 47.80859375 29.125 C50.29556263 29.16870316 50.29556263 29.16870316 53 27 C56.84927445 27.29609803 59.08761258 28.51907739 62 31 C62.33 30.34 62.66 29.68 63 29 C64.98 31.475 64.98 31.475 67 34 C67.639375 33.814375 68.27875 33.62875 68.9375 33.4375 C69.618125 33.293125 70.29875 33.14875 71 33 C73.49249014 35.49249014 72.84487811 41.22065949 73.046875 44.546875 C72.98601302 49.03037424 72.17048772 50.82951228 69 54 C61.71252567 61 61.71252567 61 59 61 C58.67 65.29 58.34 69.58 58 74 C58.94101562 74.4125 59.88203125 74.825 60.8515625 75.25 C68.37208173 78.67565597 73.99255959 81.48171842 78 89 C78.30599121 89.55864746 78.61198242 90.11729492 78.92724609 90.69287109 C83.890232 99.82922307 87.78021135 109.11953268 91 119 C91.33 119.99 91.66 120.98 92 122 C93.24788656 132.62121625 93.24788656 132.62121625 91 136.90625 C89.11817228 138.67046349 87.27904131 139.76993272 85 141 C84.39365723 141.32871094 83.78731445 141.65742188 83.16259766 141.99609375 C70.54082089 148.75657842 70.54082089 148.75657842 65 150 C64.87775261 159.05989002 64.97164334 167.99301409 66 177 C66.09732422 177.86496094 66.19464844 178.72992188 66.29492188 179.62109375 C68.26243382 196.18376491 72.59762061 210.65288654 79 226 C79.79007053 227.92346549 80.57698119 229.84820703 81.36386108 231.77297974 C84.14762498 238.57968199 86.96731313 245.37056484 89.81420898 252.15112305 C90.20552002 253.09125244 90.59683105 254.03138184 91 255 C91.38293213 255.89589844 91.76586426 256.79179687 92.16040039 257.71484375 C93 260 93 260 92.9375 262.55078125 C93.01759501 265.68950429 94.01130444 266.80751017 96 269.1875 C99 272.81944444 99 272.81944444 99 275 C97.56298828 276.31274414 97.56298828 276.31274414 95.5703125 277.78515625 C94.85746094 278.31560547 94.14460938 278.84605469 93.41015625 279.39257812 C92.27900391 280.21918945 92.27900391 280.21918945 91.125 281.0625 C90.37863281 281.61744141 89.63226563 282.17238281 88.86328125 282.74414062 C83.33740602 286.83129699 83.33740602 286.83129699 81 288 C86.94 288.33 92.88 288.66 99 289 C99 289.66 99 290.32 99 291 C-13.53 291 -126.06 291 -242 291 C-242 290.34 -242 289.68 -242 289 C-240.35 288.67 -238.7 288.34 -237 288 C-238.07121094 287.25234375 -239.14242187 286.5046875 -240.24609375 285.734375 C-241.64363381 284.74015187 -243.04074721 283.74532883 -244.4375 282.75 C-245.14455078 282.25886719 -245.85160156 281.76773437 -246.58007812 281.26171875 C-247.25361328 280.77832031 -247.92714844 280.29492188 -248.62109375 279.796875 C-249.55586548 279.13703613 -249.55586548 279.13703613 -250.50952148 278.46386719 C-252.31477603 276.69084405 -252.70741216 275.49235655 -253 273 C-251.89541555 271.1416991 -250.56264666 269.68766504 -249.12890625 268.07421875 C-247.4900344 265.06300437 -247.93831037 262.39292948 -248 259 C-245.19086652 244.7695212 -238.87072459 230.93282274 -233.36328125 217.5859375 C-228.90486972 206.75153552 -224.8296329 196.60384601 -223 185 C-222.75615964 183.64890932 -222.51079678 182.2980928 -222.26416016 180.94750977 C-219.72661124 166.39925365 -219.4515426 151.98851516 -219.3125 137.25 C-219.27923503 134.78774335 -219.24473736 132.32550303 -219.20898438 129.86328125 C-219.12515286 123.90896703 -219.05637942 117.95463425 -219 112 C-219.16081055 112.79994385 -219.32162109 113.5998877 -219.48730469 114.42407227 C-227.59345415 154.59345415 -227.59345415 154.59345415 -230 157 C-237.39449541 156.40366972 -237.39449541 156.40366972 -241 154 C-241.31857607 151.34207612 -241.42395029 148.97175272 -241.375 146.3125 C-241.36629883 145.52230469 -241.35759766 144.73210937 -241.34863281 143.91796875 C-240.83752306 122.26702455 -238.62425571 91.58328931 -223 75 C-219.90803913 72.25306481 -217.20156881 71.33924845 -213.1875 70.4375 C-211.60775391 70.07011719 -211.60775391 70.07011719 -209.99609375 69.6953125 C-209.00738281 69.46585937 -208.01867187 69.23640625 -207 69 C-204.65530468 68.36587539 -202.32949657 67.68826035 -200 67 C-200.40111157 59.16848514 -200.40111157 59.16848514 -202.5625 51.6875 C-203.95741087 48.10925038 -204.283924 45.78565329 -204 42 C-204.99 42 -205.98 42 -207 42 C-206.36407463 38.7806278 -205.60673276 35.87631505 -204 33 C-201.26972759 31.55948818 -199.1316186 31.39766585 -196 31 C-195.34 30.67 -194.68 30.34 -194 30 C-187.85586484 29.4779493 -182.15863462 29.1989008 -177 33 C-176.125 35.1875 -176.125 35.1875 -176 37 C-177.98 37.99 -177.98 37.99 -180 39 C-179.94779297 40.87945312 -179.94779297 40.87945312 -179.89453125 42.796875 C-179.86638872 44.44790324 -179.83908906 46.09894601 -179.8125 47.75 C-179.78736328 48.575 -179.76222656 49.4 -179.73632812 50.25 C-179.66227036 56.37210828 -179.66227036 56.37210828 -181.38671875 59.578125 C-183 61 -183 61 -185 61 C-185 62.98 -185 64.96 -185 67 C-174.94209913 66.97616611 -167.13423925 66.48700369 -158.22265625 61.27734375 C-156 60 -156 60 -154 60 C-152.35 48.78 -150.7 37.56 -149 26 C-141 27 -141 27 -138.48828125 28.0859375 C-136.16272435 31.0768112 -136.79482673 34.05777418 -137.1875 37.625 C-137.24993896 38.33978516 -137.31237793 39.05457031 -137.37670898 39.79101562 C-137.56295912 41.8634888 -137.77704602 43.93119447 -138 46 C-138.10054688 47.00804687 -138.20109375 48.01609375 -138.3046875 49.0546875 C-138.51389272 51.03896735 -138.75251625 53.02013002 -139 55 C-138.03320312 55.19335938 -137.06640625 55.38671875 -136.0703125 55.5859375 C-135.44398926 55.71129883 -134.81766602 55.83666016 -134.17236328 55.96582031 C-132.803698 56.23935752 -131.43488167 56.51213995 -130.06591797 56.78417969 C-126.977297 57.39883789 -123.89252747 58.02291694 -120.8125 58.6796875 C-119.4821875 58.96199219 -119.4821875 58.96199219 -118.125 59.25 C-117.34382812 59.42015625 -116.56265625 59.5903125 -115.7578125 59.765625 C-115.17773438 59.84296875 -114.59765625 59.9203125 -114 60 C-113.67 59.67 -113.34 59.34 -113 59 C-110.85441173 58.91224395 -108.70595579 58.89304781 -106.55859375 58.90234375 C-105.25341797 58.90556641 -103.94824219 58.90878906 -102.60351562 58.91210938 C-101.2148431 58.92046599 -99.82617123 58.92893095 -98.4375 58.9375 C-97.04492344 58.94251334 -95.65234519 58.94707653 -94.25976562 58.95117188 C-90.8398013 58.96300566 -87.41992156 58.9794912 -84 59 C-85.47227117 53.88210497 -86.90920624 48.88968947 -89.1875 44.0625 C-91.75877559 37.79254336 -92.27504326 31.40011535 -89.875 25 C-86.62885898 21.53744958 -83.19302419 20.14829304 -78.51171875 19.56640625 C-49.38002317 19.53664967 -25.02354286 33.88023093 -1 49 C-1.26554688 47.94941406 -1.53109375 46.89882812 -1.8046875 45.81640625 C-6.07186944 28.88689151 -6.07186944 28.88689151 -7 24 C-7.14695312 23.23171875 -7.29390625 22.4634375 -7.4453125 21.671875 C-8.24913543 16.50688514 -7.92701893 13.56614954 -5 9 C-4.01 10.485 -4.01 10.485 -3 12 C-2.01 8.04 -1.02 4.08 0 0 Z " fill="#E8EFFE" transform="translate(280,88)"/>
<path d="M0 0 C5 2 5 2 7 5 C7.265625 8.36328125 7.265625 8.36328125 7.25 12.3125 C7.25515625 13.60800781 7.2603125 14.90351562 7.265625 16.23828125 C7.01067704 19.84879431 6.31094654 22.64460112 5 26 C5.66 26 6.32 26 7 26 C7.22139648 26.69561035 7.44279297 27.3912207 7.67089844 28.10791016 C8.68762263 31.28345402 9.71865891 34.45417472 10.75 37.625 C11.09804688 38.71941406 11.44609375 39.81382813 11.8046875 40.94140625 C15.36157716 51.8096802 18.7488024 56.67451713 29 62 C35.69901513 65.62850217 35.69901513 65.62850217 43 67 C42.62095792 63.70924004 42.62095792 63.70924004 41 61 C40.89977613 58.93951522 40.87033804 56.87541556 40.875 54.8125 C40.87242187 53.68457031 40.86984375 52.55664062 40.8671875 51.39453125 C41 48 41 48 41.59765625 44.765625 C42.13873809 41.046344 40.73417241 39.26024413 39 36 C38.6875 33.25 38.6875 33.25 39 31 C41 29 41 29 43.05859375 28.875 C44.64193426 28.95819687 46.22526763 29.04152976 47.80859375 29.125 C50.29556263 29.16870316 50.29556263 29.16870316 53 27 C56.84927445 27.29609803 59.08761258 28.51907739 62 31 C62.33 30.34 62.66 29.68 63 29 C64.98 31.475 64.98 31.475 67 34 C67.639375 33.814375 68.27875 33.62875 68.9375 33.4375 C69.618125 33.293125 70.29875 33.14875 71 33 C73.49249014 35.49249014 72.84487811 41.22065949 73.046875 44.546875 C72.98601302 49.03037424 72.17048772 50.82951228 69 54 C61.71252567 61 61.71252567 61 59 61 C58.67 65.29 58.34 69.58 58 74 C58.94101562 74.4125 59.88203125 74.825 60.8515625 75.25 C68.37208173 78.67565597 73.99255959 81.48171842 78 89 C78.30599121 89.55864746 78.61198242 90.11729492 78.92724609 90.69287109 C83.890232 99.82922307 87.78021135 109.11953268 91 119 C91.33 119.99 91.66 120.98 92 122 C93.24788656 132.62121625 93.24788656 132.62121625 91 136.90625 C89.11817228 138.67046349 87.27904131 139.76993272 85 141 C84.39365723 141.32871094 83.78731445 141.65742188 83.16259766 141.99609375 C70.54082089 148.75657842 70.54082089 148.75657842 65 150 C64.87775261 159.05989002 64.97164334 167.99301409 66 177 C66.09732422 177.86496094 66.19464844 178.72992188 66.29492188 179.62109375 C68.26243382 196.18376491 72.59762061 210.65288654 79 226 C79.79007053 227.92346549 80.57698119 229.84820703 81.36386108 231.77297974 C84.14762498 238.57968199 86.96731313 245.37056484 89.81420898 252.15112305 C90.20552002 253.09125244 90.59683105 254.03138184 91 255 C91.38293213 255.89589844 91.76586426 256.79179687 92.16040039 257.71484375 C93 260 93 260 92.9375 262.55078125 C93.01759501 265.68950429 94.01130444 266.80751017 96 269.1875 C99 272.81944444 99 272.81944444 99 275 C97.56298828 276.31274414 97.56298828 276.31274414 95.5703125 277.78515625 C94.85746094 278.31560547 94.14460938 278.84605469 93.41015625 279.39257812 C92.27900391 280.21918945 92.27900391 280.21918945 91.125 281.0625 C90.37863281 281.61744141 89.63226563 282.17238281 88.86328125 282.74414062 C83.33740602 286.83129699 83.33740602 286.83129699 81 288 C86.94 288.33 92.88 288.66 99 289 C99 289.66 99 290.32 99 291 C-13.53 291 -126.06 291 -242 291 C-242 290.34 -242 289.68 -242 289 C-240.35 288.67 -238.7 288.34 -237 288 C-238.07121094 287.25234375 -239.14242187 286.5046875 -240.24609375 285.734375 C-241.64363381 284.74015187 -243.04074721 283.74532883 -244.4375 282.75 C-245.14455078 282.25886719 -245.85160156 281.76773437 -246.58007812 281.26171875 C-247.25361328 280.77832031 -247.92714844 280.29492188 -248.62109375 279.796875 C-249.55586548 279.13703613 -249.55586548 279.13703613 -250.50952148 278.46386719 C-252.31518614 276.69044126 -252.70759403 275.49301299 -253 273 C-251.63510623 270.66629928 -249.8580962 268.99405446 -248 267 C-247.154375 267.309375 -246.30875 267.61875 -245.4375 267.9375 C-241.9502146 269.01538821 -238.61822465 269.56581304 -235 270 C-234.79375 271.051875 -234.5875 272.10375 -234.375 273.1875 C-232.88290559 278.32693629 -229.32429297 280.72080279 -224.828125 283.1953125 C-222.90526519 284.17037971 -220.95455095 285.09012283 -219 286 C-219 286.99 -219 287.98 -219 289 C-213.39 289 -207.78 289 -202 289 C-201.67 286.36 -201.34 283.72 -201 281 C-200.67 280.01 -200.34 279.02 -200 278 C-199.20335937 278.09539062 -198.40671875 278.19078125 -197.5859375 278.2890625 C-196.52632812 278.39992188 -195.46671875 278.51078125 -194.375 278.625 C-193.33085937 278.74101562 -192.28671875 278.85703125 -191.2109375 278.9765625 C-187.98486276 279.22314438 -187.98486276 279.22314438 -185.24609375 277.76171875 C-180.0647986 276.54589137 -176.3421443 278.94859941 -171.6875 281.1875 C-170.76904297 281.60064453 -169.85058594 282.01378906 -168.90429688 282.43945312 C-163.93321624 284.75047287 -163.93321624 284.75047287 -162 286 C-161.505 287.485 -161.505 287.485 -161 289 C-106.88 289 -52.76 289 3 289 C3 288.34 3 287.68 3 287 C8.13756526 284.27394497 13.39273723 281.88198596 18.75 279.625 C19.7246521 279.19453369 19.7246521 279.19453369 20.71899414 278.75537109 C22.609375 277.9765625 22.609375 277.9765625 26 277 C28.0625 277.859375 28.0625 277.859375 30 279 C33.05816998 279.02666098 33.05816998 279.02666098 36.25 278.625 C37.32765625 278.51414062 38.4053125 278.40328125 39.515625 278.2890625 C40.33546875 278.19367188 41.1553125 278.09828125 42 278 C43.97103025 282.18843928 44 283.99852013 44 289 C49.94 289 55.88 289 62 289 C62.33 288.01 62.66 287.02 63 286 C65.36328125 284.53515625 65.36328125 284.53515625 68.3125 283.0625 C72.18310447 281.12461392 75.21751577 279.36082968 78 276 C78.80765878 272.35278304 78.80765878 272.35278304 79 269 C78.10595459 268.89945312 78.10595459 268.89945312 77.19384766 268.796875 C74.11080996 267.67701799 73.49252989 266.08303226 71.8984375 263.25 C71.3307666 262.25742187 70.7630957 261.26484375 70.17822266 260.2421875 C69.58315918 259.17226563 68.9880957 258.10234375 68.375 257 C67.12026172 254.79139956 65.865051 252.58306745 64.609375 250.375 C63.99513672 249.28574219 63.38089844 248.19648438 62.74804688 247.07421875 C60.82996357 243.70096387 58.85101266 240.36937079 56.85205078 237.04370117 C51.76965602 228.57877349 47.29975805 219.88405892 43 211 C42.33492856 209.66587024 41.66862396 208.33235289 41 207 C41.06058594 207.75055664 41.12117188 208.50111328 41.18359375 209.27441406 C42.87617846 230.88090891 43.24448285 252.33317748 43 274 C38.93337497 275.73611281 35.82098094 276.29716903 31.375 276.3125 C30.24835938 276.32925781 29.12171875 276.34601563 27.9609375 276.36328125 C24.60152875 275.95111105 24.04604967 275.56213476 22 273 C21.26391602 271.02416992 21.26391602 271.02416992 20.75390625 268.73046875 C20.55845215 267.85769287 20.36299805 266.98491699 20.16162109 266.08569336 C19.96391113 265.12928955 19.76620117 264.17288574 19.5625 263.1875 C19.34932129 262.17631104 19.13614258 261.16512207 18.91650391 260.12329102 C13.09780954 231.39647071 9.91768752 201.40031322 9.08056641 172.10107422 C9.00652198 170.17008523 8.85648476 168.24240429 8.69921875 166.31640625 C7.89386597 151.64635265 12.50398822 137.1338762 16 123 C16.39362301 121.38160616 16.78693008 119.76313538 17.1796875 118.14453125 C18.30446329 113.58500626 19.45916795 109.0347665 20.66552734 104.49609375 C21.38960763 101.77037515 22.10104557 99.04153735 22.8125 96.3125 C23.04404785 95.46147705 23.2755957 94.6104541 23.51416016 93.73364258 C25.14603408 87.84957694 25.14603408 87.84957694 24 82 C22.19247522 80.14186152 22.19247522 80.14186152 19.875 78.625 C4.55010284 67.33169226 -1.64107446 52.26299371 -4.6875 33.875 C-4.84835083 32.80946899 -4.84835083 32.80946899 -5.01245117 31.72241211 C-5.46556818 28.75355539 -5.96402651 26.08890591 -7.09375 23.296875 C-8.11479423 20.70905601 -8.13773469 19.11828394 -7.8125 16.375 C-7.69841797 15.24191406 -7.69841797 15.24191406 -7.58203125 14.0859375 C-6.89856493 11.6364676 -5.91774399 10.62310407 -4 9 C-3.67 9.99 -3.34 10.98 -3 12 C-2.01 8.04 -1.02 4.08 0 0 Z " fill="#F8D425" transform="translate(280,88)"/>
<path d="M0 0 C4.29308831 3.69570102 6.70958964 8.34619055 9.5 13.1875 C26.46880193 43.64680866 26.46880193 43.64680866 53 64 C56.1292764 64.75137168 56.1292764 64.75137168 59 64 C66.9054642 57.97678918 69.13949814 47.82828131 71.875 38.75 C79.14546084 15.41441185 79.14546084 15.41441185 87 10 C92.29532258 9.08350186 95.96564655 10.37502371 100.42578125 13.0859375 C111.08129493 21.00885359 118.92935683 31.53115107 126.66259766 42.17529297 C137.84726449 57.43527835 152.81048275 75.13170721 172 80 C175.12126643 80.29700806 178.18228326 80.24429575 181.3125 80.125 C189.68465273 79.89488424 189.68465273 79.89488424 193 81 C195.12327356 81.09523918 197.24959711 81.12986362 199.375 81.125 C200.49648438 81.12757813 201.61796875 81.13015625 202.7734375 81.1328125 C205.65144389 81.01434735 208.19455303 80.60018804 211 80 C210.5898634 60.46682769 209.97266042 41.0220198 208.40234375 21.54296875 C208.07007348 17.34147086 207.90985293 13.21287287 208 9 C209.24466041 11.41574483 210.38048572 13.85284727 211.48828125 16.3359375 C216.60753342 27.75403938 222.77829 38.38042677 229.25048828 49.07714844 C231.07189436 52.12011154 232.85096754 55.1847628 234.62109375 58.2578125 C235.20802002 59.27141846 235.79494629 60.28502441 236.3996582 61.3293457 C237.53083065 63.28516799 238.65589731 65.24453718 239.77416992 67.20776367 C240.28439697 68.08408447 240.79462402 68.96040527 241.3203125 69.86328125 C241.98957764 71.02790894 241.98957764 71.02790894 242.67236328 72.21606445 C243.96305588 74.30560589 243.96305588 74.30560589 247 75 C247.5 78.0625 247.5 78.0625 247 82 C242.75700408 87.32584384 237.02821105 90.14453161 231 93 C230.67 93.66 230.34 94.32 230 95 C224.06 95 218.12 95 212 95 C211.34 91.7 210.68 88.4 210 85 C209.19175781 85.09539062 208.38351562 85.19078125 207.55078125 85.2890625 C206.48214844 85.39992188 205.41351563 85.51078125 204.3125 85.625 C203.25675781 85.74101562 202.20101562 85.85703125 201.11328125 85.9765625 C198 86 198 86 195.70703125 84.78515625 C191.15397846 83.46457384 187.52744552 85.89042105 183.375 87.8125 C181.67468468 88.56947221 179.97417212 89.32600157 178.2734375 90.08203125 C177.52497559 90.42468018 176.77651367 90.7673291 176.00537109 91.12036133 C174 92 174 92 171 93 C171 93.66 171 94.32 171 95 C149.66889164 95.07002057 128.33780218 95.12295404 107.00660229 95.15543652 C97.1025884 95.17091826 87.19864584 95.1920327 77.29467773 95.22631836 C68.6643414 95.25618075 60.0340567 95.27556549 51.40367013 95.28226548 C46.83215558 95.28618312 42.2607888 95.29541711 37.68932152 95.31719017 C33.38921239 95.33750547 29.08931234 95.3438439 24.78915977 95.33932304 C23.20848963 95.34015047 21.62781273 95.34614564 20.04718399 95.35761642 C17.8934759 95.37248348 15.74056323 95.36897546 13.58683777 95.36076355 C11.77689724 95.36491162 11.77689724 95.36491162 9.93039227 95.36914349 C6.70688394 94.96307597 5.95326017 94.48317293 4 92 C2.01172609 90.94500213 2.01172609 90.94500213 -0.1953125 90.09765625 C-1.39220703 89.59782227 -1.39220703 89.59782227 -2.61328125 89.08789062 C-4.29310099 88.40211662 -5.9754302 87.72245896 -7.66015625 87.04882812 C-8.45550781 86.71431641 -9.25085938 86.37980469 -10.0703125 86.03515625 C-10.80008301 85.7400415 -11.52985352 85.44492676 -12.28173828 85.14086914 C-14 84 -14 84 -14.79907227 82.07421875 C-15.11642265 78.79814481 -13.8838005 75.98317152 -12.8125 72.9375 C-5.11529233 49.40611271 -3.04730305 24.46578388 0 0 Z " fill="#FEFEFE" transform="translate(112,282)"/>
<path d="M0 0 C0.9075 0.598125 1.815 1.19625 2.75 1.8125 C13.45608534 7.94891477 26.62619937 8.18054014 38.625 8.1875 C39.74390625 8.19974609 40.8628125 8.21199219 42.015625 8.22460938 C43.63597656 8.22750977 43.63597656 8.22750977 45.2890625 8.23046875 C46.26568848 8.23457764 47.24231445 8.23868652 48.24853516 8.24291992 C51.17245143 7.9847747 53.34525223 7.22091783 56 6 C56.02578125 6.64839844 56.0515625 7.29679688 56.078125 7.96484375 C57.30967598 29.26507777 61.80024427 48.34440417 70 68 C70.79007053 69.92346549 71.57698119 71.84820703 72.36386108 73.77297974 C75.14762498 80.57968199 77.96731313 87.37056484 80.81420898 94.15112305 C81.40117554 95.56131714 81.40117554 95.56131714 82 97 C82.38293213 97.89589844 82.76586426 98.79179687 83.16040039 99.71484375 C84 102 84 102 83.9375 104.55078125 C84.01759501 107.68950429 85.01130444 108.80751017 87 111.1875 C90 114.81944444 90 114.81944444 90 117 C88.56298828 118.31274414 88.56298828 118.31274414 86.5703125 119.78515625 C85.85746094 120.31560547 85.14460938 120.84605469 84.41015625 121.39257812 C83.27900391 122.21918945 83.27900391 122.21918945 82.125 123.0625 C81.37863281 123.61744141 80.63226563 124.17238281 79.86328125 124.74414062 C74.33740602 128.83129699 74.33740602 128.83129699 72 130 C77.94 130.33 83.88 130.66 90 131 C90 131.66 90 132.32 90 133 C-22.53 133 -135.06 133 -251 133 C-251 132.34 -251 131.68 -251 131 C-249.35 130.67 -247.7 130.34 -246 130 C-247.60681641 128.87851562 -247.60681641 128.87851562 -249.24609375 127.734375 C-250.64363381 126.74015187 -252.04074721 125.74532883 -253.4375 124.75 C-254.14455078 124.25886719 -254.85160156 123.76773438 -255.58007812 123.26171875 C-256.25361328 122.77832031 -256.92714844 122.29492188 -257.62109375 121.796875 C-258.2442749 121.35698242 -258.86745605 120.91708984 -259.50952148 120.46386719 C-261.31518614 118.69044126 -261.70759403 117.49301299 -262 115 C-260.63510623 112.66629928 -258.8580962 110.99405446 -257 109 C-255.7315625 109.4640625 -255.7315625 109.4640625 -254.4375 109.9375 C-250.9502146 111.01538821 -247.61822465 111.56581304 -244 112 C-243.79375 113.051875 -243.5875 114.10375 -243.375 115.1875 C-241.88290559 120.32693629 -238.32429297 122.72080279 -233.828125 125.1953125 C-231.90526519 126.17037971 -229.95455095 127.09012283 -228 128 C-228 128.99 -228 129.98 -228 131 C-222.39 131 -216.78 131 -211 131 C-210.505 127.04 -210.505 127.04 -210 123 C-209.505 121.515 -209.505 121.515 -209 120 C-208.20335937 120.09539062 -207.40671875 120.19078125 -206.5859375 120.2890625 C-205.52632812 120.39992188 -204.46671875 120.51078125 -203.375 120.625 C-202.33085937 120.74101562 -201.28671875 120.85703125 -200.2109375 120.9765625 C-196.98486276 121.22314438 -196.98486276 121.22314438 -194.24609375 119.76171875 C-189.0647986 118.54589137 -185.3421443 120.94859941 -180.6875 123.1875 C-179.76904297 123.60064453 -178.85058594 124.01378906 -177.90429688 124.43945312 C-172.93321624 126.75047287 -172.93321624 126.75047287 -171 128 C-170.67 128.99 -170.34 129.98 -170 131 C-115.88 131 -61.76 131 -6 131 C-6 130.34 -6 129.68 -6 129 C-0.86243474 126.27394497 4.39273723 123.88198596 9.75 121.625 C10.39976807 121.33802246 11.04953613 121.05104492 11.71899414 120.75537109 C13.609375 119.9765625 13.609375 119.9765625 17 119 C19.0625 119.859375 19.0625 119.859375 21 121 C24.05816998 121.02666098 24.05816998 121.02666098 27.25 120.625 C28.32765625 120.51414062 29.4053125 120.40328125 30.515625 120.2890625 C31.33546875 120.19367188 32.1553125 120.09828125 33 120 C34.97103025 124.18843928 35 125.99852013 35 131 C40.94 131 46.88 131 53 131 C53.33 130.01 53.66 129.02 54 128 C56.36328125 126.53515625 56.36328125 126.53515625 59.3125 125.0625 C63.18310447 123.12461392 66.21751577 121.36082968 69 118 C69.80765878 114.35278304 69.80765878 114.35278304 70 111 C69.40396973 110.93296875 68.80793945 110.8659375 68.19384766 110.796875 C65.11080996 109.67701799 64.49252989 108.08303226 62.8984375 105.25 C62.3307666 104.25742187 61.7630957 103.26484375 61.17822266 102.2421875 C60.58315918 101.17226563 59.9880957 100.10234375 59.375 99 C58.12026172 96.79139956 56.865051 94.58306745 55.609375 92.375 C54.99513672 91.28574219 54.38089844 90.19648438 53.74804688 89.07421875 C51.82996357 85.70096387 49.85101266 82.36937079 47.85205078 79.04370117 C42.76965602 70.57877349 38.29975805 61.88405892 34 53 C33.33492856 51.66587024 32.66862396 50.33235289 32 49 C32.06058594 49.75055664 32.12117188 50.50111328 32.18359375 51.27441406 C33.87617846 72.88090891 34.24448285 94.33317748 34 116 C29.93337497 117.73611281 26.82098094 118.29716903 22.375 118.3125 C21.24835938 118.32925781 20.12171875 118.34601563 18.9609375 118.36328125 C15.60152875 117.95111105 15.04604967 117.56213476 13 115 C12.26391602 113.02416992 12.26391602 113.02416992 11.75390625 110.73046875 C11.55845215 109.85769287 11.36299805 108.98491699 11.16162109 108.08569336 C10.96391113 107.12928955 10.76620117 106.17288574 10.5625 105.1875 C10.34932129 104.17631104 10.13614258 103.16512207 9.91650391 102.12329102 C3.20146143 68.97121141 -0.61956319 33.86945433 0 0 Z " fill="#14132C" transform="translate(289,246)"/>
<path d="M0 0 C9.8058587 1.22573234 9.8058587 1.22573234 12 4 C12.2421875 7.23046875 12.2421875 7.23046875 11.875 11.1875 C11.81441406 11.88931396 11.75382812 12.59112793 11.69140625 13.31420898 C11.48866381 15.546612 11.25051162 17.77247772 11 20 C10.87866699 21.09006348 10.87866699 21.09006348 10.75488281 22.20214844 C10.22906294 26.80982691 9.63435613 31.40587393 9 36 C8.85304688 37.258125 8.70609375 38.51625 8.5546875 39.8125 C7.49862733 45.88112744 2.44391293 48.46637111 -2.25 51.9375 C-3.20003906 52.64132813 -4.15007812 53.34515625 -5.12890625 54.0703125 C-8 56 -8 56 -10.71484375 57.1796875 C-13.58555679 58.49486409 -15.11314702 59.44933851 -17 62 C-17.90187203 67.30969694 -17.54801295 72.42240695 -17.19238281 77.77783203 C-16.84579534 83.58273229 -16.72647122 89.3968984 -16.56268311 95.20928955 C-16.50163858 97.25752077 -16.43161464 99.30521584 -16.35791016 101.35302734 C-16.22106724 105.23504483 -16.10672068 109.11704711 -16 113 C-15.93232422 114.97492432 -15.93232422 114.97492432 -15.86328125 116.98974609 C-15.83621094 118.24480957 -15.80914062 119.49987305 -15.78125 120.79296875 C-15.75095703 121.91598389 -15.72066406 123.03899902 -15.68945312 124.19604492 C-16 127 -16 127 -17.40551758 128.82006836 C-26.65972182 135.66826452 -41.19501236 135.28275511 -52.1875 135.3125 C-53.6566687 135.32047607 -53.6566687 135.32047607 -55.15551758 135.32861328 C-60.51605357 135.27580012 -63.69722092 134.76759303 -69 133 C-69.33 117.49 -69.66 101.98 -70 86 C-70.9075 90.475625 -71.815 94.95125 -72.75 99.5625 C-78.73812386 128.73812386 -78.73812386 128.73812386 -81 131 C-88.39449541 130.40366972 -88.39449541 130.40366972 -92 128 C-92.31857607 125.34207612 -92.42395029 122.97175272 -92.375 120.3125 C-92.36629883 119.52230469 -92.35759766 118.73210937 -92.34863281 117.91796875 C-91.83752306 96.26702455 -89.62425571 65.58328931 -74 49 C-70.90803913 46.25306481 -68.20156881 45.33924845 -64.1875 44.4375 C-63.13433594 44.19257813 -62.08117187 43.94765625 -60.99609375 43.6953125 C-60.00738281 43.46585938 -59.01867187 43.23640625 -58 43 C-55.65530468 42.36587539 -53.32949657 41.68826035 -51 41 C-51.40111157 33.16848514 -51.40111157 33.16848514 -53.5625 25.6875 C-54.95741087 22.10925038 -55.283924 19.78565329 -55 16 C-55.99 16 -56.98 16 -58 16 C-57.36407463 12.7806278 -56.60673276 9.87631505 -55 7 C-52.26972759 5.55948818 -50.1316186 5.39766585 -47 5 C-46.34 4.67 -45.68 4.34 -45 4 C-38.85586484 3.4779493 -33.15863462 3.1989008 -28 7 C-27.125 9.1875 -27.125 9.1875 -27 11 C-28.98 11.99 -28.98 11.99 -31 13 C-30.94779297 14.87945312 -30.94779297 14.87945312 -30.89453125 16.796875 C-30.86638872 18.44790324 -30.83908906 20.09894601 -30.8125 21.75 C-30.78736328 22.575 -30.76222656 23.4 -30.73632812 24.25 C-30.66227036 30.37210828 -30.66227036 30.37210828 -32.38671875 33.578125 C-34 35 -34 35 -36 35 C-36 36.98 -36 38.96 -36 41 C-25.94209913 40.97616611 -18.13423925 40.48700369 -9.22265625 35.27734375 C-7 34 -7 34 -5 34 C-3.35 22.78 -1.7 11.56 0 0 Z " fill="#6F29D7" transform="translate(131,114)"/>
<path d="M0 0 C0.33 0 0.66 0 1 0 C1 10.89 1 21.78 1 33 C17.78207775 35.79701296 39.17485163 36.24661316 54 27 C54.88680328 60.05805556 50.20264641 94.74435441 43 127 C42.8364502 127.7434668 42.67290039 128.48693359 42.50439453 129.25292969 C37.85200869 150.06838477 37.85200869 150.06838477 33.16015625 153.24609375 C30.64777408 154.12292876 29.0605582 154.05588212 26.4375 153.6875 C25.67308594 153.58824219 24.90867188 153.48898437 24.12109375 153.38671875 C22 153 22 153 19 152 C18.34 155.63 17.68 159.26 17 163 C11.39 163 5.78 163 0 163 C-0.33 162.01 -0.66 161.02 -1 160 C-3.15556511 158.71312084 -3.15556511 158.71312084 -5.75 157.625 C-9.95392795 155.60735549 -13.18665581 153.84490373 -16 150 C-16.3125 146.6875 -16.3125 146.6875 -16 144 C-17.03125 144.061875 -18.0625 144.12375 -19.125 144.1875 C-23.23468973 143.98864405 -25.48882496 143.05532197 -29 141 C-30.31729901 124.53376236 -20.50596514 106.47228164 -14.36328125 91.5859375 C-9.91561737 80.77765342 -5.73922627 70.60369282 -4 59 C-3.73832031 57.70835937 -3.47664063 56.41671875 -3.20703125 55.0859375 C0.24669886 37.00618365 -0.24842214 18.34206343 0 0 Z " fill="#E3E3E7" transform="translate(61,214)"/>
<path d="M0 0 C0.6489624 -0.00350464 1.2979248 -0.00700928 1.96655273 -0.01062012 C4.1165632 -0.01943846 6.26624582 -0.01358745 8.41625977 -0.00683594 C9.90837162 -0.00818273 11.40048304 -0.01012338 12.89259338 -0.01263428 C16.02235078 -0.01558581 19.15199413 -0.01128765 22.28173828 -0.00195312 C26.29466825 0.00943165 30.30733041 0.00288844 34.32025051 -0.00909805 C37.40259316 -0.01632434 40.48487231 -0.01402503 43.56721687 -0.00884247 C45.04680475 -0.00750758 46.52639838 -0.00914806 48.00597954 -0.01380157 C50.07445417 -0.01887842 52.14249517 -0.01114028 54.2109375 0 C55.97726784 0.00238678 55.97726784 0.00238678 57.77928162 0.00482178 C60.67016602 0.25878906 60.67016602 0.25878906 63.67016602 2.25878906 C64.03765869 4.87756348 64.03765869 4.87756348 64.02661133 8.23730469 C64.02961243 9.49200562 64.03261353 10.74670654 64.03570557 12.03942871 C64.02369945 13.4146363 64.01121644 14.7898398 63.99829102 16.16503906 C63.995234 17.56986286 63.99335744 18.97468968 63.99261475 20.3795166 C63.9880087 23.32523173 63.973572 26.27067394 63.95141602 29.21630859 C63.92313334 32.99611574 63.91220485 36.77570776 63.90773392 40.55561066 C63.90358082 43.45691082 63.89376428 46.3581673 63.88185883 49.25944519 C63.87615313 50.65333201 63.87139541 52.04722303 63.86759186 53.44111633 C63.86073198 55.38752754 63.84620262 57.3339072 63.83129883 59.28027344 C63.82447083 60.38898804 63.81764282 61.49770264 63.81060791 62.64001465 C63.67016602 65.25878906 63.67016602 65.25878906 62.67016602 67.25878906 C53.56057437 67.28191451 44.45099276 67.29970518 35.34137821 67.31060123 C31.11185231 67.31582962 26.88234642 67.32292646 22.65283203 67.33422852 C18.57448059 67.34505898 14.49614845 67.35106623 10.41778374 67.35366631 C8.85838962 67.35552027 7.29899661 67.35914034 5.73961067 67.36451912 C3.5628744 67.37173168 1.38621887 67.37277992 -0.79052734 67.37231445 C-2.65251015 67.37564537 -2.65251015 67.37564537 -4.55210876 67.37904358 C-7.32983398 67.25878906 -7.32983398 67.25878906 -8.32983398 66.25878906 C-8.43439219 64.27535706 -8.46839003 62.28817665 -8.47509766 60.30200195 C-8.48147751 59.02720474 -8.48785736 57.75240753 -8.49443054 56.4389801 C-8.4959591 55.03646889 -8.49707312 53.63395717 -8.49780273 52.23144531 C-8.50101363 50.80276963 -8.50437757 49.37409429 -8.50788879 47.94541931 C-8.51388637 44.94675941 -8.51572806 41.94812837 -8.51513672 38.94946289 C-8.51503507 35.10120957 -8.52868695 31.25314066 -8.54590893 27.40493107 C-8.55701104 24.45302984 -8.55905648 21.50117344 -8.55852699 18.54925346 C-8.55970983 17.13023684 -8.56414852 15.71121915 -8.57185936 14.29222298 C-8.58162253 12.30982957 -8.57752651 10.32738241 -8.57275391 8.3449707 C-8.57417892 7.21547501 -8.57560394 6.08597931 -8.57707214 4.92225647 C-8.06509695 -0.59319168 -4.68878098 0.00634007 0 0 Z " fill="#5397E9" transform="translate(173.329833984375,146.7412109375)"/>
<path d="M0 0 C0.89294769 -0.00525696 1.78589539 -0.01051392 2.7059021 -0.01593018 C5.66218476 -0.02915094 8.61793046 -0.02038472 11.57421875 -0.01025391 C13.62540796 -0.01227404 15.67659646 -0.01518498 17.7277832 -0.01895142 C22.02855257 -0.02337759 26.32913514 -0.01693423 30.62988281 -0.00292969 C36.1483497 0.01416228 41.66637889 0.00432267 47.18482971 -0.01364708 C51.4209728 -0.02447696 55.65701177 -0.02104222 59.89315796 -0.0132637 C61.92817232 -0.0112595 63.96319607 -0.01372867 65.99819946 -0.02070236 C68.84020096 -0.02830369 71.68148925 -0.01673111 74.5234375 0 C75.36820648 -0.00607269 76.21297546 -0.01214539 77.08334351 -0.0184021 C82.81207975 0.04421926 82.81207975 0.04421926 84.9760437 1.69960594 C87.08621534 4.47105948 86.70903854 7.63177048 86.6953125 10.97802734 C86.70055435 11.71896133 86.7057962 12.45989532 86.7111969 13.22328186 C86.71761558 14.7892227 86.71628203 16.35521176 86.70776367 17.92114258 C86.69926017 20.31402752 86.72800153 22.70451936 86.75976562 25.09716797 C86.76137797 26.61995371 86.76079946 28.14274368 86.7578125 29.66552734 C86.76904648 30.37917953 86.78028046 31.09283173 86.79185486 31.82810974 C86.74854003 34.92503894 86.53365015 36.98718782 84.77786255 39.5763092 C81.1747468 42.17091176 77.77774114 41.94738441 73.50170898 41.90576172 C72.17669876 41.91627563 72.17669876 41.91627563 70.82492065 41.92700195 C67.90639778 41.94460105 64.98884515 41.93295342 62.0703125 41.91943359 C60.04297194 41.92212772 58.01563264 41.92600947 55.98829651 41.93103027 C51.74052624 41.93692772 47.49309248 41.92835342 43.24536133 41.90966797 C37.7951836 41.88686388 32.34579311 41.90000937 26.89564419 41.92395782 C22.71008854 41.93839667 18.52472024 41.93381884 14.33915901 41.92344666 C12.32926402 41.92077483 10.31935211 41.92406508 8.30947685 41.93336487 C5.50330258 41.94350052 2.69841235 41.92807212 -0.10766602 41.90576172 C-0.94151321 41.91385864 -1.77536041 41.92195557 -2.63447571 41.93029785 C-8.2271735 41.84773357 -8.2271735 41.84773357 -10.75343323 39.5763092 C-12.21702367 36.3245184 -12.1664945 33.16472121 -12.13671875 29.66552734 C-12.13958893 28.92363663 -12.14245911 28.18174591 -12.14541626 27.41737366 C-12.14745305 25.85319249 -12.14195008 24.28898562 -12.12939453 22.72485352 C-12.11331126 20.33015132 -12.12926653 17.93713088 -12.1484375 15.54248047 C-12.14645544 14.02099237 -12.14261254 12.49950532 -12.13671875 10.97802734 C-12.14279144 10.26235092 -12.14886414 9.5466745 -12.15512085 8.80931091 C-12.08477899 3.84361753 -12.08477899 3.84361753 -10.45359802 1.69960594 C-7.43460242 -0.60852651 -3.65291108 -0.02625926 0 0 Z " fill="#4E96E8" transform="translate(163.73828125,217.61181640625)"/>
<path d="M0 0 C0.88680328 33.05805556 -3.79735359 67.74435441 -11 100 C-11.1635498 100.7434668 -11.32709961 101.48693359 -11.49560547 102.25292969 C-16.14690847 123.06354001 -16.14690847 123.06354001 -20.8359375 126.24609375 C-23.36467757 127.12704471 -24.98446085 127.05399624 -27.625 126.6875 C-28.40101562 126.58824219 -29.17703125 126.48898437 -29.9765625 126.38671875 C-32 126 -32 126 -34 125 C-35.69034877 120.23649292 -36.25605695 116.01003962 -36.265625 110.9765625 C-36.26839951 110.32167343 -36.27117401 109.66678436 -36.27403259 108.99205017 C-36.27817509 106.86948398 -36.26559768 104.74750722 -36.25 102.625 C-36.24723053 101.89546112 -36.24446106 101.16592224 -36.24160767 100.41427612 C-36.16130252 82.31942688 -35.03208961 64.45697963 -31.79296875 46.63671875 C-30.61509462 40.02745485 -29.83346505 33.36062472 -29.00219727 26.70068359 C-28.88545654 25.7720752 -28.76871582 24.8434668 -28.6484375 23.88671875 C-28.54708496 23.06389404 -28.44573242 22.24106934 -28.34130859 21.39331055 C-27.98649482 18.90529953 -27.51492248 16.45942517 -27 14 C-26.34 14 -25.68 14 -25 14 C-25.020625 13.030625 -25.04125 12.06125 -25.0625 11.0625 C-25 8 -25 8 -24 7 C-20.51268297 6.40681606 -17.025137 5.85600795 -13.52148438 5.36914062 C-9.24497702 4.69038881 -3.41796565 0 0 0 Z " fill="#E1E1E4" transform="translate(115,241)"/>
<path d="M0 0 C0.66 0.33 1.32 0.66 2 1 C3.06224309 7.82473831 3.22078647 14.66792178 3.4375 21.5625 C3.73660404 29.76018938 4.3256389 37.74400209 5.4765625 45.8671875 C6.0179482 49.84451562 6.30768603 53.82611427 6.59960938 57.82836914 C8.03829697 77.15000958 11.51971923 96.1645339 16 115 C21.28 115 26.56 115 32 115 C32.36206375 83.07191936 32.36206375 83.07191936 28.44140625 51.5625 C27.76114144 47.6133521 27.89647542 43.68581867 27.9375 39.6875 C27.94426758 38.43356445 27.94426758 38.43356445 27.95117188 37.15429688 C27.96289452 35.10283351 27.98082797 33.05140727 28 31 C30.03265919 34.04898879 30.87713907 36.52896638 32 40 C38.45497865 57.30689355 47.42827974 72.87189437 56.85546875 88.69921875 C60.65534007 95.08506584 64.34546601 101.53003951 68 108 C72.86896303 107.40380045 77.32790951 106.43023178 82 105 C81.69408936 104.26813477 81.38817871 103.53626953 81.07299805 102.78222656 C75.27469154 88.89047305 69.52311094 74.97879905 63.9375 61 C63.48528076 59.88786133 63.03306152 58.77572266 62.56713867 57.62988281 C58.15348299 46.49173071 55.7301426 35.49185376 54.8125 23.5625 C54.73064453 22.62212891 54.64878906 21.68175781 54.56445312 20.71289062 C54.18009133 16.12961848 53.90008762 11.6036549 54 7 C54.66 6.67 55.32 6.34 56 6 C56.02578125 6.64839844 56.0515625 7.29679688 56.078125 7.96484375 C57.30967598 29.26507777 61.80024427 48.34440417 70 68 C70.79007053 69.92346549 71.57698119 71.84820703 72.36386108 73.77297974 C75.14762498 80.57968199 77.96731313 87.37056484 80.81420898 94.15112305 C81.40117554 95.56131714 81.40117554 95.56131714 82 97 C82.38293213 97.89589844 82.76586426 98.79179687 83.16040039 99.71484375 C84 102 84 102 83.9375 104.55078125 C84.01759501 107.68950429 85.01130444 108.80751017 87 111.1875 C90 114.81944444 90 114.81944444 90 117 C88.56298828 118.31274414 88.56298828 118.31274414 86.5703125 119.78515625 C85.85746094 120.31560547 85.14460938 120.84605469 84.41015625 121.39257812 C83.27900391 122.21918945 83.27900391 122.21918945 82.125 123.0625 C81.37863281 123.61744141 80.63226563 124.17238281 79.86328125 124.74414062 C74.33740602 128.83129699 74.33740602 128.83129699 72 130 C77.94 130.33 83.88 130.66 90 131 C90 131.66 90 132.32 90 133 C-22.53 133 -135.06 133 -251 133 C-251 132.34 -251 131.68 -251 131 C-249.35 130.67 -247.7 130.34 -246 130 C-247.60681641 128.87851562 -247.60681641 128.87851562 -249.24609375 127.734375 C-250.64363381 126.74015187 -252.04074721 125.74532883 -253.4375 124.75 C-254.14455078 124.25886719 -254.85160156 123.76773438 -255.58007812 123.26171875 C-256.25361328 122.77832031 -256.92714844 122.29492188 -257.62109375 121.796875 C-258.2442749 121.35698242 -258.86745605 120.91708984 -259.50952148 120.46386719 C-261.31518614 118.69044126 -261.70759403 117.49301299 -262 115 C-260.63510623 112.66629928 -258.8580962 110.99405446 -257 109 C-255.7315625 109.4640625 -255.7315625 109.4640625 -254.4375 109.9375 C-250.9502146 111.01538821 -247.61822465 111.56581304 -244 112 C-243.79375 113.051875 -243.5875 114.10375 -243.375 115.1875 C-241.88290559 120.32693629 -238.32429297 122.72080279 -233.828125 125.1953125 C-231.90526519 126.17037971 -229.95455095 127.09012283 -228 128 C-228 128.99 -228 129.98 -228 131 C-222.39 131 -216.78 131 -211 131 C-210.505 127.04 -210.505 127.04 -210 123 C-209.505 121.515 -209.505 121.515 -209 120 C-208.20335937 120.09539062 -207.40671875 120.19078125 -206.5859375 120.2890625 C-205.52632812 120.39992188 -204.46671875 120.51078125 -203.375 120.625 C-202.33085937 120.74101562 -201.28671875 120.85703125 -200.2109375 120.9765625 C-196.98486276 121.22314438 -196.98486276 121.22314438 -194.24609375 119.76171875 C-189.0647986 118.54589137 -185.3421443 120.94859941 -180.6875 123.1875 C-179.76904297 123.60064453 -178.85058594 124.01378906 -177.90429688 124.43945312 C-172.93321624 126.75047287 -172.93321624 126.75047287 -171 128 C-170.67 128.99 -170.34 129.98 -170 131 C-115.88 131 -61.76 131 -6 131 C-6 130.34 -6 129.68 -6 129 C-0.86243474 126.27394497 4.39273723 123.88198596 9.75 121.625 C10.39976807 121.33802246 11.04953613 121.05104492 11.71899414 120.75537109 C13.609375 119.9765625 13.609375 119.9765625 17 119 C19.0625 119.859375 19.0625 119.859375 21 121 C24.05816998 121.02666098 24.05816998 121.02666098 27.25 120.625 C28.32765625 120.51414062 29.4053125 120.40328125 30.515625 120.2890625 C31.33546875 120.19367188 32.1553125 120.09828125 33 120 C34.97103025 124.18843928 35 125.99852013 35 131 C40.94 131 46.88 131 53 131 C53.33 130.01 53.66 129.02 54 128 C56.36328125 126.53515625 56.36328125 126.53515625 59.3125 125.0625 C63.18310447 123.12461392 66.21751577 121.36082968 69 118 C69.80765878 114.35278304 69.80765878 114.35278304 70 111 C69.40396973 110.93296875 68.80793945 110.8659375 68.19384766 110.796875 C65.11080996 109.67701799 64.49252989 108.08303226 62.8984375 105.25 C62.3307666 104.25742187 61.7630957 103.26484375 61.17822266 102.2421875 C60.58315918 101.17226563 59.9880957 100.10234375 59.375 99 C58.12026172 96.79139956 56.865051 94.58306745 55.609375 92.375 C54.99513672 91.28574219 54.38089844 90.19648438 53.74804688 89.07421875 C51.82996357 85.70096387 49.85101266 82.36937079 47.85205078 79.04370117 C42.76965602 70.57877349 38.29975805 61.88405892 34 53 C33.33492856 51.66587024 32.66862396 50.33235289 32 49 C32.06058594 49.75055664 32.12117188 50.50111328 32.18359375 51.27441406 C33.87617846 72.88090891 34.24448285 94.33317748 34 116 C29.93337497 117.73611281 26.82098094 118.29716903 22.375 118.3125 C21.24835938 118.32925781 20.12171875 118.34601563 18.9609375 118.36328125 C15.60152875 117.95111105 15.04604967 117.56213476 13 115 C12.26391602 113.02416992 12.26391602 113.02416992 11.75390625 110.73046875 C11.55845215 109.85769287 11.36299805 108.98491699 11.16162109 108.08569336 C10.96391113 107.12928955 10.76620117 106.17288574 10.5625 105.1875 C10.34932129 104.17631104 10.13614258 103.16512207 9.91650391 102.12329102 C3.20146143 68.97121141 -0.61956319 33.86945433 0 0 Z " fill="#C4A8ED" transform="translate(289,246)"/>
<path d="M0 0 C0.07516846 0.78012451 0.15033691 1.56024902 0.2277832 2.36401367 C0.58057806 5.97276107 0.94647619 9.58007129 1.3125 13.1875 C1.43044922 14.41404297 1.54839844 15.64058594 1.66992188 16.90429688 C2.85298176 28.40121219 4.90408951 39.2765516 9.4375 49.9375 C10.13727192 51.63779328 10.8364488 53.33833152 11.53515625 55.0390625 C12.11354248 56.43366699 12.11354248 56.43366699 12.70361328 57.85644531 C15.02649426 63.4891036 17.2969772 69.14279656 19.56521606 74.79763794 C20.36083684 76.77725996 21.16147189 78.75479808 21.96264648 80.73217773 C22.46227775 81.97371473 22.9617165 83.21532923 23.4609375 84.45703125 C23.90228027 85.54991455 24.34362305 86.64279785 24.79833984 87.76879883 C26.05706992 91.15345804 27.05214051 94.51745532 28 98 C26.4447088 98.70365602 24.88035173 99.38729378 23.3125 100.0625 C22.44238281 100.44535156 21.57226562 100.82820313 20.67578125 101.22265625 C17.46789381 102.15458267 16.07690897 102.34830842 13 101 C11.33978461 98.61874216 10.04910494 96.44233536 8.75 93.875 C7.96564571 92.40252313 7.17913487 90.93119325 6.390625 89.4609375 C5.99423828 88.71295898 5.59785156 87.96498047 5.18945312 87.19433594 C3.40142092 83.8957248 1.45685506 80.70033582 -0.5 77.5 C-8.06728168 64.98246863 -15.06904229 52.38306779 -21 39 C-21.51433594 37.9275 -22.02867187 36.855 -22.55859375 35.75 C-24.56047292 31.04243553 -25.31711323 26.07823078 -26.1875 21.0625 C-26.36474609 20.11181641 -26.54199219 19.16113281 -26.72460938 18.18164062 C-27.70341814 12.69804403 -28.19064986 7.56829066 -28 2 C-26.87972412 1.96241577 -26.87972412 1.96241577 -25.73681641 1.92407227 C-22.36602733 1.80831787 -18.99553217 1.68549872 -15.625 1.5625 C-14.449375 1.52318359 -13.27375 1.48386719 -12.0625 1.44335938 C-10.94101562 1.40146484 -9.81953125 1.35957031 -8.6640625 1.31640625 C-7.62717285 1.27974854 -6.5902832 1.24309082 -5.52197266 1.20532227 C-3.46033274 1.03747723 -1.9208594 0 0 0 Z " fill="#191731" transform="translate(343,253)"/>
<path d="M0 0 C1.24466041 2.41574483 2.38048572 4.85284727 3.48828125 7.3359375 C8.60753342 18.75403938 14.77829 29.38042677 21.25048828 40.07714844 C23.07189436 43.12011154 24.85096754 46.1847628 26.62109375 49.2578125 C27.20802002 50.27141846 27.79494629 51.28502441 28.3996582 52.3293457 C29.53083065 54.28516799 30.65589731 56.24453718 31.77416992 58.20776367 C32.28439697 59.08408447 32.79462402 59.96040527 33.3203125 60.86328125 C33.76648926 61.63969971 34.21266602 62.41611816 34.67236328 63.21606445 C35.96305588 65.30560589 35.96305588 65.30560589 39 66 C39.5 69.0625 39.5 69.0625 39 73 C34.75700408 78.32584384 29.02821105 81.14453161 23 84 C22.67 84.66 22.34 85.32 22 86 C16.06 86 10.12 86 4 86 C3.34 82.7 2.68 79.4 2 76 C0.78763672 76.16048828 0.78763672 76.16048828 -0.44921875 76.32421875 C-1.51785156 76.44410156 -2.58648437 76.56398438 -3.6875 76.6875 C-4.74324219 76.81511719 -5.79898437 76.94273437 -6.88671875 77.07421875 C-10.47972869 76.98856356 -12.15568551 76.13719363 -15 74 C-15 73.67 -15 73.34 -15 73 C-14.11957031 72.93941406 -13.23914063 72.87882812 -12.33203125 72.81640625 C-11.17058594 72.73261719 -10.00914062 72.64882813 -8.8125 72.5625 C-7.66394531 72.48128906 -6.51539063 72.40007812 -5.33203125 72.31640625 C-2.47954933 72.04553751 0.20143044 71.58642658 3 71 C2.5898634 51.46682769 1.97266042 32.0220198 0.40234375 12.54296875 C0.07007348 8.34147086 -0.09014707 4.21287287 0 0 Z " fill="#FDFCFE" transform="translate(320,291)"/>
<path d="M0 0 C0.33 0 0.66 0 1 0 C0.87565892 1.64588325 0.75043549 3.2916998 0.625 4.9375 C0.49158203 6.73767578 0.49158203 6.73767578 0.35546875 8.57421875 C0.1061779 11.81050801 -0.19474788 15.03919969 -0.51171875 18.26953125 C-1.69792614 30.86441774 -2.19418441 43.35721446 -2.1875 56 C-2.18831573 56.74189575 -2.18913147 57.4837915 -2.18997192 58.24816895 C-2.18970892 60.35304764 -2.18096945 62.45766499 -2.16796875 64.5625 C-2.16047607 65.78066406 -2.1529834 66.99882812 -2.14526367 68.25390625 C-2.31163189 70.91129044 -2.31163189 70.91129044 -1 72 C-1.05078125 73.78515625 -1.05078125 73.78515625 -1.3125 76.0625 C-1.39113281 76.79597656 -1.46976563 77.52945313 -1.55078125 78.28515625 C-2.14887817 81.89974198 -3.11141388 85.44565553 -4 89 C-9.61 89 -15.22 89 -21 89 C-21.33 88.01 -21.66 87.02 -22 86 C-24.15556511 84.71312084 -24.15556511 84.71312084 -26.75 83.625 C-30.95392795 81.60735549 -34.18665581 79.84490373 -37 76 C-37.57991403 71.85775694 -37.34549674 70.51824511 -35 67 C-34.34 67 -33.68 67 -33 67 C-32.77957031 66.36707031 -32.55914062 65.73414063 -32.33203125 65.08203125 C-30.45857555 60.74726132 -28.06319373 56.76380207 -25.6875 52.6875 C-21.02096832 44.59712312 -16.4595481 36.45635973 -12 28.25 C-11.46076904 27.26346436 -10.92153809 26.27692871 -10.3659668 25.26049805 C-5.90984326 17.02825976 -2.00209534 9.1762703 0 0 Z " fill="#FDFDFD" transform="translate(82,288)"/>
<path d="M0 0 C0.99 0.495 0.99 0.495 2 1 C3.06224309 7.82473831 3.22078647 14.66792178 3.4375 21.5625 C3.73660404 29.76018938 4.3256389 37.74400209 5.4765625 45.8671875 C6.0179482 49.84451562 6.30768603 53.82611427 6.59960938 57.82836914 C8.03829697 77.15000958 11.51971923 96.1645339 16 115 C21.28 115 26.56 115 32 115 C32.36206375 83.07191936 32.36206375 83.07191936 28.44140625 51.5625 C27.76114144 47.6133521 27.89647542 43.68581867 27.9375 39.6875 C27.94201172 38.85154297 27.94652344 38.01558594 27.95117188 37.15429688 C27.96289452 35.10283351 27.98082797 33.05140727 28 31 C30.03265919 34.04898879 30.87713907 36.52896638 32 40 C38.45497865 57.30689355 47.42827974 72.87189437 56.85546875 88.69921875 C60.65534007 95.08506584 64.34546601 101.53003951 68 108 C72.86896303 107.40380045 77.32790951 106.43023178 82 105 C81.69408936 104.26813477 81.38817871 103.53626953 81.07299805 102.78222656 C75.27469154 88.89047305 69.52311094 74.97879905 63.9375 61 C63.48528076 59.88786133 63.03306152 58.77572266 62.56713867 57.62988281 C58.15348299 46.49173071 55.7301426 35.49185376 54.8125 23.5625 C54.73064453 22.62212891 54.64878906 21.68175781 54.56445312 20.71289062 C54.18009133 16.12961848 53.90008762 11.6036549 54 7 C54.66 6.67 55.32 6.34 56 6 C56.02578125 6.64839844 56.0515625 7.29679688 56.078125 7.96484375 C57.30967598 29.26507777 61.80024427 48.34440417 70 68 C70.79007053 69.92346549 71.57698119 71.84820703 72.36386108 73.77297974 C75.14762498 80.57968199 77.96731313 87.37056484 80.81420898 94.15112305 C81.20552002 95.09125244 81.59683105 96.03138184 82 97 C82.38293213 97.89589844 82.76586426 98.79179687 83.16040039 99.71484375 C84 102 84 102 83.9375 104.55078125 C84.01759501 107.68950429 85.01130444 108.80751017 87 111.1875 C90 114.81944444 90 114.81944444 90 117 C88.6105957 118.28100586 88.6105957 118.28100586 86.67578125 119.71484375 C85.97646484 120.23626953 85.27714844 120.75769531 84.55664062 121.29492188 C83.81607422 121.83697266 83.07550781 122.37902344 82.3125 122.9375 C81.59126953 123.47568359 80.87003906 124.01386719 80.12695312 124.56835938 C78.10056892 126.06917909 76.05433444 127.53779568 74 129 C73.1646875 129.61617187 72.329375 130.23234375 71.46875 130.8671875 C68.05343154 132.43434312 64.86170276 132.32462336 61.1875 132.1875 C60.49462891 132.17396484 59.80175781 132.16042969 59.08789062 132.14648438 C57.39158735 132.11138845 55.69568864 132.05758943 54 132 C54 130.68 54 129.36 54 128 C54.74765625 127.61328125 55.4953125 127.2265625 56.265625 126.828125 C57.25046875 126.30734375 58.2353125 125.7865625 59.25 125.25 C60.22453125 124.73953125 61.1990625 124.2290625 62.203125 123.703125 C64.96306825 122.02248917 66.93859292 120.48132334 69 118 C69.80765878 114.35278304 69.80765878 114.35278304 70 111 C69.40396973 110.93296875 68.80793945 110.8659375 68.19384766 110.796875 C65.11080996 109.67701799 64.49252989 108.08303226 62.8984375 105.25 C62.3307666 104.25742187 61.7630957 103.26484375 61.17822266 102.2421875 C60.58315918 101.17226563 59.9880957 100.10234375 59.375 99 C58.12026172 96.79139956 56.865051 94.58306745 55.609375 92.375 C54.99513672 91.28574219 54.38089844 90.19648438 53.74804688 89.07421875 C51.82996357 85.70096387 49.85101266 82.36937079 47.85205078 79.04370117 C42.76965602 70.57877349 38.29975805 61.88405892 34 53 C33.33492856 51.66587024 32.66862396 50.33235289 32 49 C32.06058594 49.75055664 32.12117188 50.50111328 32.18359375 51.27441406 C33.87617846 72.88090891 34.24448285 94.33317748 34 116 C29.93337497 117.73611281 26.82098094 118.29716903 22.375 118.3125 C21.24835938 118.32925781 20.12171875 118.34601563 18.9609375 118.36328125 C15.60152875 117.95111105 15.04604967 117.56213476 13 115 C12.26391602 113.02416992 12.26391602 113.02416992 11.75390625 110.73046875 C11.4607251 109.42130493 11.4607251 109.42130493 11.16162109 108.08569336 C10.96391113 107.12928955 10.76620117 106.17288574 10.5625 105.1875 C10.34932129 104.17631104 10.13614258 103.16512207 9.91650391 102.12329102 C3.20146143 68.97121141 -0.61956319 33.86945433 0 0 Z " fill="#7716F4" transform="translate(289,246)"/>
<path d="M0 0 C1.76966125 0.00213753 1.76966125 0.00213753 3.57507324 0.00431824 C4.22564194 0.00241989 4.87621063 0.00052155 5.54649353 -0.00143433 C7.7013242 -0.00514515 9.8558193 0.00556629 12.01062012 0.01676941 C13.50512655 0.01796118 14.99963374 0.01841438 16.49414062 0.01815796 C19.62809938 0.01972336 22.76194399 0.02801717 25.89587402 0.04142761 C29.9178093 0.05841755 33.93961904 0.06224197 37.961586 0.06148243 C41.04816898 0.06175406 44.13472439 0.06723414 47.22129822 0.07448387 C48.70450125 0.07767134 50.18770742 0.07963813 51.6709137 0.08037758 C53.74188585 0.08254032 55.81272361 0.09128308 57.88366699 0.10197449 C59.06344116 0.10578629 60.24321533 0.10959808 61.45874023 0.11352539 C64.22937012 0.24723816 64.22937012 0.24723816 66.22937012 1.24723816 C66.22937012 6.52723816 66.22937012 11.80723816 66.22937012 17.24723816 C42.79937012 17.24723816 19.36937012 17.24723816 -4.77062988 17.24723816 C-4.77062988 0.42570888 -4.77062988 0.42570888 0 0 Z " fill="#4881EA" transform="translate(169.7706298828125,146.7527618408203)"/>
<path d="M0 0 C2.71329897 0.86031431 4.40863329 1.97772465 6.5625 3.8125 C6.8925 3.1525 7.2225 2.4925 7.5625 1.8125 C8.8825 3.4625 10.2025 5.1125 11.5625 6.8125 C12.201875 6.626875 12.84125 6.44125 13.5 6.25 C14.180625 6.105625 14.86125 5.96125 15.5625 5.8125 C18.05499014 8.30499014 17.40737811 14.03315949 17.609375 17.359375 C17.54851302 21.84287424 16.73298772 23.64201228 13.5625 26.8125 C6.27502567 33.8125 6.27502567 33.8125 3.5625 33.8125 C3.48902344 34.70001953 3.48902344 34.70001953 3.4140625 35.60546875 C2.43637387 45.93862613 2.43637387 45.93862613 -1.4375 49.8125 C-8.58981788 50.38014428 -8.58981788 50.38014428 -11.1875 48.640625 C-12.93298479 46.08785349 -12.66677849 44.30489385 -12.5 41.25 C-12.30846695 38.38343973 -12.30846695 38.38343973 -12.4375 35.8125 C-13.0975 35.1525 -13.7575 34.4925 -14.4375 33.8125 C-14.66796875 30.984375 -14.66796875 30.984375 -14.625 27.5625 C-14.61855469 26.44359375 -14.61210937 25.3246875 -14.60546875 24.171875 C-14.4375 20.8125 -14.4375 20.8125 -13.8359375 17.58203125 C-13.30065354 13.86128296 -14.70284335 12.07365451 -16.4375 8.8125 C-16.75 6.0625 -16.75 6.0625 -16.4375 3.8125 C-14.4375 1.8125 -14.4375 1.8125 -12.37890625 1.6875 C-10.79556574 1.77069687 -9.21223237 1.85402976 -7.62890625 1.9375 C-4.4371736 1.75544038 -3.27692381 -0.25207106 0 0 Z " fill="#F5B486" transform="translate(335.4375,115.1875)"/>
<path d="M0 0 C3.625 1.25 3.625 1.25 6 3 C6.875 5.1875 6.875 5.1875 7 7 C5.02 7.99 5.02 7.99 3 9 C3.05220703 10.87945312 3.05220703 10.87945312 3.10546875 12.796875 C3.13361128 14.44790324 3.16091094 16.09894601 3.1875 17.75 C3.21263672 18.575 3.23777344 19.4 3.26367188 20.25 C3.33772964 26.37210828 3.33772964 26.37210828 1.61328125 29.578125 C0 31 0 31 -2 31 C-1.87625 32.3921875 -1.87625 32.3921875 -1.75 33.8125 C-2 37 -2 37 -3.5 38.9375 C-7.0750573 40.45689935 -10.31858469 40.19438115 -14 39 C-16.206034 37.37688159 -16.90522373 36.51306768 -17.40625 33.80078125 C-17.4371875 32.97964844 -17.468125 32.15851563 -17.5 31.3125 C-17.79281242 27.03245458 -18.72174626 23.75801378 -20.3671875 19.828125 C-21.27895533 17.19412904 -21.20645123 14.75268304 -21 12 C-21.99 12 -22.98 12 -24 12 C-23.36407463 8.7806278 -22.60673276 5.87631505 -21 3 C-18.26972759 1.55948818 -16.1316186 1.39766585 -13 1 C-9.07191185 -0.96404408 -4.29147415 -0.33848247 0 0 Z " fill="#F3B58A" transform="translate(97,118)"/>
<path d="M0 0 C2.71329897 0.86031431 4.40863329 1.97772465 6.5625 3.8125 C6.8925 3.1525 7.2225 2.4925 7.5625 1.8125 C8.8825 3.4625 10.2025 5.1125 11.5625 6.8125 C12.201875 6.626875 12.84125 6.44125 13.5 6.25 C14.180625 6.105625 14.86125 5.96125 15.5625 5.8125 C18.05499014 8.30499014 17.40737811 14.03315949 17.609375 17.359375 C17.54851302 21.84287424 16.73298772 23.64201228 13.5625 26.8125 C10.95840049 29.22811231 8.30858151 31.55964673 5.5625 33.8125 C5.2325 33.1525 4.9025 32.4925 4.5625 31.8125 C4.8925 31.1525 5.2225 30.4925 5.5625 29.8125 C5.602492 27.81289988 5.60596799 25.81202758 5.5625 23.8125 C4.5725 24.8025 3.5825 25.7925 2.5625 26.8125 C2.51351563 26.10222656 2.46453125 25.39195312 2.4140625 24.66015625 C2.33929688 23.74105469 2.26453125 22.82195312 2.1875 21.875 C2.11789062 20.95847656 2.04828125 20.04195312 1.9765625 19.09765625 C1.83992188 18.34355469 1.70328125 17.58945313 1.5625 16.8125 C0.9025 16.4825 0.2425 16.1525 -0.4375 15.8125 C-0.4375 15.1525 -0.4375 14.4925 -0.4375 13.8125 C-2.20817416 13.64415067 -3.97904612 13.47788091 -5.75 13.3125 C-6.73613281 13.2196875 -7.72226562 13.126875 -8.73828125 13.03125 C-11.48452139 12.77211143 -11.48452139 12.77211143 -14.4375 12.8125 C-16.28401134 9.69651212 -16.81829379 7.43004103 -16.4375 3.8125 C-14.4375 1.8125 -14.4375 1.8125 -12.37890625 1.6875 C-10.79556574 1.77069687 -9.21223237 1.85402976 -7.62890625 1.9375 C-4.4371736 1.75544038 -3.27692381 -0.25207106 0 0 Z " fill="#AC3719" transform="translate(335.4375,115.1875)"/>
<path d="M0 0 C0.99 0.495 0.99 0.495 2 1 C3.06224309 7.82473831 3.22078647 14.66792178 3.4375 21.5625 C3.73660404 29.76018938 4.3256389 37.74400209 5.4765625 45.8671875 C6.0179482 49.84451562 6.30768603 53.82611427 6.59960938 57.82836914 C8.03829697 77.15000958 11.51971923 96.1645339 16 115 C21.28 115 26.56 115 32 115 C32.36206375 83.07191936 32.36206375 83.07191936 28.44140625 51.5625 C27.76114144 47.6133521 27.89647542 43.68581867 27.9375 39.6875 C27.94201172 38.85154297 27.94652344 38.01558594 27.95117188 37.15429688 C27.96289452 35.10283351 27.98082797 33.05140727 28 31 C30.33690462 34.50535693 30.60342333 37.36423304 31 41.4375 C31.11964111 42.61626709 31.11964111 42.61626709 31.24169922 43.81884766 C31.50841546 46.5447604 31.75539993 49.27201696 32 52 C32.09313477 52.99241699 32.18626953 53.98483398 32.28222656 55.00732422 C34.14624091 75.35667411 34.2264957 95.58751094 34 116 C29.93337497 117.73611281 26.82098094 118.29716903 22.375 118.3125 C21.24835938 118.32925781 20.12171875 118.34601563 18.9609375 118.36328125 C15.60152875 117.95111105 15.04604967 117.56213476 13 115 C12.26391602 113.02416992 12.26391602 113.02416992 11.75390625 110.73046875 C11.4607251 109.42130493 11.4607251 109.42130493 11.16162109 108.08569336 C10.96391113 107.12928955 10.76620117 106.17288574 10.5625 105.1875 C10.34932129 104.17631104 10.13614258 103.16512207 9.91650391 102.12329102 C3.20146143 68.97121141 -0.61956319 33.86945433 0 0 Z " fill="#1510F4" transform="translate(289,246)"/>
<path d="M0 0 C3.35443107 0.30970221 6.70849025 0.62327051 10.0625 0.9375 C11.47692383 1.06801758 11.47692383 1.06801758 12.91992188 1.20117188 C17.97170607 1.67642683 22.98476739 2.22789068 28 3 C28.10888217 6.42978834 27.61383347 8.95539477 26 12 C16.58168444 19.65671604 6.58644441 19.88371186 -5 19 C-5.12109375 16.11328125 -5.12109375 16.11328125 -5 13 C-4.360625 12.401875 -3.72125 11.80375 -3.0625 11.1875 C-0.66604608 8.64580644 -0.6584298 7.74174832 -0.37109375 4.36328125 C-0.25979126 3.13992065 -0.25979126 3.13992065 -0.14624023 1.8918457 C-0.09798096 1.26753662 -0.04972168 0.64322754 0 0 Z " fill="#E7ECFD" transform="translate(100,136)"/>
<path d="M0 0 C3.13388899 0.02920459 3.13388899 0.02920459 6.3125 -0.375 C7.38113281 -0.48585938 8.44976562 -0.59671875 9.55078125 -0.7109375 C10.76314453 -0.85402344 10.76314453 -0.85402344 12 -1 C14.19843711 3.53427655 14 5.43108581 14 11 C0.8 11 -12.4 11 -26 11 C-25.67 9.68 -25.34 8.36 -25 7 C-22.57261591 5.59685359 -20.31146552 4.4651906 -17.75 3.375 C-16.74646484 2.92640625 -16.74646484 2.92640625 -15.72265625 2.46875 C-14.41501415 1.88814663 -13.10188943 1.31971109 -11.78320312 0.76464844 C-10.27425988 0.11760432 -8.79661424 -0.60169288 -7.328125 -1.3359375 C-4.22903669 -2.21990564 -2.91761118 -1.24472973 0 0 Z " fill="#2F1558" transform="translate(310,367)"/>
<path d="M0 0 C1.07894531 0.44085938 2.15789062 0.88171875 3.26953125 1.3359375 C4.24140381 1.71443848 4.24140381 1.71443848 5.23291016 2.10058594 C7.36373746 2.93896056 9.47256008 3.82031455 11.58203125 4.7109375 C12.30970703 5.00226563 13.03738281 5.29359375 13.78710938 5.59375 C15.8828125 6.484375 15.8828125 6.484375 19.26953125 8.3359375 C19.76453125 10.3159375 19.76453125 10.3159375 20.26953125 12.3359375 C7.06953125 12.3359375 -6.13046875 12.3359375 -19.73046875 12.3359375 C-19.73046875 3.3359375 -19.73046875 3.3359375 -18.73046875 0.3359375 C-17.50070313 0.47902344 -17.50070313 0.47902344 -16.24609375 0.625 C-15.1684375 0.73585938 -14.09078125 0.84671875 -12.98046875 0.9609375 C-11.37945312 1.13496094 -11.37945312 1.13496094 -9.74609375 1.3125 C-6.78869904 1.57995238 -6.78869904 1.57995238 -4.71484375 0.234375 C-2.73046875 -0.6640625 -2.73046875 -0.6640625 0 0 Z " fill="#32155C" transform="translate(98.73046875,365.6640625)"/>
<path d="M0 0 C0.33 0 0.66 0 1 0 C1.04898437 0.85722656 1.09796875 1.71445312 1.1484375 2.59765625 C1.22320312 3.74105469 1.29796875 4.88445312 1.375 6.0625 C1.44460938 7.18785156 1.51421875 8.31320312 1.5859375 9.47265625 C1.89647062 12.98490931 1.89647062 12.98490931 2.94921875 16.19921875 C4.63668783 22.3029638 5.09702795 28.55882997 5.76757812 34.84375 C6.46222398 40.89215811 7.59022716 46.52624848 9.28881836 52.37011719 C10.39162863 56.44820583 10.98074199 60.5709809 11.5625 64.75 C12.35244793 70.33831736 13.42187041 75.56771328 15 81 C15.41881179 83.40946041 15.79456871 85.8268372 16.125 88.25 C16.29257812 89.45140625 16.46015625 90.6528125 16.6328125 91.890625 C17 95 17 95 17 98 C19.97 98 22.94 98 26 98 C26 98.33 26 98.66 26 99 C21.71 99 17.42 99 13 99 C11.25992916 95.51985833 10.50948769 93.21417412 9.81640625 89.4765625 C9.61249268 88.38456543 9.4085791 87.29256836 9.19848633 86.16748047 C8.98861084 84.99846191 8.77873535 83.82944336 8.5625 82.625 C8.34295654 81.41344238 8.12341309 80.20188477 7.8972168 78.95361328 C4.94524681 62.38996289 2.82816055 45.90602257 1.64575195 29.12060547 C1.57445068 28.11916504 1.50314941 27.11772461 1.4296875 26.0859375 C1.37022949 25.1995459 1.31077148 24.3131543 1.24951172 23.39990234 C1.06187263 21.03748563 1.06187263 21.03748563 0.47924805 18.93896484 C-0.03722333 16.84940005 -0.11394023 15.0401105 -0.09765625 12.890625 C-0.09443359 12.13652344 -0.09121094 11.38242187 -0.08789062 10.60546875 C-0.07951172 9.82816406 -0.07113281 9.05085938 -0.0625 8.25 C-0.05798828 7.45722656 -0.05347656 6.66445313 -0.04882812 5.84765625 C-0.03708565 3.89840492 -0.01915146 1.94919262 0 0 Z " fill="#0F0E75" transform="translate(292,263)"/>
<path d="M0 0 C0.99 0 1.98 0 3 0 C4.38671875 1.4609375 4.38671875 1.4609375 5.6875 3.375 C6.12449219 4.00148438 6.56148438 4.62796875 7.01171875 5.2734375 C8 7 8 7 8 9 C6.6105957 10.28100586 6.6105957 10.28100586 4.67578125 11.71484375 C3.97646484 12.23626953 3.27714844 12.75769531 2.55664062 13.29492188 C1.81607422 13.83697266 1.07550781 14.37902344 0.3125 14.9375 C-0.7693457 15.74477539 -0.7693457 15.74477539 -1.87304688 16.56835938 C-3.89943108 18.06917909 -5.94566556 19.53779568 -8 21 C-9.25296875 21.92425781 -9.25296875 21.92425781 -10.53125 22.8671875 C-13.94656846 24.43434312 -17.13829724 24.32462336 -20.8125 24.1875 C-21.85180664 24.16719727 -21.85180664 24.16719727 -22.91210938 24.14648438 C-24.60841265 24.11138845 -26.30431136 24.05758943 -28 24 C-28 22.68 -28 21.36 -28 20 C-27.26394531 19.62488281 -26.52789062 19.24976563 -25.76953125 18.86328125 C-16.45820726 14.31418309 -16.45820726 14.31418309 -11 6 C-9.39125 5.9071875 -9.39125 5.9071875 -7.75 5.8125 C-3.29080891 4.84634193 -2.57593096 3.58790384 0 0 Z " fill="#2E1554" transform="translate(371,354)"/>
<path d="M0 0 C0.845625 0.309375 1.69125 0.61875 2.5625 0.9375 C6.0497854 2.01538821 9.38177535 2.56581304 13 3 C13.20625 4.051875 13.4125 5.10375 13.625 6.1875 C15.11709441 11.32693629 18.67570703 13.72080279 23.171875 16.1953125 C25.09473481 17.17037971 27.04544905 18.09012283 29 19 C29 19.99 29 20.98 29 22 C17.79276406 23.47542069 11.18086136 21.86114806 2.0546875 15.08862305 C-0.43674968 13.16086087 -2.77109575 11.22890425 -5 9 C-4.73441476 5.14901402 -2.43956652 2.83304499 0 0 Z " fill="#2C1452" transform="translate(32,355)"/>
<path d="M0 0 C3.625 1.25 3.625 1.25 6 3 C6.875 5.1875 6.875 5.1875 7 7 C2.50292642 10.50991108 -0.29184773 11.63423914 -6 11 C-8.4375 10 -8.4375 10 -10 9 C-10.28875 9.721875 -10.5775 10.44375 -10.875 11.1875 C-11.91666667 13.79166667 -12.95833333 16.39583333 -14 19 C-14.99 19 -15.98 19 -17 19 C-17 20.98 -17 22.96 -17 25 C-19.1793144 23.24135754 -19.93686419 22.30604 -20.51171875 19.51953125 C-20.56972656 18.62621094 -20.62773438 17.73289063 -20.6875 16.8125 C-20.75324219 15.91144531 -20.81898437 15.01039063 -20.88671875 14.08203125 C-20.92410156 13.39496094 -20.96148437 12.70789063 -21 12 C-21.99 12 -22.98 12 -24 12 C-23.36407463 8.7806278 -22.60673276 5.87631505 -21 3 C-18.26972759 1.55948818 -16.1316186 1.39766585 -13 1 C-9.07191185 -0.96404408 -4.29147415 -0.33848247 0 0 Z " fill="#A73D1F" transform="translate(97,118)"/>
<path d="M0 0 C5 2 5 2 7 5 C7.265625 8.36328125 7.265625 8.36328125 7.25 12.3125 C7.25515625 13.60800781 7.2603125 14.90351562 7.265625 16.23828125 C7.01067704 19.84879431 6.31094654 22.64460112 5 26 C5.66 26 6.32 26 7 26 C7.696553 27.95513161 8.38199565 29.91422476 9.0625 31.875 C9.44535156 32.96554688 9.82820313 34.05609375 10.22265625 35.1796875 C11 38 11 38 10 40 C5.42620106 35.88358095 4.02388817 31.97268102 3 26 C0.36 26.99 -2.28 27.98 -5 29 C-7.65101247 23.16777257 -8.961727 18.29490879 -7 12 C-5.4453125 10.23828125 -5.4453125 10.23828125 -4 9 C-3.67 9.99 -3.34 10.98 -3 12 C-2.01 8.04 -1.02 4.08 0 0 Z " fill="#FEA566" transform="translate(280,88)"/>
<path d="M0 0 C2.63329292 3.03248893 3.35596719 4.9465909 3.5 8.9375 C3.77776016 13.28328924 4.45199422 17.27270744 5.5 21.5 C6.72306142 26.49269034 7.38748153 31.26874477 7.7578125 36.38671875 C8.07509058 39.81025157 8.74623193 43.1059989 9.46484375 46.46484375 C10.0329166 49.15593339 10.52160466 51.85410432 11 54.5625 C11.59530375 57.9046384 12.26836385 61.1999231 13.0625 64.5 C13.80208782 67.72005159 14.19455626 70.83068284 14.4375 74.125 C14.99351749 81.20429412 16.52671482 88.06422667 18 95 C19.25196562 100.99328059 20.32360093 106.91240833 21 113 C20.01 113 19.02 113 18 113 C17.80664062 111.85402344 17.61328125 110.70804687 17.4140625 109.52734375 C17.15124341 107.99736117 16.88821121 106.46741518 16.625 104.9375 C16.49867188 104.18533203 16.37234375 103.43316406 16.2421875 102.65820312 C15.64227144 99.19368787 14.9659391 95.88262088 13.984375 92.5 C12.82469975 88.37671024 12.2219981 84.29662763 11.625 80.0625 C10.71894366 73.92481385 9.57804258 67.9823496 7.9375 62 C6.09629719 55.23573062 5.24540991 48.53907639 4.68334961 41.55664062 C4.38911223 38.04833903 3.99009951 34.96542685 3.015625 31.5625 C1.73708347 27.0777697 1.29895481 22.69472758 0.875 18.0625 C0.78863281 17.20720703 0.70226562 16.35191406 0.61328125 15.47070312 C0.11520537 10.28834214 -0.08444662 5.20553096 0 0 Z " fill="#15154D" transform="translate(291,248)"/>
<path d="M0 0 C1.30738892 2.58822094 2.56355386 5.19123139 3.76953125 7.828125 C7.15958625 15.17794336 10.56616352 22.21068789 15 29 C15 29.66 15 30.32 15 31 C14.01 31.66 13.02 32.32 12 33 C10.65016213 35.39021509 9.4820334 37.68795516 8.375 40.1875 C8.06232178 40.89132812 7.74964355 41.59515625 7.42749023 42.3203125 C4.44567041 49.5170898 3.92205259 56.24980014 4 64 C3.67 64 3.34 64 3 64 C2.96574669 63.17339622 2.96574669 63.17339622 2.93080139 62.33009338 C2.68910185 56.50441194 2.44532736 50.67881975 2.20043945 44.85327148 C2.10975651 42.6898815 2.01957257 40.52647052 1.92993164 38.36303711 C1.39937375 25.5674034 0.81200221 12.78111151 0 0 Z " fill="#E2E6FF" transform="translate(320,291)"/>
<path d="M0 0 C1.36328125 2.06640625 1.36328125 2.06640625 2.3125 4.5625 C2.80169922 5.80193359 2.80169922 5.80193359 3.30078125 7.06640625 C3.53152344 7.70449219 3.76226562 8.34257812 4 9 C-0.52496761 15.33495466 -6.59101233 19.53033744 -14 22 C-16.33299825 22.03954234 -18.66708189 22.04401732 -21 22 C-20.04367001 20.70684939 -19.08486149 19.41553147 -18.125 18.125 C-17.59132813 17.40570313 -17.05765625 16.68640625 -16.5078125 15.9453125 C-15 14 -15 14 -13 12 C-12.3574765 9.93125966 -12.3574765 9.93125966 -12 8 C-14.64 8.33 -17.28 8.66 -20 9 C-16.29239754 2.82066256 -7.23210521 -2.89038219 0 0 Z " fill="#FAAC6E" transform="translate(340,230)"/>
<path d="M0 0 C0.87840996 3.09720845 0.99435406 4.90645403 0 8 C0.66 8.33 1.32 8.66 2 9 C1.38125 9.969375 0.7625 10.93875 0.125 11.9375 C-1.94002429 15.52220766 -2.79549886 18.90812562 -3.5703125 22.9453125 C-4.09125071 25.43634429 -5.0558511 27.63962775 -6 30 C-6.32825119 31.47575114 -6.63911162 32.95542218 -6.9375 34.4375 C-7.7523502 38.33714025 -9.14973126 41.46035545 -11 45 C-11.69907414 47.73572585 -11.69907414 47.73572585 -12 50 C-9.03 50.99 -6.06 51.98 -3 53 C-3 54.32 -3 55.64 -3 57 C-8.67276511 57.29341888 -11.99067246 57.00559652 -17 54 C-18.41051152 36.36860596 -7.58440165 15.56990147 0 0 Z " fill="#C7C6C7" transform="translate(49,301)"/>
<path d="M0 0 C0.70253906 0.00386719 1.40507812 0.00773438 2.12890625 0.01171875 C2.83144531 0.00785156 3.53398437 0.00398437 4.2578125 0 C9.50229247 0.01010497 9.50229247 0.01010497 10.62890625 1.13671875 C10.72865657 3.64807979 10.76772808 6.1257529 10.75390625 8.63671875 C10.75970703 9.69052734 10.75970703 9.69052734 10.765625 10.765625 C10.75552003 16.01010497 10.75552003 16.01010497 9.62890625 17.13671875 C7.11754521 17.23646907 4.6398721 17.27554058 2.12890625 17.26171875 C1.42636719 17.26558594 0.72382813 17.26945312 0 17.2734375 C-5.24447997 17.26333253 -5.24447997 17.26333253 -6.37109375 16.13671875 C-6.47084407 13.62535771 -6.50991558 11.1476846 -6.49609375 8.63671875 C-6.49996094 7.93417969 -6.50382813 7.23164063 -6.5078125 6.5078125 C-6.49578187 0.26391348 -6.24389902 0.01203063 0 0 Z " fill="#8EC45C" transform="translate(165.37109375,229.86328125)"/>
<path d="M0 0 C0.33 0 0.66 0 1 0 C2.39286062 11.10932205 1.62813242 21.437703 0.11791992 32.50927734 C-0.7281952 38.84521212 -1.13197379 44.94067111 -0.95727539 51.33496094 C-1.00030212 54.01884507 -1.43508398 56.38288422 -2 59 C-2.01867641 60.95835509 -1.9959729 62.91742896 -1.9375 64.875 C-1.88382509 69.70574154 -2.35441287 73.4746354 -4 78 C-4.66 77.67 -5.32 77.34 -6 77 C-6.36622356 50.86008915 -5.03004021 25.7103147 0 0 Z " fill="#CECDCF" transform="translate(85,278)"/>
<path d="M0 0 C5.65625 0.6484375 5.65625 0.6484375 8.75 3.8125 C12.72995294 9.45076667 13.61433695 13.1595944 13 20 C12 23.5625 12 23.5625 11 26 C9.55412923 25.68172656 8.11811133 25.31854002 6.6875 24.9375 C5.88699219 24.74027344 5.08648437 24.54304688 4.26171875 24.33984375 C1.52250476 22.71713149 0.58638446 20.97673554 -0.51489258 18.02124023 C-1.36326362 14.48643205 -1.058246 11.14856525 -0.6875 7.5625 C-0.5956543 6.46518555 -0.5956543 6.46518555 -0.50195312 5.34570312 C-0.35042975 3.56238958 -0.17745066 1.78092049 0 0 Z " fill="#F9AD7A" transform="translate(131,91)"/>
<path d="M0 0 C4.455 0.99 4.455 0.99 9 2 C9.20086443 5.71599191 9.1519437 6.77208445 7 10 C7.18102317 13.1032543 7.64204754 16.11402289 8.1015625 19.1875 C8 22 8 22 6.0234375 23.875 C5.02183594 24.431875 5.02183594 24.431875 4 25 C2.68445979 23.71142987 1.37265903 22.41904109 0.0625 21.125 C-1.03384766 20.04605469 -1.03384766 20.04605469 -2.15234375 18.9453125 C-4.32297866 16.65995058 -4.9190541 15.55313029 -5.375 12.4375 C-4.84518777 7.5808879 -2.54937284 4.09720635 0 0 Z " fill="#FEA567" transform="translate(40,243)"/>
<path d="M0 0 C2.97930844 2.50261909 3.87988832 4.98189547 5.125 8.625 C10.56139389 23.21319306 18.94124912 36.44675889 26.890625 49.76953125 C30.68353198 56.12924983 34.35827171 62.55271064 38 69 C42.02854781 68.435339 46.01977172 67.84429085 50 67 C50 67.66 50 68.32 50 69 C41.68536886 72.99102295 41.68536886 72.99102295 37 72 C34.56862599 69.27019313 32.92764655 66.13745854 31.1875 62.9375 C30.13176487 61.08449042 29.07577335 59.23162689 28.01953125 57.37890625 C27.50600098 56.45996582 26.9924707 55.54102539 26.46337891 54.59423828 C24.85266807 51.73881397 23.16979147 48.93689654 21.45727539 46.1418457 C13.93157471 33.85592288 6.56917156 21.30738888 1 8 C0.67 8 0.34 8 0 8 C0 5.36 0 2.72 0 0 Z " fill="#6F10F3" transform="translate(319,285)"/>
<path d="M0 0 C0.33 0 0.66 0 1 0 C1.9924636 7.51436725 2.28876779 15.0119156 2.50268555 22.58178711 C2.56188955 24.66600952 2.62716515 26.74997353 2.69335938 28.83398438 C2.77754493 31.55630623 2.84993157 34.27851928 2.91064453 37.00146484 C2.95555022 39.01093312 3.00067165 41.02046913 3.06658936 43.02935791 C3.1300115 44.96317383 3.17281862 46.89763205 3.21484375 48.83203125 C3.24570068 49.94940674 3.27655762 51.06678223 3.30834961 52.21801758 C3 55 3 55 1.48657227 56.88549805 C0.99600342 57.25328369 0.50543457 57.62106934 0 58 C-0.99 57.67 -1.98 57.34 -3 57 C-2.42894162 37.96007802 -1.37011479 18.99613296 0 0 Z " fill="#8546E4" transform="translate(112,186)"/>
<path d="M0 0 C21.12 0 42.24 0 64 0 C64 0.99 64 1.98 64 3 C42.88 3 21.76 3 0 3 C0 2.01 0 1.02 0 0 Z " fill="#EDF1F5" transform="translate(180,234)"/>
<path d="M0 0 C2.96909598 3.27301919 3.34354794 5.38065762 3.1875 9.75 C3.16042969 10.73484375 3.13335937 11.7196875 3.10546875 12.734375 C3.07066406 13.48203125 3.03585938 14.2296875 3 15 C0.92227529 15.86772029 -1.16243177 16.71873619 -3.25 17.5625 C-4.41015625 18.03816406 -5.5703125 18.51382813 -6.765625 19.00390625 C-9.86266644 19.95770524 -11.07321701 20.20983356 -14 19 C-13.34 19 -12.68 19 -12 19 C-11.87044922 18.14728516 -11.87044922 18.14728516 -11.73828125 17.27734375 C-10.69329672 11.53472232 -9.06818104 7.26465569 -5 3 C-2.1875 1.0625 -2.1875 1.0625 0 0 Z " fill="#E6EBFD" transform="translate(77,140)"/>
<path d="M0 0 C1.32 0.66 2.64 1.32 4 2 C3.45687505 12.74815691 2.47231696 23.33720453 1 34 C0.896875 35.22589844 0.79375 36.45179688 0.6875 37.71484375 C-0.08542197 41.40818113 -1.10760376 42.66742239 -4 45 C-4.02738672 42.83340626 -4.04656832 40.66670825 -4.0625 38.5 C-4.07410156 37.2934375 -4.08570313 36.086875 -4.09765625 34.84375 C-4.01334455 31.52524158 -3.69804287 28.34303283 -3.24731445 25.05761719 C-2.73403475 20.78721109 -2.63912871 16.47574806 -2.48242188 12.1796875 C-2.27179835 7.79235967 -1.61360331 4.14179958 0 0 Z " fill="#803AE6" transform="translate(139,116)"/>
<path d="M0 0 C2.28714849 3.43072273 2.66552786 6.34055906 3.25 10.3125 C4.56742433 18.55138545 6.6427226 26.49279148 8.93066406 34.51098633 C11.0132077 41.83247037 12.13125851 48.38700619 12 56 C15.63 56 19.26 56 23 56 C23 56.33 23 56.66 23 57 C18.71 57 14.42 57 10 57 C8.25992916 53.51985833 7.50948769 51.21417412 6.81640625 47.4765625 C6.61233154 46.38287354 6.40825684 45.28918457 6.19799805 44.16235352 C5.98828369 42.99502686 5.77856934 41.8277002 5.5625 40.625 C5.34440674 39.42866943 5.12631348 38.23233887 4.90161133 36.99975586 C0 9.62078137 0 9.62078137 0 0 Z " fill="#0E0E86" transform="translate(295,305)"/>
<path d="M0 0 C0 4.29 0 8.58 0 13 C-4.01961161 15.00980581 -5.53192372 15.23947017 -9.859375 15.1953125 C-10.97441406 15.18886719 -12.08945312 15.18242187 -13.23828125 15.17578125 C-14.39714844 15.15902344 -15.55601562 15.14226562 -16.75 15.125 C-17.92433594 15.11597656 -19.09867187 15.10695312 -20.30859375 15.09765625 C-23.20593536 15.07410063 -26.10286441 15.04120652 -29 15 C-29 14.67 -29 14.34 -29 14 C-28.28972656 13.95101562 -27.57945312 13.90203125 -26.84765625 13.8515625 C-25.46900391 13.73941406 -25.46900391 13.73941406 -24.0625 13.625 C-23.14597656 13.55539063 -22.22945313 13.48578125 -21.28515625 13.4140625 C-20.15400391 13.20910156 -20.15400391 13.20910156 -19 13 C-18.67 12.34 -18.34 11.68 -18 11 C-16.48439274 10.19864444 -14.93655736 9.45765439 -13.375 8.75 C-10.21058869 7.22908495 -2.74829271 0 0 0 Z " fill="#E0B909" transform="translate(344,240)"/>
<path d="M0 0 C3.96 0 7.92 0 12 0 C12.09765625 9.27734375 12.09765625 9.27734375 12 12 C11 13 11 13 8.75 13.1328125 C7.8425 13.13023437 6.935 13.12765625 6 13.125 C4.63875 13.12886719 4.63875 13.12886719 3.25 13.1328125 C1 13 1 13 0 12 C-0.14355117 7.99779347 -0.04216403 4.00558317 0 0 Z " fill="#EDEEF4" transform="translate(174,194)"/>
<path d="M0 0 C0.33 0 0.66 0 1 0 C1.29479816 10.39982383 0.7821937 20.68659167 0.0625 31.0625 C-0.02435059 32.32280029 -0.11120117 33.58310059 -0.20068359 34.8815918 C-0.61597217 40.62539359 -1.06255344 46.31620239 -2 52 C-2.99 51.67 -3.98 51.34 -5 51 C-5.58270901 33.71296609 -3.57176139 16.90969962 0 0 Z " fill="#8A43F3" transform="translate(44,191)"/>
<path d="M0 0 C4.27223816 4.74693129 9 11.43426891 9 18 C6.84765625 19.82421875 6.84765625 19.82421875 4.0625 21.6875 C3.14597656 22.31011719 2.22945313 22.93273437 1.28515625 23.57421875 C-1 25 -1 25 -2 25 C-1.86155153 21.20802551 -1.71299256 17.4165141 -1.5625 13.625 C-1.52318359 12.54476562 -1.48386719 11.46453125 -1.44335938 10.3515625 C-1.40146484 9.3203125 -1.35957031 8.2890625 -1.31640625 7.2265625 C-1.27974854 6.27346191 -1.24309082 5.32036133 -1.20532227 4.33837891 C-1 2 -1 2 0 0 Z " fill="#FEFBF0" transform="translate(348,198)"/>
<path d="M0 0 C3.96 0 7.92 0 12 0 C12 3.96 12 7.92 12 12 C8.04 12 4.08 12 0 12 C0 8.04 0 4.08 0 0 Z " fill="#F1F1F4" transform="translate(214,194)"/>
<path d="M0 0 C3.96 0 7.92 0 12 0 C12 3.96 12 7.92 12 12 C8.04 12 4.08 12 0 12 C0 8.04 0 4.08 0 0 Z " fill="#F2F1F4" transform="translate(194,194)"/>
<path d="M0 0 C3.96 0 7.92 0 12 0 C12 3.96 12 7.92 12 12 C8.04 12 4.08 12 0 12 C0 8.04 0 4.08 0 0 Z " fill="#F2F1F4" transform="translate(214,171)"/>
<path d="M0 0 C3.96 0 7.92 0 12 0 C12 3.96 12 7.92 12 12 C8.04 12 4.08 12 0 12 C0 8.04 0 4.08 0 0 Z " fill="#F2F1F4" transform="translate(194,171)"/>
<path d="M0 0 C3.96 0 7.92 0 12 0 C12 3.96 12 7.92 12 12 C8.04 12 4.08 12 0 12 C0 8.04 0 4.08 0 0 Z " fill="#F2F1F4" transform="translate(174,171)"/>
<path d="M0 0 C0.66 0 1.32 0 2 0 C1.5631408 8.56052011 0.13854699 16.47692314 -2.0625 24.75 C-2.34416016 25.84054688 -2.62582031 26.93109375 -2.91601562 28.0546875 C-3.60197875 30.70552803 -4.29669988 33.35371695 -5 36 C-6.65 36 -8.3 36 -10 36 C-9.44583844 28.83053481 -7.35492331 22.51834601 -5 15.75 C-4.26963741 13.6202014 -3.5404223 11.49000887 -2.8125 9.359375 C-2.48894531 8.42577148 -2.16539063 7.49216797 -1.83203125 6.53027344 C-1.1197364 4.36412796 -0.51556273 2.21978397 0 0 Z " fill="#611EC4" transform="translate(56,208)"/>
<path d="M0 0 C0.495 1.485 0.495 1.485 1 3 C3.45873768 2.85941524 5.91685175 2.71277001 8.375 2.5625 C9.42300781 2.50352539 9.42300781 2.50352539 10.4921875 2.44335938 C14.37360492 2.25719866 14.37360492 2.25719866 18 1 C19.4509942 0.98400564 20.90308507 1.0341851 22.3515625 1.12109375 C23.20234375 1.16943359 24.053125 1.21777344 24.9296875 1.26757812 C25.81914062 1.32365234 26.70859375 1.37972656 27.625 1.4375 C28.5221875 1.48970703 29.419375 1.54191406 30.34375 1.59570312 C32.56284012 1.7255435 34.78149871 1.86051339 37 2 C37 2.66 37 3.32 37 4 C6.31 4 -24.38 4 -56 4 C-56 3.67 -56 3.34 -56 3 C-50.91789236 2.85433203 -45.83570257 2.71211146 -40.75341797 2.57275391 C-39.03334098 2.52514264 -37.31328746 2.47667403 -35.59326172 2.42724609 C-23.72526851 2.0869701 -11.87282795 1.93538597 0 2 C0 1.34 0 0.68 0 0 Z " fill="#D1BCF1" transform="translate(342,375)"/>
<path d="M0 0 C14.19 0 28.38 0 43 0 C43 0.99 43 1.98 43 3 C28.81 3 14.62 3 0 3 C0 2.01 0 1.02 0 0 Z " fill="#F4F4F6" transform="translate(180,240)"/>
<path d="M0 0 C5.28 0 10.56 0 16 0 C15 6 15 6 13 7.9375 C8.87776992 9.39745649 5.21496338 9.10135585 1 8 C0.34 7.34 -0.32 6.68 -1 6 C-0.67 4.02 -0.34 2.04 0 0 Z " fill="#F69C62" transform="translate(82,359)"/>
<path d="M0 0 C0.33 0 0.66 0 1 0 C2.60745601 13.34382156 1.07306052 25.77967774 -1 39 C-1.33 39 -1.66 39 -2 39 C-2.33 36.03 -2.66 33.06 -3 30 C-3.33 30 -3.66 30 -4 30 C-3.53571062 19.75361366 -2.07002769 10.02466238 0 0 Z " fill="#D3D3D5" transform="translate(85,278)"/>
<path d="M0 0 C0.99 0.33 1.98 0.66 3 1 C3.16435547 1.96486328 3.16435547 1.96486328 3.33203125 2.94921875 C4.46110755 9.38403572 5.84049831 15.71369121 7.4140625 22.0546875 C7.95999377 24.79890201 8.11312397 27.21303679 8 30 C7.34 30 6.68 30 6 30 C-1.83388704 7.57475083 -1.83388704 7.57475083 0 0 Z " fill="#F8CF0C" transform="translate(276,116)"/>
<path d="M0 0 C0.87840996 3.09720845 0.99435406 4.90645403 0 8 C0.66 8.33 1.32 8.66 2 9 C1.38125 9.969375 0.7625 10.93875 0.125 11.9375 C-1.93067329 15.49873683 -2.80635923 18.85694129 -3.5078125 22.88671875 C-4.04294165 25.18437645 -4.79167919 26.97584214 -6 29 C-6.66 29.33 -7.32 29.66 -8 30 C-7.67 27.69 -7.34 25.38 -7 23 C-7.66 23 -8.32 23 -9 23 C-6.91147495 14.88406495 -3.64670147 7.52943541 0 0 Z " fill="#CDCDCF" transform="translate(49,301)"/>
<path d="M0 0 C2.63329292 3.03248893 3.35596719 4.9465909 3.5 8.9375 C3.77598937 13.33571364 4.48533275 17.35140155 5.5625 21.625 C6.87121273 26.94243957 7.27755116 31.54149389 7 37 C3.72461669 34.81641113 3.33282546 33.79661144 2.41113281 30.10888672 C1.63355227 26.12032335 1.24508582 22.10614257 0.875 18.0625 C0.78863281 17.20720703 0.70226562 16.35191406 0.61328125 15.47070312 C0.11520537 10.28834214 -0.08444662 5.20553096 0 0 Z " fill="#0D0B44" transform="translate(291,248)"/>
<path d="M0 0 C0.99 0.495 0.99 0.495 2 1 C3.03429978 7.75377207 3.29320409 14.55357412 3.5625 21.375 C3.6049585 22.41269531 3.64741699 23.45039063 3.69116211 24.51953125 C4.05221457 34.01586485 4.10084149 43.49849105 4 53 C3.67 53 3.34 53 3 53 C1.1768526 35.37034166 -0.32453707 17.74135985 0 0 Z " fill="#2421FE" transform="translate(289,246)"/>
<path d="M0 0 C2.2939715 3.44095725 2.82022333 6.51515006 3.5 10.5 C3.62818115 11.21470459 3.7563623 11.92940918 3.88842773 12.66577148 C4.26592731 14.77602493 4.63452638 16.88763424 5 19 C6.21119706 26.2224421 6.21119706 26.2224421 8 33.3125 C9.80265887 39.95980457 11 47.10002165 11 54 C10.34 54 9.68 54 9 54 C8.81824219 52.75605469 8.63648438 51.51210938 8.44921875 50.23046875 C6.96906105 39.76227473 6.96906105 39.76227473 4.5 29.5 C2.99113385 24.43851248 2.13668981 19.33309464 1.3125 14.125 C1.18101562 13.30322266 1.04953125 12.48144531 0.9140625 11.63476562 C0.31610274 7.72230846 -0.16882713 3.97145733 0 0 Z " fill="#121262" transform="translate(298,307)"/>
<path d="M0 0 C2.475 0.99 2.475 0.99 5 2 C4.54625 2.56203125 4.0925 3.1240625 3.625 3.703125 C1.98731051 6.01793611 1.00950638 8.10845831 0 10.75 C-0.33515625 11.61882812 -0.6703125 12.48765625 -1.015625 13.3828125 C-1.34046875 14.24648437 -1.6653125 15.11015625 -2 16 C-2.45632813 17.20269531 -2.45632813 17.20269531 -2.921875 18.4296875 C-3.62133801 20.28392434 -4.31170016 22.14159044 -5 24 C-5.66 24 -6.32 24 -7 24 C-8.09644404 18.05542387 -8.41029848 14.32006564 -5 9 C-4.01 10.485 -4.01 10.485 -3 12 C-2.01 8.04 -1.02 4.08 0 0 Z " fill="#F5BD95" transform="translate(280,88)"/>
<path d="M0 0 C0.66 0 1.32 0 2 0 C1.9278125 0.92941406 1.855625 1.85882813 1.78125 2.81640625 C1.6884375 4.05261719 1.595625 5.28882813 1.5 6.5625 C1.4071875 7.78066406 1.314375 8.99882812 1.21875 10.25390625 C1.00897272 13.84634216 0.96295985 17.40247543 1 21 C-4.77167019 16.5602537 -4.77167019 16.5602537 -5.375 12.4375 C-4.84518777 7.5808879 -2.54937284 4.09720635 0 0 Z " fill="#F4B991" transform="translate(40,243)"/>
<path d="M0 0 C2.37572411 3.56358617 2.68698287 6.6027783 3.125 10.75 C3.20991699 11.52263184 3.29483398 12.29526367 3.38232422 13.09130859 C4.38827051 23.36734349 4.17926001 33.68841249 4 44 C3.67 44 3.34 44 3 44 C2.91697632 43.08504761 2.91697632 43.08504761 2.83227539 42.15161133 C2.57844684 39.37164727 2.32051225 36.59207876 2.0625 33.8125 C1.97548828 32.85279297 1.88847656 31.89308594 1.79882812 30.90429688 C1.71181641 29.97294922 1.62480469 29.04160156 1.53515625 28.08203125 C1.41732788 26.80162964 1.41732788 26.80162964 1.29711914 25.49536133 C1.03396862 22.98060035 1.03396862 22.98060035 0.47265625 20.45898438 C0.01756746 18.09139437 -0.11496289 15.97984206 -0.09765625 13.57421875 C-0.09443359 12.77822266 -0.09121094 11.98222656 -0.08789062 11.16210938 C-0.07951172 10.34548828 -0.07113281 9.52886719 -0.0625 8.6875 C-0.05798828 7.85154297 -0.05347656 7.01558594 -0.04882812 6.15429688 C-0.03710548 4.10283351 -0.01917203 2.05140727 0 0 Z " fill="#100CE5" transform="translate(317,277)"/>
<path d="M0 0 C1.485 0.99 1.485 0.99 3 2 C3.11462058 4.48447856 3.04637557 6.66742274 2.8125 9.125 C2.75715088 9.82625 2.70180176 10.5275 2.64477539 11.25 C2.00748789 18.86021143 1.03612824 26.43525791 0 34 C-0.33 34 -0.66 34 -1 34 C-1.02926019 29.83334831 -1.04688594 25.66672341 -1.0625 21.5 C-1.07087891 20.32695312 -1.07925781 19.15390625 -1.08789062 17.9453125 C-1.10497844 11.86205118 -0.94502752 6.01245856 0 0 Z " fill="#9E62F7" transform="translate(140,116)"/>
<path d="M0 0 C0.33 0 0.66 0 1 0 C1 10.89 1 21.78 1 33 C2.98 33.33 4.96 33.66 7 34 C6.04737966 35.48285242 5.08771595 36.96118201 4.125 38.4375 C3.59132813 39.26121094 3.05765625 40.08492187 2.5078125 40.93359375 C1 43 1 43 -1 44 C-0.67 29.48 -0.34 14.96 0 0 Z " fill="#B7ABD0" transform="translate(61,214)"/>
<path d="M0 0 C0.33 0 0.66 0 1 0 C1.04898437 0.76441406 1.09796875 1.52882812 1.1484375 2.31640625 C1.57600375 8.44239858 2.17719956 14.48469275 3.0625 20.5625 C3.97832742 27.08861835 4.22058098 33.419334 4 40 C3.67 40 3.34 40 3 40 C1.3418544 32.62654402 0.5571804 25.20138906 -0.125 17.6875 C-0.21249512 16.73278809 -0.29999023 15.77807617 -0.39013672 14.79443359 C-1.21320452 5.35647905 -1.21320452 5.35647905 -1 1 C-0.67 0.67 -0.34 0.34 0 0 Z " fill="#7812F9" transform="translate(344,252)"/>
<path d="M0 0 C0.99 0 1.98 0 3 0 C3.31516432 5.98812202 2.55935967 9.47178312 0 15 C-0.39764263 16.98821313 -0.75455166 18.98732362 -1 21 C-1.66 21 -2.32 21 -3 21 C-3.33 22.32 -3.66 23.64 -4 25 C-3.49451662 16.45907394 -1.93265709 8.32622708 0 0 Z " fill="#D6D6D8" transform="translate(60,259)"/>
<path d="M0 0 C0.99 0 1.98 0 3 0 C2.34 7.26 1.68 14.52 1 22 C0.34 21.67 -0.32 21.34 -1 21 C-2.22880122 14.32173252 -2.25595072 7.65653884 -1 1 C-0.67 0.67 -0.34 0.34 0 0 Z " fill="#F8AD79" transform="translate(42,244)"/>
<path d="M0 0 C5.28 0 10.56 0 16 0 C15.67 0.99 15.34 1.98 15 3 C15 2.34 15 1.68 15 1 C11.6365731 1.02649222 11.6365731 1.02649222 8 2 C5.52351923 4.92043703 5.52351923 4.92043703 4 8 C2.35 7.67 0.7 7.34 -1 7 C-0.67 4.69 -0.34 2.38 0 0 Z " fill="#F2B186" transform="translate(82,359)"/>
<path d="M0 0 C2.44073677 3.66110516 2.8837413 7.12288198 3.5625 11.375 C3.8133848 12.88288199 4.06467673 14.3906963 4.31640625 15.8984375 C4.43266357 16.61459229 4.5489209 17.33074707 4.66870117 18.06860352 C4.92997932 19.5917954 5.24782141 21.10528347 5.5859375 22.61328125 C6.12246577 25.70591117 6.09417927 28.67625194 6.0625 31.8125 C6.05347656 32.97394531 6.04445313 34.13539063 6.03515625 35.33203125 C6.02355469 36.21246094 6.01195312 37.09289062 6 38 C5.67 38 5.34 38 5 38 C0.4308534 12.23623663 0.4308534 12.23623663 0 0 Z " fill="#0C0C99" transform="translate(295,305)"/>
<path d="M0 0 C4.37934119 0.51958285 8.68803391 1.05675742 13 2 C13 3.32 13 4.64 13 6 C7.32723489 6.29341888 4.00932754 6.00559652 -1 3 C-0.67 2.01 -0.34 1.02 0 0 Z " fill="#F4AA7A" transform="translate(33,352)"/>
<path d="M0 0 C0.66 0 1.32 0 2 0 C1.39297368 6.6772895 -0.77631394 12.70127996 -3 19 C-3.99 18.67 -4.98 18.34 -6 18 C-4.83805848 11.53287812 -2.8751252 5.90377651 0 0 Z " fill="#C3C3C4" transform="translate(40,324)"/>
<path d="M0 0 C0.66 0 1.32 0 2 0 C1.53752467 7.19270839 0.74922933 14.0030827 -1 21 C-1.99 21 -2.98 21 -4 21 C-3.59248958 13.60860415 -2.41492814 7.00177279 0 0 Z " fill="#6526C3" transform="translate(56,208)"/>
<path d="M0 0 C0.33 0 0.66 0 1 0 C0.48914188 6.43681228 -0.72942897 11.95942424 -3 18 C-3.66 18 -4.32 18 -5 18 C-5.33 20.64 -5.66 23.28 -6 26 C-8 23 -8 23 -7.6796875 20.87109375 C-7.41414063 20.06800781 -7.14859375 19.26492187 -6.875 18.4375 C-6.58625 17.55835937 -6.2975 16.67921875 -6 15.7734375 C-4.70744339 12.18861252 -3.32517338 8.64954657 -1.8671875 5.12890625 C-1.18083035 3.44393037 -0.57534597 1.7260379 0 0 Z " fill="#F8AF7C" transform="translate(282,91)"/>
<path d="M0 0 C0.33 0.99 0.66 1.98 1 3 C-4.01416766 5.18566282 -8.74958075 5.56462494 -14 4 C-14.66 3.01 -15.32 2.02 -16 1 C-13.89594609 0.83191581 -11.79175242 0.66558052 -9.6875 0.5 C-8.51574219 0.4071875 -7.34398437 0.314375 -6.13671875 0.21875 C-4.094806 0.07635011 -2.0468721 0 0 0 Z " fill="#EA9C70" transform="translate(321,363)"/>
<path d="M0 0 C-6 6 -6 6 -9.5625 6.0625 C-10.696875 6.041875 -11.83125 6.02125 -13 6 C-13.33 6.99 -13.66 7.98 -14 9 C-14 7.02 -14 5.04 -14 3 C-12.23358317 2.3012307 -10.46167336 1.61633417 -8.6875 0.9375 C-7.20830078 0.36322266 -7.20830078 0.36322266 -5.69921875 -0.22265625 C-3 -1 -3 -1 0 0 Z " fill="#995982" transform="translate(373,354)"/>
<path d="M0 0 C0.99 0.495 0.99 0.495 2 1 C3.21883656 8.31301936 3.10289063 15.60330657 3 23 C2.34 22.67 1.68 22.34 1 22 C-0.57933493 14.8929928 -0.1118508 7.2330187 0 0 Z " fill="#1410F2" transform="translate(289,246)"/>
<path d="M0 0 C1.32 0 2.64 0 4 0 C4.696553 1.95513161 5.38199565 3.91422476 6.0625 5.875 C6.44535156 6.96554688 6.82820313 8.05609375 7.22265625 9.1796875 C8 12 8 12 7 14 C2.42620106 9.88358095 1.02388817 5.97268102 0 0 Z " fill="#FDE25E" transform="translate(283,114)"/>
<path d="M0 0 C1.99609375 0.0859375 1.99609375 0.0859375 4.4375 0.375 C5.64212891 0.51035156 5.64212891 0.51035156 6.87109375 0.6484375 C9 1 9 1 11 2 C11 2.66 11 3.32 11 4 C11.66 4.33 12.32 4.66 13 5 C6.25 5.125 6.25 5.125 4 4 C4 3.34 4 2.68 4 2 C2.35 2.66 0.7 3.32 -1 4 C-1 1 -1 1 0 0 Z " fill="#E2966F" transform="translate(324,127)"/>
<path d="M0 0 C1.3805087 3.76668598 0.59568159 6.44789173 -0.4375 10.25 C-0.72496094 11.32765625 -1.01242188 12.4053125 -1.30859375 13.515625 C-1.53675781 14.33546875 -1.76492187 15.1553125 -2 16 C-2.99 16 -3.98 16 -5 16 C-4.49228528 10.03435204 -2.61407872 5.36190101 0 0 Z " fill="#4F15A4" transform="translate(53,228)"/>
<path d="M0 0 C0.99 0 1.98 0 3 0 C1.99667352 5.94074887 0.69087294 10.20186518 -3 15 C-4.28497537 11.14507389 -3.4052209 9.59653164 -2.0625 5.8125 C-1.68222656 4.72582031 -1.30195312 3.63914062 -0.91015625 2.51953125 C-0.60980469 1.68808594 -0.30945312 0.85664063 0 0 Z " fill="#CFCFD1" transform="translate(40,331)"/>
<path d="M0 0 C1.32 0.66 2.64 1.32 4 2 C3.67 3.65 3.34 5.3 3 7 C1.35 6.67 -0.3 6.34 -2 6 C-1.125 1.125 -1.125 1.125 0 0 Z " fill="#E2E7F4" transform="translate(179,152)"/>
<path d="M0 0 C2.475 0.99 2.475 0.99 5 2 C4.67 3.98 4.34 5.96 4 8 C2.68 8 1.36 8 0 8 C0 5.36 0 2.72 0 0 Z " fill="#F8AD7B" transform="translate(81,147)"/>
<path d="M0 0 C0.66 0.33 1.32 0.66 2 1 C1.38125 1.61875 0.7625 2.2375 0.125 2.875 C-2.38607962 6.56776415 -2.87621524 9.53389285 -3.5078125 13.890625 C-3.67023437 14.58671875 -3.83265625 15.2828125 -4 16 C-4.66 16.33 -5.32 16.66 -6 17 C-7.30249153 13.40144968 -6.69931441 11.41900527 -5.25 7.9375 C-4.73179688 6.65166016 -4.73179688 6.65166016 -4.203125 5.33984375 C-3.03735083 3.07264009 -1.90347394 1.66827457 0 0 Z " fill="#D9D9DC" transform="translate(56,287)"/>
<path d="M0 0 C1.65 0 3.3 0 5 0 C5.33 1.65 5.66 3.3 6 5 C4.34385343 5.38218767 2.67542976 5.71395102 1 6 C0 5 0 5 -0.0625 2.4375 C-0.041875 1.633125 -0.02125 0.82875 0 0 Z " fill="#E4E8F4" transform="translate(219,153)"/>
<path d="M0 0 C1.65 0 3.3 0 5 0 C5.33 1.65 5.66 3.3 6 5 C4.34385343 5.38218767 2.67542976 5.71395102 1 6 C0 5 0 5 -0.0625 2.4375 C-0.041875 1.633125 -0.02125 0.82875 0 0 Z " fill="#E4E8F5" transform="translate(198,153)"/>
<path d="M0 0 C0.66 0.33 1.32 0.66 2 1 C5.86061033 2.28687011 8.94150283 2.13757618 13 2 C12.67 2.99 12.34 3.98 12 5 C6.32723489 5.29341888 3.00932754 5.00559652 -2 2 C-1.34 1.34 -0.68 0.68 0 0 Z " fill="#461370" transform="translate(305,365)"/>
<path d="M0 0 C0 0.66 0 1.32 0 2 C-4.62197306 4.21854707 -7.76824163 5.38281159 -13 5 C-12.67 4.01 -12.34 3.02 -12 2 C-10.906875 1.855625 -9.81375 1.71125 -8.6875 1.5625 C-5.72342963 1.11035367 -2.96373429 0 0 0 Z " fill="#6D06EB" transform="translate(369,352)"/>
<path d="M0 0 C0.98120464 3.05263664 0.98120464 4.94736336 0 8 C0.66 8.33 1.32 8.66 2 9 C0.68 10.65 -0.64 12.3 -2 14 C-3.10643764 8.16605611 -3.27137992 5.23420787 0 0 Z " fill="#D3D3D5" transform="translate(49,301)"/>
<path d="M0 0 C0.66 0 1.32 0 2 0 C2.90413673 3.83724172 3.10576898 7.37502274 3.0625 11.3125 C3.05347656 12.38113281 3.04445313 13.44976562 3.03515625 14.55078125 C3.02355469 15.35902344 3.01195312 16.16726563 3 17 C2.67 17 2.34 17 2 17 C-0.29612756 5.47835991 -0.29612756 5.47835991 0 0 Z " fill="#6707E5" transform="translate(345,275)"/>
<path d="M0 0 C0.33 0 0.66 0 1 0 C1.10823773 2.24893954 1.18569645 4.49937575 1.25 6.75 C1.29640625 8.00296875 1.3428125 9.2559375 1.390625 10.546875 C1 14 1 14 -1.015625 16.453125 C-1.67046875 16.96359375 -2.3253125 17.4740625 -3 18 C-3 16.02 -3 14.04 -3 12 C-2.34 11.67 -1.68 11.34 -1 11 C-0.5316735 8.41394668 -0.5316735 8.41394668 -0.375 5.4375 C-0.30023438 4.42558594 -0.22546875 3.41367188 -0.1484375 2.37109375 C-0.09945312 1.58863281 -0.05046875 0.80617187 0 0 Z " fill="#8D4DEE" transform="translate(138,143)"/>
<path d="M0 0 C0.33 0 0.66 0 1 0 C2.33333333 5.33333333 3.66666667 10.66666667 5 16 C2 15 2 15 0.8125 13.0625 C-0.3447237 8.70065683 -0.15679528 4.4860872 0 0 Z " fill="#8224F9" transform="translate(348,284)"/>
<path d="M0 0 C1.65 0 3.3 0 5 0 C5 0.99 5 1.98 5 3 C2.5 5.1875 2.5 5.1875 0 7 C0 4.69 0 2.38 0 0 Z " fill="#6626C2" transform="translate(131,114)"/>
<path d="M0 0 C1.25664978 2.90600261 2 4.79604584 2 8 C-0.81939117 5.79020692 -3.53058944 3.59937954 -6 1 C-4 0 -4 0 0 0 Z " fill="#FCDA40" transform="translate(283,114)"/>
<path d="M0 0 C0.78375 0.04125 1.5675 0.0825 2.375 0.125 C1.39933888 1.29459987 0.419375 2.46061177 -0.5625 3.625 C-1.10777344 4.2746875 -1.65304687 4.924375 -2.21484375 5.59375 C-2.68019531 6.0990625 -3.14554687 6.604375 -3.625 7.125 C-3.955 7.125 -4.285 7.125 -4.625 7.125 C-4.75 4.75 -4.75 4.75 -4.625 2.125 C-2.625 0.125 -2.625 0.125 0 0 Z " fill="#CD6927" transform="translate(323.625,116.875)"/>
<path d="M0 0 C0.33 0 0.66 0 1 0 C0.67 3.96 0.34 7.92 0 12 C-2.8290723 9.1709277 -3.37611108 8.61855575 -4 5 C-3.01 5.495 -3.01 5.495 -2 6 C-1.34 4.02 -0.68 2.04 0 0 Z " fill="#DADADC" transform="translate(86,289)"/>
<path d="M0 0 C0.99 0 1.98 0 3 0 C3.25 2.25 3.25 2.25 3 5 C1 7.3125 1 7.3125 -1 9 C-0.67 6.03 -0.34 3.06 0 0 Z " fill="#C9C9CB" transform="translate(60,259)"/>
<path d="M0 0 C0.99 0.33 1.98 0.66 3 1 C-0.465 3.97 -0.465 3.97 -4 7 C-4.66 6.34 -5.32 5.68 -6 5 C-1.60546875 0.99609375 -1.60546875 0.99609375 0 0 Z " fill="#7132CD" transform="translate(61,160)"/>
<path d="M0 0 C2.31 0 4.62 0 7 0 C7 1.65 7 3.3 7 5 C6.67 4.34 6.34 3.68 6 3 C3.67843403 2.59270772 1.3431213 2.25561323 -1 2 C-0.67 1.34 -0.34 0.68 0 0 Z " fill="#55177E" transform="translate(38,358)"/>
<path d="M0 0 C2.76223278 2.76223278 2.57856291 5.20706617 3 9 C1.02 9.99 1.02 9.99 -1 11 C-1 10.01 -1 9.02 -1 8 C-0.34 8 0.32 8 1 8 C0.67 7.34 0.34 6.68 0 6 C-0.039992 4.00039988 -0.04346799 1.99952758 0 0 Z " fill="#8325F5" transform="translate(370,343)"/>
<path d="M0 0 C0.99 0.33 1.98 0.66 3 1 C3.33 3.31 3.66 5.62 4 8 C3.01 8.495 3.01 8.495 2 9 C1.34 6.03 0.68 3.06 0 0 Z " fill="#E8C51F" transform="translate(366,199)"/>
<path d="M0 0 C0.99 0.33 1.98 0.66 3 1 C1.70700306 3.88437779 0.34058637 5.87219421 -2 8 C-1.125 2.25 -1.125 2.25 0 0 Z " fill="#6524C5" transform="translate(54,166)"/>
<path d="M0 0 C2.1387261 3.20808915 2.47730962 4.27698497 2 8 C1.01 8.66 0.02 9.32 -1 10 C-1.125 2.25 -1.125 2.25 0 0 Z " fill="#F6C7A6" transform="translate(131,97)"/>
<path d="M0 0 C0.99 0 1.98 0 3 0 C6.125 5.5 6.125 5.5 5 10 C3.35 6.7 1.7 3.4 0 0 Z " fill="#7614F6" transform="translate(335,321)"/>
<path d="M0 0 C0.66 0.66 1.32 1.32 2 2 C1.96712417 4.72869407 1.43602229 7.2966618 1 10 C0.01 10 -0.98 10 -2 10 C-1.34 6.7 -0.68 3.4 0 0 Z " fill="#652DB9" transform="translate(54,219)"/>
<path d="M0 0 C-2.8125 2.0625 -2.8125 2.0625 -6 4 C-6.99 3.67 -7.98 3.34 -9 3 C-6.07868595 -0.19953443 -4.37453972 -1.45817991 0 0 Z " fill="#5C13C8" transform="translate(124,169)"/>
<path d="M0 0 C0.99 0.33 1.98 0.66 3 1 C3.33 3.97 3.66 6.94 4 10 C1.81024227 6.71536341 1.00193437 3.79303725 0 0 Z " fill="#6F0DEE" transform="translate(351,300)"/>
<path d="M0 0 C0.99 0.33 1.98 0.66 3 1 C3 3.97 3 6.94 3 10 C2.67 10 2.34 10 2 10 C0.68373308 6.38026598 0 3.90432869 0 0 Z " fill="#E4DDD8" transform="translate(79,355)"/>
<path d="M0 0 C2.94956528 1.36944102 5.52468811 2.87830409 8 5 C8 5.66 8 6.32 8 7 C4.2047869 5.50902342 2.38957269 3.24299151 0 0 Z " fill="#EDCC2A" transform="translate(292,159)"/>
</svg>
