<?xml version="1.0" encoding="UTF-8"?>
<svg version="1.1" xmlns="http://www.w3.org/2000/svg" width="394" height="438">
<path d="M0 0 C130.02 0 260.04 0 394 0 C394 144.54 394 289.08 394 438 C263.98 438 133.96 438 0 438 C0 293.46 0 148.92 0 0 Z " fill="#FEFDFD" transform="translate(0,0)"/>
<path d="M0 0 C2.46800047 1.15173355 4.04783565 2.04783565 6 4 C6.1727879 6.50103166 6.23243482 8.87757 6.1875 11.375 C6.18685547 12.04789062 6.18621094 12.72078125 6.18554688 13.4140625 C6.13978687 18.57985845 6.13978687 18.57985845 5.30078125 21.1015625 C4.81161712 24.18901402 6.57010525 26.29945632 8 29 C8.69481272 31.27729491 9.33953087 33.57038078 9.9375 35.875 C12.50138662 44.96340407 14.18239752 50.59840345 22.4921875 55.6171875 C30.84948069 60.35019888 30.84948069 60.35019888 40 63 C39.03223902 59.20452079 39.03223902 59.20452079 37 56 C36.80411816 50.61324948 37.20874032 45.44634259 37.87890625 40.1015625 C38.17833949 37.94174123 38.17833949 37.94174123 37 36 C36.90500497 34.50243129 36.87012802 33.00057068 36.875 31.5 C36.87242187 30.7059375 36.86984375 29.911875 36.8671875 29.09375 C37 27 37 27 38 25 C40 25 42 25 44 25 C44 24.01 44 23.02 44 22 C48.1619941 22.51481112 50.13527391 23.66070703 53.125 26.5625 C56.00024349 29.5545984 56.00024349 29.5545984 60 30 C60.495 30.99 60.495 30.99 61 32 C61.5775 31.7525 62.155 31.505 62.75 31.25 C65 31 65 31 67.3125 32.4375 C69.35295051 35.53596189 69.15402595 37.38870338 68.48046875 40.9765625 C67.21677968 46.29844003 66.01120678 49.23949365 62 53 C60.76487921 55.13309192 60.76487921 55.13309192 60 57 C59.34 56.67 58.68 56.34 58 56 C56.02 56.495 56.02 56.495 54 57 C53.67 60.96 53.34 64.92 53 69 C53.85722656 69.31710937 54.71445312 69.63421875 55.59765625 69.9609375 C64.1883616 73.46695254 68.69730866 76.79663646 73 85 C73.88945312 86.69189453 73.88945312 86.69189453 74.796875 88.41796875 C80.13903244 99.04120605 86.97754448 112.93697869 85 125 C81.4976309 129.13501306 77.6211216 131.63957012 72.9375 134.1875 C72.32583984 134.52974609 71.71417969 134.87199219 71.08398438 135.22460938 C69.39707797 136.16380591 67.69891624 137.08270672 66 138 C65.25878906 138.40863281 64.51757812 138.81726563 63.75390625 139.23828125 C62 140 62 140 59 140 C59 143.96 59 147.92 59 152 C42.36804104 157.91358541 27.20552393 157.03258586 11 150 C9 148 9 148 8.84765625 145.69921875 C9.55459329 135.78924673 11.89100933 126.45626719 14.30175781 116.84521484 C15.48146174 112.03812758 16.54798017 107.20593248 17.625 102.375 C19.08091727 95.85401122 20.60445152 89.40063254 22.6171875 83.0234375 C23.09517668 80.49692326 23.0775913 79.35608944 22 77 C19.4744202 74.66876075 19.4744202 74.66876075 16.375 72.375 C2.91601431 61.61935739 -1.56872554 47.44867194 -5 31 C-5.20625 30.18660156 -5.4125 29.37320312 -5.625 28.53515625 C-6.99042817 23.13981854 -7.89062687 17.54487054 -7 12 C-5.48046875 9.70703125 -5.48046875 9.70703125 -4 8 C-3.67 8.99 -3.34 9.98 -3 11 C-2.86722656 10.28972656 -2.73445312 9.57945312 -2.59765625 8.84765625 C-2.42105469 7.92855469 -2.24445313 7.00945312 -2.0625 6.0625 C-1.88847656 5.14597656 -1.71445313 4.22945313 -1.53515625 3.28515625 C-1 1 -1 1 0 0 Z " fill="#F9D425" transform="translate(236,256)"/>
<path d="M0 0 C1.36125 0.3403125 1.36125 0.3403125 2.75 0.6875 C6.60048531 0.82260475 10.06070201 0.86807536 13.75 -0.3125 C15.68065083 2.39041116 16.78570859 3.93761961 16.625 7.3125 C15.75 9.6875 15.75 9.6875 14.25024414 11.09130859 C12.47017037 12.98522598 12.23447597 14.05638167 11.87109375 16.6015625 C11.75548096 17.35904785 11.63986816 18.1165332 11.52075195 18.89697266 C11.41077881 19.69409668 11.30080566 20.4912207 11.1875 21.3125 C10.94187999 22.93776937 10.69450257 24.56277418 10.4453125 26.1875 C10.26983887 27.35345703 10.26983887 27.35345703 10.09082031 28.54296875 C9.49300419 32.30458537 8.64100611 35.9863977 7.75 39.6875 C8.47445312 39.64109375 9.19890625 39.5946875 9.9453125 39.546875 C14.53983628 39.37534611 17.92729089 39.32849966 22.1875 41.1875 C27.46544575 46.33671537 29.61836118 52.49085451 29.84765625 59.80078125 C29.83605469 60.85652344 29.82445312 61.91226563 29.8125 63 C29.80347656 64.06863281 29.79445312 65.13726562 29.78515625 66.23828125 C29.77355469 67.04652344 29.76195312 67.85476563 29.75 68.6875 C33.98924367 65.93199162 37.92643159 62.99098143 41.8203125 59.76171875 C43.75 58.6875 43.75 58.6875 45.87890625 58.91015625 C48.50386889 60.00069396 49.4295247 61.1855468 50.75 63.6875 C50.5769805 67.13635531 49.90918945 68.50779794 47.59765625 71.1171875 C33.40718842 83.57613962 33.40718842 83.57613962 28.75 85.6875 C25.45703125 85.36328125 25.45703125 85.36328125 22.75 84.6875 C22.89209669 87.3752438 23.0385723 90.06263302 23.1875 92.75 C23.22681641 93.50216797 23.26613281 94.25433594 23.30664062 95.02929688 C23.50077318 98.47888307 23.77102659 101.82850182 24.28125 105.25 C24.8036996 109.08129706 24.84670337 112.76001863 24.8125 116.625 C24.80798828 117.30884766 24.80347656 117.99269531 24.79882812 118.69726562 C24.7871956 120.36071604 24.76926694 122.0241205 24.75 123.6875 C23.25565577 124.48979137 21.75413528 125.27871867 20.25 126.0625 C19.4146875 126.50335938 18.579375 126.94421875 17.71875 127.3984375 C10.80509191 130.40042062 4.32315361 131.07384093 -3.125 131.0625 C-4.0025293 131.06378906 -4.88005859 131.06507813 -5.78417969 131.06640625 C-12.22779103 130.9611263 -17.61587734 130.00866704 -23.25 126.6875 C-23.16878906 125.87667969 -23.08757812 125.06585938 -23.00390625 124.23046875 C-22.5357128 116.02275091 -23.78507598 111.54943855 -28.81640625 105.02734375 C-30.25 102.6875 -30.25 102.6875 -30.15234375 100.50390625 C-29.25 98.6875 -29.25 98.6875 -26.25 96.6875 C-28.25824487 90.3990683 -28.25824487 90.3990683 -30.9375 84.375 C-35.24107161 72.2840131 -30.39430764 59.15302763 -25.25 48 C-21.61400818 41.97788855 -21.61400818 41.97788855 -18.25 39.6875 C-14.54469584 39.284522 -10.96053369 39.39507615 -7.25 39.6875 C-7.16868537 38.25094146 -7.11066441 36.8130517 -7.0625 35.375 C-7.02769531 34.57449219 -6.99289063 33.77398437 -6.95703125 32.94921875 C-7.02664463 30.60564892 -7.02664463 30.60564892 -8.75 29.1875 C-10.25 27.6875 -10.25 27.6875 -10.54296875 25.42578125 C-10.50816406 24.62527344 -10.47335938 23.82476562 -10.4375 23 C-10.41042969 22.19175781 -10.38335937 21.38351563 -10.35546875 20.55078125 C-10.32066406 19.93589844 -10.28585938 19.32101563 -10.25 18.6875 C-10.91 18.6875 -11.57 18.6875 -12.25 18.6875 C-12.64168975 14.24834956 -11.56940842 11.46727668 -9.25 7.6875 C-8.26 7.3575 -7.27 7.0275 -6.25 6.6875 C-5.89587656 5.35953709 -5.56478446 4.02533393 -5.25 2.6875 C-3.56265411 0.24084846 -3.009847 -0.41803431 0 0 Z " fill="#2E7CDE" transform="translate(91.25,220.3125)"/>
<path d="M0 0 C1.258125 0.12375 2.51625 0.2475 3.8125 0.375 C4.52019531 0.44460937 5.22789062 0.51421875 5.95703125 0.5859375 C8 1 8 1 11 3 C10.56197328 11.71522131 9.73236461 20.39349124 8.75 29.0625 C8.65291748 30.061604 8.55583496 31.06070801 8.45581055 32.09008789 C7.91552063 36.58565031 7.54686326 39.29406636 4.73046875 42.9296875 C3.82941406 43.61289063 2.92835938 44.29609375 2 45 C1.11441406 45.69222656 0.22882813 46.38445312 -0.68359375 47.09765625 C-3.45097299 49.07211265 -6.21805039 51.04610871 -9 53 C-9.65226562 53.46277344 -10.30453125 53.92554688 -10.9765625 54.40234375 C-14.72975979 57 -14.72975979 57 -17 57 C-16.97494385 57.55773102 -16.9498877 58.11546204 -16.92407227 58.69009399 C-16.66081581 64.56374253 -16.40195883 70.43757392 -16.14550781 76.31152344 C-16.04960118 78.49549123 -15.95262141 80.6794122 -15.85449219 82.86328125 C-15.32870437 94.58083843 -14.81299077 106.26776833 -15 118 C-29.38343894 124.02073832 -42.88232619 126.73999177 -58 121 C-59.98 120.01 -61.96 119.02 -64 118 C-64.495 99.685 -64.495 99.685 -65 81 C-65.56589844 83.70832031 -66.13179687 86.41664062 -66.71484375 89.20703125 C-67.26381613 91.82829579 -67.81339695 94.44943206 -68.36303711 97.07055664 C-68.74485913 98.89301442 -69.12604794 100.71560498 -69.5065918 102.53833008 C-70.05351214 105.15741536 -70.60270385 107.77601553 -71.15234375 110.39453125 C-71.3221727 111.21025101 -71.49200165 112.02597076 -71.66697693 112.8664093 C-72.32087952 115.97298653 -72.99513093 118.98539278 -74 122 C-77.20822462 122.22382962 -79.62483181 122.13218645 -82.671875 121.05859375 C-85.30895947 118.72680933 -85.37833138 118.32984482 -85.62890625 114.9921875 C-85.63943718 113.28634722 -85.61466589 111.58007498 -85.5625 109.875 C-85.54590332 108.95356201 -85.52930664 108.03212402 -85.51220703 107.08276367 C-84.8921148 87.85187233 -82.64665125 61.01853682 -69 46 C-64.541415 41.96604214 -59.64332333 40.96700768 -53.90234375 39.7109375 C-51.12803422 39.03136235 -48.62088536 38.12529757 -46 37 C-46 37.66 -46 38.32 -46 39 C-44.56465159 39.2226746 -43.12654475 39.42761906 -41.6875 39.625 C-40.88699219 39.74101563 -40.08648437 39.85703125 -39.26171875 39.9765625 C-36.71276785 40.21533407 -36.71276785 40.21533407 -34 38 C-32.23657176 37.91120912 -30.47146878 37.83162306 -28.70581055 37.82788086 C-19.8674865 37.76255006 -11.51394347 36.53411048 -5 30 C-3.17100373 25.38152897 -2.55994206 21.04693914 -2.1796875 16.12060547 C-1.89154412 12.72004373 -1.33292365 9.37248219 -0.8125 6 C-0.53801478 4.00049792 -0.26571615 2.00068629 0 0 Z " fill="#7029D7" transform="translate(156,41)"/>
<path d="M0 0 C0.495 0.495 0.495 0.495 1 1 C2.41379519 1.09931619 3.83272849 1.12969295 5.25 1.125 C6.01828125 1.12757813 6.7865625 1.13015625 7.578125 1.1328125 C10.02034872 1.09658063 10.02034872 1.09658063 12.3359375 0.28125 C16.26036903 -0.13305949 19.03336413 1.53511989 22.375 3.375 C23.04329834 3.74149658 23.71159668 4.10799316 24.40014648 4.4855957 C35.64246307 10.97445881 39.78406087 21.81397313 44.375 33.5 C47.57257896 51.40644218 38.96483156 65.61615021 31 81 C27.55905814 79.68753462 24.86459118 78.33411133 22 76 C19.47411298 78.36292656 18.11179163 79.66462511 17 83 C17.66 83.33 18.32 83.66 19 84 C17.8125 86.9375 17.8125 86.9375 16 90 C6.26713081 93.02839275 -6.63688415 91.79050611 -16 88 C-18.83984375 86.34375 -18.83984375 86.34375 -21 84 C-21.33984375 80.671875 -21.33984375 80.671875 -20.9375 76.75 C-20.87312744 76.05777344 -20.80875488 75.36554688 -20.74243164 74.65234375 C-20.52598559 72.43033115 -20.26772542 70.21638402 -20 68 C-19.91234375 67.23751953 -19.8246875 66.47503906 -19.734375 65.68945312 C-19.20626544 61.11897554 -18.62433983 56.5582869 -18 52 C-19.40765625 52.10054687 -19.40765625 52.10054687 -20.84375 52.203125 C-26.0339556 52.19790347 -30.64429225 50.432671 -35.5 48.75 C-36.41136719 48.44964844 -37.32273437 48.14929688 -38.26171875 47.83984375 C-43.56701993 46.04078779 -48.23979073 43.95551454 -53 41 C-52.48964169 36.6109185 -51.47785723 33.66291938 -49 30 C-45.46075832 30.66560784 -42.02638826 31.51733666 -38.5625 32.5 C-34.72266996 33.5637367 -30.95577716 34.46543552 -27 35 C-27.061875 33.906875 -27.12375 32.81375 -27.1875 31.6875 C-27.13966084 22.66184521 -24.32872997 13.57546408 -18 7 C-12.30855941 2.77631089 -7.28995745 -0.66753971 0 0 Z " fill="#3282E6" transform="translate(305,136)"/>
<path d="M0 0 C1.0209375 0.04253906 1.0209375 0.04253906 2.0625 0.0859375 C2.743125 0.09882812 3.42375 0.11171875 4.125 0.125 C6.0625 0.4609375 6.0625 0.4609375 9.0625 2.4609375 C11.11959596 2.70149218 11.11959596 2.70149218 13.25 2.5859375 C15.1371875 2.5240625 15.1371875 2.5240625 17.0625 2.4609375 C17.5575 4.4409375 17.5575 4.4409375 18.0625 6.4609375 C19.3825 6.7909375 20.7025 7.1209375 22.0625 7.4609375 C22.0625 8.4509375 22.0625 9.4409375 22.0625 10.4609375 C23.0525 10.7909375 24.0425 11.1209375 25.0625 11.4609375 C25.63975131 18.50340345 24.29290137 22.59091779 21.1796875 28.87890625 C19.19883921 33.45702066 19.56809558 37.79092369 21.0625 42.4609375 C18.03409851 44.21422257 15.86375633 44.71186943 12.375 44.6484375 C11.58738281 44.64199219 10.79976563 44.63554687 9.98828125 44.62890625 C8.0625 44.4609375 8.0625 44.4609375 7.0625 43.4609375 C-0.24448634 42.80245908 -5.26700125 46.16722651 -10.9375 50.4609375 C-17.9230467 57.75967635 -18.67018409 67.87825052 -19.9375 77.4609375 C-27.91959379 77.15215244 -34.56852439 75.52540511 -41.9375 72.4609375 C-42.99295105 75.01624004 -43.91953902 77.37711961 -44.5 80.0859375 C-46.5472175 83.46829684 -49.03835842 83.78950409 -52.74609375 84.78515625 C-55.19372601 85.42601076 -55.19372601 85.42601076 -57.9375 87.4609375 C-61.5 87.7109375 -61.5 87.7109375 -64.9375 87.4609375 C-65.5975 86.8009375 -66.2575 86.1409375 -66.9375 85.4609375 C-66.9375 82.3469493 -66.70751701 80.28214677 -64.52734375 77.95703125 C-63.04729929 76.72890925 -61.49574823 75.5881809 -59.9375 74.4609375 C-60.2675 73.4709375 -60.5975 72.4809375 -60.9375 71.4609375 C-59.40440622 69.92784372 -58.00568186 70.29171093 -55.875 70.2734375 C-51.27759357 70.31027569 -47.34132344 71.17982523 -42.9375 72.4609375 C-42.855 71.5534375 -42.7725 70.6459375 -42.6875 69.7109375 C-41.3982871 60.98667487 -38.34548067 53.27964405 -33.109375 46.203125 C-31.75145663 44.53429382 -31.75145663 44.53429382 -31.9375 42.4609375 C-37.91008972 39.89133495 -42.71203678 39.02046115 -49.1796875 39.01953125 C-50.02927032 39.00632339 -50.87885315 38.99311554 -51.75418091 38.97950745 C-54.44032216 38.93893853 -57.12612338 38.91701248 -59.8125 38.8984375 C-62.52019906 38.87464781 -65.22757831 38.84661044 -67.93508911 38.80665588 C-69.6132589 38.78229177 -71.29159929 38.76743896 -72.96994019 38.76304626 C-78.71289309 38.68554441 -78.71289309 38.68554441 -80.9375 36.4609375 C-81.203125 33.2734375 -81.203125 33.2734375 -81.1875 29.4609375 C-81.19265625 28.2028125 -81.1978125 26.9446875 -81.203125 25.6484375 C-80.9375 22.4609375 -80.9375 22.4609375 -78.9375 20.4609375 C-76.92614746 20.20697021 -76.92614746 20.20697021 -74.42773438 20.20214844 C-73.02618103 20.19269196 -73.02618103 20.19269196 -71.59631348 20.18304443 C-70.07910706 20.18911713 -70.07910706 20.18911713 -68.53125 20.1953125 C-67.49560913 20.19339905 -66.45996826 20.1914856 -65.39294434 20.18951416 C-63.20059975 20.18815153 -61.00824711 20.19185336 -58.81591797 20.20019531 C-55.45131384 20.21089358 -52.08724368 20.20030247 -48.72265625 20.1875 C-46.59635298 20.18882158 -44.47005005 20.19138394 -42.34375 20.1953125 C-41.33227905 20.19126404 -40.32080811 20.18721558 -39.27868652 20.18304443 C-38.34431763 20.18934875 -37.40994873 20.19565308 -36.44726562 20.20214844 C-35.21055115 20.20453522 -35.21055115 20.20453522 -33.94885254 20.20697021 C-31.9375 20.4609375 -31.9375 20.4609375 -29.9375 22.4609375 C-29.671875 25.61328125 -29.671875 25.61328125 -29.6875 29.3984375 C-29.67976563 31.26822266 -29.67976563 31.26822266 -29.671875 33.17578125 C-29.9375 36.4609375 -29.9375 36.4609375 -31.9375 39.4609375 C-28.11489673 39.87083475 -28.11489673 39.87083475 -26.2890625 38.17578125 C-25.71929687 37.58925781 -25.14953125 37.00273437 -24.5625 36.3984375 C-18.67436068 30.95468606 -10.04651864 25.4609375 -1.9375 25.4609375 C-2.26470298 20.65073393 -2.26470298 20.65073393 -4.48828125 16.5390625 C-6.32684197 13.90263581 -6.1871348 12.61171223 -5.8125 9.4609375 C-5.72742188 8.6153125 -5.64234375 7.7696875 -5.5546875 6.8984375 C-4.69499122 3.50318132 -3.60505733 0.85765477 0 0 Z " fill="#FDF3E8" transform="translate(297.9375,93.5390625)"/>
<path d="M0 0 C0.33 0 0.66 0 1 0 C1.05607422 0.92232422 1.05607422 0.92232422 1.11328125 1.86328125 C1.21189453 3.07564453 1.21189453 3.07564453 1.3125 4.3125 C1.37050781 5.11300781 1.42851563 5.91351563 1.48828125 6.73828125 C1.80085984 9.08444455 1.80085984 9.08444455 3.5625 10.5 C5 12 5 12 5.07421875 14.26171875 C4.88279297 15.46248047 4.88279297 15.46248047 4.6875 16.6875 C4.56761719 17.49574219 4.44773438 18.30398438 4.32421875 19.13671875 C4.21722656 19.75160156 4.11023438 20.36648438 4 21 C2.91332031 20.98646484 2.91332031 20.98646484 1.8046875 20.97265625 C-3.84727163 21.08425247 -3.84727163 21.08425247 -8.92578125 23.2734375 C-13.0307569 27.79209287 -15.11091007 33.27395852 -17 39 C-17.30035156 39.87914062 -17.60070312 40.75828125 -17.91015625 41.6640625 C-21.55310878 53.42317438 -20.63410045 62.08204179 -15.1171875 72.96875 C-14 76 -14 76 -14.6953125 78.34375 C-16 80 -16 80 -18 81 C-17.37028587 84.49132646 -15.93629113 86.72368144 -13.9375 89.625 C-10.78654636 94.72546452 -9.87007252 99.07874541 -11 105 C-11.66 105.99 -12.32 106.98 -13 108 C-27.91924786 99.77728301 -38.26691022 89.30861431 -43.30859375 72.69140625 C-47.16635158 57.67448453 -45.30881448 43.68499971 -38.4609375 29.90234375 C-30.86566996 17.10557782 -20.35668435 8.41773362 -6.10546875 4.12890625 C-4.0877512 3.6681676 -2.04517725 3.31735509 0 3 C0 2.01 0 1.02 0 0 Z " fill="#FCF3E8" transform="translate(80,239)"/>
<path d="M0 0 C0.53625 0.680625 1.0725 1.36125 1.625 2.0625 C2.40875 3.031875 3.1925 4.00125 4 5 C4.40089844 5.51949219 4.80179688 6.03898437 5.21484375 6.57421875 C9.75725312 12.22260605 15.31883615 16.54200488 21 21 C19.97976371 27.77619624 18.42310568 34.3347422 16.625 40.9375 C14.52979926 48.64960537 12.82225883 56.38480071 11.34423828 64.23803711 C10.67436536 67.77032573 9.94756854 71.18321556 8.95703125 74.64453125 C7.97901176 78.07358733 7.38405621 81.41046766 6.875 84.9375 C6.70742187 86.08089844 6.53984375 87.22429687 6.3671875 88.40234375 C6.24601562 89.25957031 6.12484375 90.11679687 6 91 C-5.83414145 81.38476007 -15.83778986 69.58220863 -18 54 C-19.31080581 37.09096032 -17.5515857 22.84895623 -7 9 C-5.07554581 6.89942389 -3.0647869 4.96646371 -1 3 C-0.67 2.01 -0.34 1.02 0 0 Z " fill="#FEF4E7" transform="translate(239,313)"/>
<path d="M0 0 C5.01979136 0.02393226 8.15230119 0.47653412 12.3125 3.25 C12 5.1875 12 5.1875 11.3125 7.25 C10.3225 7.58 9.3325 7.91 8.3125 8.25 C8.35890625 9.43078125 8.4053125 10.6115625 8.453125 11.828125 C8.49064949 13.38539134 8.52704893 14.94268508 8.5625 16.5 C8.59601563 17.27730469 8.62953125 18.05460937 8.6640625 18.85546875 C8.76417688 24.71215986 8.76417688 24.71215986 6.3671875 27.56640625 C5.68914062 28.12199219 5.01109375 28.67757812 4.3125 29.25 C3.60437186 31.57108669 2.93225848 33.90377147 2.3125 36.25 C-0.45850394 37.63550197 -2.6209706 37.4377467 -5.6875 37.25 C-6.6775 36.59 -7.6675 35.93 -8.6875 35.25 C-8.6875 34.59 -8.6875 33.93 -8.6875 33.25 C-9.780625 33.848125 -10.87375 34.44625 -12 35.0625 C-15.40921829 36.79744027 -18.65582167 37.81062056 -22.375 38.6875 C-29.64146446 40.57176941 -32.65761701 44.82494466 -36.45263672 50.96411133 C-38.52532006 54.80091127 -39.67436851 58.80644749 -40.8125 63 C-41.06402832 63.89871826 -41.31555664 64.79743652 -41.57470703 65.72338867 C-44.09725145 75.11140639 -45.50755078 84.613748 -46.6875 94.25 C-47.3475 94.25 -48.0075 94.25 -48.6875 94.25 C-56.01730923 79.28264145 -58.60499732 63.29367226 -53.7109375 46.97265625 C-47.65976797 30.87469762 -36.89060949 20.57001568 -21.6875 13.25 C-20.02986956 12.56117234 -18.36644646 11.88510709 -16.6875 11.25 C-16.6875 10.59 -16.6875 9.93 -16.6875 9.25 C-16.0275 9.25 -15.3675 9.25 -14.6875 9.25 C-14.3575 6.94 -14.0275 4.63 -13.6875 2.25 C-12.553125 2.105625 -11.41875 1.96125 -10.25 1.8125 C-6.30678839 1.18988764 -4.19130731 0.06186431 0 0 Z " fill="#FEF3E8" transform="translate(118.6875,44.75)"/>
<path d="M0 0 C0.66 0 1.32 0 2 0 C9.96295924 15.98670442 11.00697179 31.10595775 5.65478516 48.14453125 C1.60866588 59.61004449 -6.05181702 68.22229485 -16 75 C-17.32342687 75.3707158 -18.65633406 75.71112158 -20 76 C-20.84962317 65.90251526 -21.4066701 55.81995406 -21.65161133 45.68945312 C-21.78598706 40.20431553 -21.95892303 34.82336109 -22.6953125 29.3828125 C-23.76231512 20.06758102 -23.76231512 20.06758102 -22 16 C-17.58887974 11.11432146 -11.78814616 8.13669415 -6.00976562 5.14892578 C-3.60144817 3.77215926 -1.8687668 2.03393559 0 0 Z " fill="#FDF2E8" transform="translate(161,82)"/>
<path d="M0 0 C0.33 0.66 0.66 1.32 1 2 C3.04590714 2.69413168 3.04590714 2.69413168 5.5 3.25 C11.1608138 4.86276746 15.35503635 7.44054416 20 11 C20.6909375 11.51433594 21.381875 12.02867187 22.09375 12.55859375 C32.81912846 21.15952224 39.72423042 35.40628673 41.22290039 49.02563477 C42.11998386 65.0355715 38.11100277 79.49810608 27.875 92.125 C23.2596203 97.12413037 17.67775918 101.27800916 12 105 C11.34 105 10.68 105 10 105 C9.690625 105.969375 9.38125 106.93875 9.0625 107.9375 C8 111 8 111 7 112 C4.5625 112.1875 4.5625 112.1875 2 112 C1.34 111.34 0.68 110.68 0 110 C0.375 107.5625 0.375 107.5625 1 105 C1 104.01 1 103.02 1 102 C1.31955769 98.69790388 1.97847439 98.01890054 4.5625 95.75 C5.366875 95.1725 6.17125 94.595 7 94 C8.49739583 95.30208333 9.99479167 96.60416667 11.4921875 97.90625 C12.95936421 99.19572458 12.95936421 99.19572458 15 99 C27.40337983 75.56520358 27.40337983 75.56520358 26.375 49.875 C21.51239613 36.85632652 15.9690974 28.60960831 3.66796875 22.30664062 C2.97058594 21.93603516 2.27320313 21.56542969 1.5546875 21.18359375 C0.92030762 20.85931396 0.28592773 20.53503418 -0.36767578 20.20092773 C-2.41709592 18.69313568 -3.08605073 17.35727624 -4 15 C-4.70052798 8.92875753 -2.9701637 5.10496887 0 0 Z " fill="#FCF3E9" transform="translate(321,117)"/>
<path d="M0 0 C15.26374272 9.76048854 25.25289008 21.04173964 29.375 39.25 C30.96572338 49.71847481 29.97033479 61.17510373 26 71 C25.69578125 71.7940625 25.3915625 72.588125 25.078125 73.40625 C20.01784715 84.9935529 10.22276459 94.37872108 -1 100 C-1.66 100 -2.32 100 -3 100 C-3 96.37 -3 92.74 -3 89 C-1.9378125 88.48050781 -0.875625 87.96101563 0.21875 87.42578125 C12.67191632 82.40223653 12.67191632 82.40223653 22 74 C23.50186998 59.48192355 15.61232401 44.5142044 9 32 C8.54109375 31.12988281 8.0821875 30.25976562 7.609375 29.36328125 C3.5493152 22.94300597 -3.14874074 20.6835793 -10 18 C-9.79905835 16.03856959 -9.56328747 14.08068209 -9.3125 12.125 C-9.18488281 11.03445313 -9.05726563 9.94390625 -8.92578125 8.8203125 C-8 6 -8 6 -5.41796875 4.6171875 C-4.62003906 4.41351563 -3.82210938 4.20984375 -3 4 C-2.67 4.33 -2.34 4.66 -2 5 C-1.34 3.35 -0.68 1.7 0 0 Z " fill="#FEF4E6" transform="translate(298,307)"/>
<path d="M0 0 C1.0209375 0.04253906 1.0209375 0.04253906 2.0625 0.0859375 C2.743125 0.09882812 3.42375 0.11171875 4.125 0.125 C6.0625 0.4609375 6.0625 0.4609375 9.0625 2.4609375 C11.11959596 2.70149218 11.11959596 2.70149218 13.25 2.5859375 C14.508125 2.5446875 15.76625 2.5034375 17.0625 2.4609375 C17.3925 3.7809375 17.7225 5.1009375 18.0625 6.4609375 C19.3825 6.7909375 20.7025 7.1209375 22.0625 7.4609375 C22.0625 8.4509375 22.0625 9.4409375 22.0625 10.4609375 C23.0525 10.7909375 24.0425 11.1209375 25.0625 11.4609375 C25.63975131 18.50340345 24.29290137 22.59091779 21.1796875 28.87890625 C19.19883921 33.45702066 19.56809558 37.79092369 21.0625 42.4609375 C18.06842177 44.18355785 15.88500407 44.73399773 12.4375 44.7109375 C11.66148437 44.71609375 10.88546875 44.72125 10.0859375 44.7265625 C8.0625 44.4609375 8.0625 44.4609375 6.0625 42.4609375 C6.4375 39.3359375 6.4375 39.3359375 7.0625 36.4609375 C5.94875 36.5228125 4.835 36.5846875 3.6875 36.6484375 C2.49125 36.5865625 1.295 36.5246875 0.0625 36.4609375 C-2.31831752 32.88971122 -2.26802041 30.15601948 -2.375 26.0234375 C-2.53041093 20.89487689 -2.79049059 18.43477512 -5.9375 14.4609375 C-6.1171875 12.0234375 -6.1171875 12.0234375 -5.8125 9.4609375 C-5.72742188 8.6153125 -5.64234375 7.7696875 -5.5546875 6.8984375 C-4.69499122 3.50318132 -3.60505733 0.85765477 0 0 Z " fill="#F5B284" transform="translate(297.9375,93.5390625)"/>
<path d="M0 0 C0.9343689 -0.00630432 1.86873779 -0.01260864 2.8314209 -0.019104 C4.34862732 -0.01303131 4.34862732 -0.01303131 5.89648438 -0.00683594 C6.93212524 -0.00874939 7.96776611 -0.01066284 9.03479004 -0.01263428 C11.22713463 -0.01399691 13.41948726 -0.01029508 15.61181641 -0.00195312 C18.97642054 0.00874514 22.34049069 -0.00184597 25.70507812 -0.01464844 C27.83138139 -0.01332686 29.95768433 -0.01076449 32.08398438 -0.00683594 C33.09545532 -0.0108844 34.10692627 -0.01493286 35.14904785 -0.019104 C36.08341675 -0.01279968 37.01778564 -0.00649536 37.98046875 0 C39.21718323 0.00238678 39.21718323 0.00238678 40.47888184 0.00482178 C42.49023438 0.25878906 42.49023438 0.25878906 44.49023438 2.25878906 C44.75585938 5.41113281 44.75585938 5.41113281 44.74023438 9.19628906 C44.74796875 11.06607422 44.74796875 11.06607422 44.75585938 12.97363281 C44.49023438 16.25878906 44.49023438 16.25878906 42.49023438 19.25878906 C42.98523438 20.24878906 42.98523438 20.24878906 43.49023438 21.25878906 C42.94890366 21.1184021 42.40757294 20.97801514 41.84983826 20.83337402 C36.21292095 19.46344034 30.93832935 18.9532017 25.15039062 18.91503906 C24.30222275 18.90041626 23.45405487 18.88579346 22.58018494 18.87072754 C18.99004413 18.80896239 15.3997494 18.76858811 11.80932617 18.72705078 C9.17282742 18.69344069 6.53670091 18.648352 3.90039062 18.60253906 C3.08586929 18.59726196 2.27134796 18.59198486 1.43214417 18.58654785 C-4.28402591 18.48452878 -4.28402591 18.48452878 -6.50976562 16.25878906 C-6.77539062 13.07128906 -6.77539062 13.07128906 -6.75976562 9.25878906 C-6.76492187 8.00066406 -6.77007812 6.74253906 -6.77539062 5.44628906 C-6.35807738 0.43853014 -4.57196355 0.0088236 0 0 Z " fill="#8CC94D" transform="translate(223.509765625,113.7412109375)"/>
<path d="M0 0 C1.23671448 0.00213753 1.23671448 0.00213753 2.49841309 0.00431824 C3.43278198 0.00124161 4.36715088 -0.00183502 5.32983398 -0.00500488 C6.34130493 0.00218063 7.35277588 0.00936615 8.39489746 0.01676941 C9.43053833 0.01722763 10.4661792 0.01768585 11.53320312 0.01815796 C13.72555688 0.02118259 15.91790845 0.02907515 18.11022949 0.04142761 C21.47472712 0.05966271 24.83894937 0.06193748 28.20349121 0.06169128 C30.32979568 0.06660717 32.45609829 0.07243579 34.58239746 0.07926941 C35.59386841 0.08038223 36.60533936 0.08149506 37.64746094 0.0826416 C38.58182983 0.08902145 39.51619873 0.09540131 40.47888184 0.10197449 C41.30335815 0.10578629 42.12783447 0.10959808 42.97729492 0.11352539 C44.98864746 0.24723816 44.98864746 0.24723816 46.98864746 1.24723816 C47.01549841 3.72647617 47.03541294 6.20542656 47.05114746 8.68473816 C47.05952637 9.39178894 47.06790527 10.09883972 47.07653809 10.82731628 C47.08518334 12.63417375 47.04084758 14.44111419 46.98864746 16.24723816 C44.92830964 18.30757598 40.55239756 17.43277136 37.71130371 17.45817566 C35.9827792 17.48628007 34.25426372 17.51494469 32.52575684 17.54411316 C29.80074666 17.58511645 27.07589869 17.62199649 24.35070801 17.64860535 C10.37351658 17.61127933 10.37351658 17.61127933 -3.01135254 21.24723816 C-2.35135254 19.92723816 -1.69135254 18.60723816 -1.01135254 17.24723816 C-1.67135254 17.24723816 -2.33135254 17.24723816 -3.01135254 17.24723816 C-4.43554314 14.39885695 -4.18130762 11.91935908 -4.19885254 8.74723816 C-4.22012207 6.99926941 -4.22012207 6.99926941 -4.24182129 5.21598816 C-3.97955749 1.83767486 -3.5364474 0.43470487 0 0 Z " fill="#89C748" transform="translate(131.0113525390625,234.7527618408203)"/>
<path d="M0 0 C0.24878906 0.62261719 0.49757813 1.24523437 0.75390625 1.88671875 C2.26052554 4.44183172 3.19385485 4.80533912 5.9375 5.8125 C19.88182619 11.59648096 29.05737044 20.69129142 36 34 C36.33 34.99 36.66 35.98 37 37 C40.24983135 35.91215032 40.24983135 35.91215032 43 34 C49.46153846 33.64102564 49.46153846 33.64102564 53 36 C53.4375 38.9375 53.4375 38.9375 53 42 C50.71847734 44.87670248 47.98440967 45.37429876 44.5 46 C42.12890625 46.21484375 42.12890625 46.21484375 40 46 C37.4375 43.5625 37.4375 43.5625 36 41 C32.00698009 41.59611435 29.53605889 43.64697387 26.375 46.0625 C21.21265378 50 21.21265378 50 19 50 C18.90203125 48.865625 18.8040625 47.73125 18.703125 46.5625 C17.79217514 33.6403349 17.79217514 33.6403349 10.9375 23.0625 C6.40401003 21.42272703 1.78931303 21.24324007 -3 21 C-3.1957782 16.10554488 -2.59359747 12.59331035 -1 8 C-0.56003236 5.33602009 -0.27806222 2.68793476 0 0 Z " fill="#FDF3E8" transform="translate(102,239)"/>
<path d="M0 0 C0.33 0 0.66 0 1 0 C1.59371153 19.98828826 1.59371153 19.98828826 -2 29 C-2.37898438 29.96035156 -2.75796875 30.92070312 -3.1484375 31.91015625 C-7.29605911 41.20034916 -14.35282548 50.39255277 -23 56 C-23.66 56 -24.32 56 -25 56 C-26.40781517 43.28660534 -27.30179444 30.79273087 -27 18 C-26.13117188 18.08378906 -25.26234375 18.16757812 -24.3671875 18.25390625 C-20.11402352 17.93319203 -18.44171001 16.57239297 -15.125 13.9375 C-14.08988281 13.12023437 -13.05476563 12.30296875 -11.98828125 11.4609375 C-5.16321684 6.45625695 -5.16321684 6.45625695 0 0 Z " fill="#FCF3E8" transform="translate(141,287)"/>
<path d="M0 0 C0.9075 0.226875 1.815 0.45375 2.75 0.6875 C6.60048531 0.82260475 10.06070201 0.86807536 13.75 -0.3125 C15.68065083 2.39041116 16.78570859 3.93761961 16.625 7.3125 C15.75 9.6875 15.75 9.6875 14.24804688 11.0847168 C12.44545575 13.01333654 12.24247389 14.11649774 11.90625 16.70703125 C11.73802734 17.87008789 11.73802734 17.87008789 11.56640625 19.05664062 C11.46199219 19.86294922 11.35757813 20.66925781 11.25 21.5 C10.51435509 27.09907518 9.77291924 31.77525624 6.75 36.6875 C3.17544239 38.4747788 -0.77011319 38.08746941 -4.5625 37.0625 C-7.03365076 35.04896975 -7.37442509 32.68947113 -8.25 29.6875 C-8.91 29.0275 -9.57 28.3675 -10.25 27.6875 C-10.4453125 25.5234375 -10.4453125 25.5234375 -10.375 23.0625 C-10.35695313 22.24523437 -10.33890625 21.42796875 -10.3203125 20.5859375 C-10.29710938 19.95945313 -10.27390625 19.33296875 -10.25 18.6875 C-10.91 18.6875 -11.57 18.6875 -12.25 18.6875 C-12.64168975 14.24834956 -11.56940842 11.46727668 -9.25 7.6875 C-8.26 7.3575 -7.27 7.0275 -6.25 6.6875 C-5.89587656 5.35953709 -5.56478446 4.02533393 -5.25 2.6875 C-3.56265411 0.24084846 -3.009847 -0.41803431 0 0 Z " fill="#EFB28A" transform="translate(91.25,220.3125)"/>
<path d="M0 0 C0.69037354 0.23710693 1.38074707 0.47421387 2.09204102 0.71850586 C5.2467065 1.79792146 8.40453494 2.86777819 11.5625 3.9375 C13.19155273 4.49727539 13.19155273 4.49727539 14.85351562 5.06835938 C20.24678832 6.88797417 25.32095452 8.48668599 31 9 C30.90912109 10.12643921 30.90912109 10.12643921 30.81640625 11.27563477 C30.54140958 14.70436726 30.27066846 18.13342323 30 21.5625 C29.90460938 22.74392578 29.80921875 23.92535156 29.7109375 25.14257812 C29.26898095 30.77752415 28.8671874 36.34716392 29 42 C17.61590371 37.96897658 9.5796801 28.26768641 4.1875 17.8125 C1.27278592 11.59955683 -0.08941619 6.91756199 0 0 Z " fill="#FDF4E9" transform="translate(256,179)"/>
<path d="M0 0 C5.01979136 0.02393226 8.15230119 0.47653412 12.3125 3.25 C12 5.1875 12 5.1875 11.3125 7.25 C10.3225 7.58 9.3325 7.91 8.3125 8.25 C8.35890625 9.43078125 8.4053125 10.6115625 8.453125 11.828125 C8.49064949 13.38539134 8.52704893 14.94268508 8.5625 16.5 C8.61277344 17.66595703 8.61277344 17.66595703 8.6640625 18.85546875 C8.76417688 24.71215986 8.76417688 24.71215986 6.3671875 27.56640625 C5.68914062 28.12199219 5.01109375 28.67757812 4.3125 29.25 C3.60437186 31.57108669 2.93225848 33.90377147 2.3125 36.25 C-0.52833641 37.67041821 -2.54227278 37.56452272 -5.6875 37.25 C-8 35.8125 -8 35.8125 -9.6875 33.25 C-10.08455339 31.01441676 -10.25770666 28.81997345 -10.40625 26.5546875 C-10.68834911 24.24304201 -11.24845336 22.64905551 -12.25 20.5625 C-13.73572321 17.13887696 -13.95689734 14.9317637 -13.6875 11.25 C-14.6775 11.25 -15.6675 11.25 -16.6875 11.25 C-16.6875 10.59 -16.6875 9.93 -16.6875 9.25 C-16.0275 9.25 -15.3675 9.25 -14.6875 9.25 C-14.3575 6.94 -14.0275 4.63 -13.6875 2.25 C-11.9859375 2.0334375 -11.9859375 2.0334375 -10.25 1.8125 C-6.30678839 1.18988764 -4.19130731 0.06186431 0 0 Z " fill="#F3B48A" transform="translate(118.6875,44.75)"/>
<path d="M0 0 C4.1619941 0.51481112 6.13527391 1.66070703 9.125 4.5625 C12.00024349 7.5545984 12.00024349 7.5545984 16 8 C16.33 8.66 16.66 9.32 17 10 C17.5775 9.7525 18.155 9.505 18.75 9.25 C21 9 21 9 23.3125 10.4375 C25.35295051 13.53596189 25.15402595 15.38870338 24.48046875 18.9765625 C23.21677968 24.29844003 22.01120678 27.23949365 18 31 C16.76487921 33.13309192 16.76487921 33.13309192 16 35 C14.35 34.67 12.7 34.34 11 34 C11.33 31.36 11.66 28.72 12 26 C11.34 25.67 10.68 25.34 10 25 C9.67 25.99 9.34 26.98 9 28 C9 25.36 9 22.72 9 20 C6.69 19.67 4.38 19.34 2 19 C3.32 18.67 4.64 18.34 6 18 C6 17.34 6 16.68 6 16 C4.88625 16.020625 3.7725 16.04125 2.625 16.0625 C-1 16 -1 16 -3 15 C-3.66 15.66 -4.32 16.32 -5 17 C-7.105184 13.842224 -7.25289344 13.04602866 -7.1875 9.4375 C-7.18105469 8.65246094 -7.17460937 7.86742187 -7.16796875 7.05859375 C-7 5 -7 5 -6 3 C-4 3 -2 3 0 3 C0 2.01 0 1.02 0 0 Z " fill="#AC391A" transform="translate(280,278)"/>
<path d="M0 0 C2.73275832 1.19293681 3.51796405 2.66779592 5.05297852 5.20605469 C5.85251953 6.52766602 5.85251953 6.52766602 6.66821289 7.87597656 C7.21155273 8.80345703 7.75489258 9.7309375 8.31469727 10.68652344 C9.15871094 12.0603418 9.15871094 12.0603418 10.01977539 13.46191406 C10.54635742 14.34685547 11.07293945 15.23179687 11.61547852 16.14355469 C12.09799072 16.9541333 12.58050293 17.76471191 13.07763672 18.59985352 C14.00219727 20.87402344 14.00219727 20.87402344 13.8215332 23.03588867 C12.43819937 26.13932145 9.75044022 27.34881736 6.93969727 29.12402344 C5.8349707 29.83042969 4.73024414 30.53683594 3.59204102 31.26464844 C2.73739258 31.79574219 1.88274414 32.32683594 1.00219727 32.87402344 C-1.31120813 32.18569476 -2.68622268 31.34279438 -4.02954102 29.32177734 C-5.09864073 27.30063264 -6.09113958 25.25743275 -7.06030273 23.18652344 C-7.39868164 22.49107422 -7.73706055 21.795625 -8.08569336 21.07910156 C-10.18521896 16.72979418 -12.12515041 12.32521883 -13.99780273 7.87402344 C-12.09200344 6.50460476 -10.172737 5.15391181 -8.24780273 3.81152344 C-7.18045898 3.05742187 -6.11311523 2.30332031 -5.01342773 1.52636719 C-1.99780273 -0.12597656 -1.99780273 -0.12597656 0 0 Z " fill="#0F3155" transform="translate(91.997802734375,301.1259765625)"/>
<path d="M0 0 C4.455 0.99 4.455 0.99 9 2 C9 2.66 9 3.32 9 4 C10.32 4.66 11.64 5.32 13 6 C13 7.65 13 9.3 13 11 C13.99 11.33 14.98 11.66 16 12 C15.67 14.97 15.34 17.94 15 21 C14.34 21 13.68 21 13 21 C12.97421875 21.66386719 12.9484375 22.32773437 12.921875 23.01171875 C12.65198844 27.21336175 12.33664544 30.35260492 10.375 34.125 C8 36 8 36 4.4375 36.5625 C1 36 1 36 -0.875 34.3125 C-2.06820046 31.85981018 -2.62571253 29.69486977 -3 27 C-2.34 27 -1.68 27 -1 27 C-1.96776098 23.20452079 -1.96776098 23.20452079 -4 20 C-4.37639027 12.97404837 -3.98141469 5.97212203 0 0 Z " fill="#F4B487" transform="translate(277,292)"/>
<path d="M0 0 C1.97265625 0.265625 1.97265625 0.265625 4.97265625 2.265625 C7.02975221 2.50617968 7.02975221 2.50617968 9.16015625 2.390625 C10.41828125 2.349375 11.67640625 2.308125 12.97265625 2.265625 C13.30265625 3.585625 13.63265625 4.905625 13.97265625 6.265625 C15.29265625 6.595625 16.61265625 6.925625 17.97265625 7.265625 C17.97265625 8.255625 17.97265625 9.245625 17.97265625 10.265625 C18.96265625 10.595625 19.95265625 10.925625 20.97265625 11.265625 C21.59385705 18.96851493 19.84684655 23.6379923 15.97265625 30.265625 C15.09424629 27.16841655 14.97830219 25.35917097 15.97265625 22.265625 C15.31265625 22.265625 14.65265625 22.265625 13.97265625 22.265625 C13.97265625 23.255625 13.97265625 24.245625 13.97265625 25.265625 C13.31265625 25.265625 12.65265625 25.265625 11.97265625 25.265625 C11.97265625 22.625625 11.97265625 19.985625 11.97265625 17.265625 C11.23015625 17.306875 10.48765625 17.348125 9.72265625 17.390625 C6.97265625 17.265625 6.97265625 17.265625 5.09765625 16.265625 C2.04991866 14.83139554 -0.7092344 15.13800541 -4.02734375 15.265625 C-4.35734375 16.255625 -4.68734375 17.245625 -5.02734375 18.265625 C-6.96484375 17.640625 -6.96484375 17.640625 -9.02734375 16.265625 C-10.72684083 11.16713376 -9.59876183 7.22799787 -8.02734375 2.265625 C-5.42029477 -0.34142398 -3.55396134 0.02657167 0 0 Z " fill="#B03818" transform="translate(302.02734375,93.734375)"/>
<path d="M0 0 C8.67446708 2.18901129 16.32688202 4.82770426 23 11 C24.26953125 13.21875 24.26953125 13.21875 25 15 C23.79396923 15.77443092 22.58503095 16.54433428 21.375 17.3125 C20.70210937 17.74175781 20.02921875 18.17101562 19.3359375 18.61328125 C18.56507813 19.07089844 17.79421875 19.52851562 17 20 C16.0925 20.5465625 15.185 21.093125 14.25 21.65625 C10.19227048 23.33396509 6.95464113 23.3401727 2.625 23.1875 C1.88894531 23.17396484 1.15289062 23.16042969 0.39453125 23.14648438 C-1.40396743 23.11144869 -3.20208422 23.05765288 -5 23 C-5.25 20.75 -5.25 20.75 -5 18 C-4.35546875 17.38640625 -3.7109375 16.7728125 -3.046875 16.140625 C-0.17022975 13.13222501 -0.40154842 10.84180732 -0.25 6.75 C-0.19328125 5.48671875 -0.1365625 4.2234375 -0.078125 2.921875 C-0.05234375 1.95765625 -0.0265625 0.9934375 0 0 Z " fill="#FDF1E7" transform="translate(127,56)"/>
<path d="M0 0 C0.9075 0.226875 1.815 0.45375 2.75 0.6875 C6.60048531 0.82260475 10.06070201 0.86807536 13.75 -0.3125 C16.80084746 3.95868644 16.80084746 3.95868644 16.5625 7.375 C15.75 9.6875 15.75 9.6875 13.75 11.6875 C11.42182036 12.05510731 9.0881615 12.38991581 6.75 12.6875 C6.42 13.0175 6.09 13.3475 5.75 13.6875 C3.07941149 13.82865161 0.42567762 13.72997107 -2.25 13.6875 C-2.91 15.3375 -3.57 16.9875 -4.25 18.6875 C-5.24 18.6875 -6.23 18.6875 -7.25 18.6875 C-6.92 22.3175 -6.59 25.9475 -6.25 29.6875 C-7.57 29.0275 -8.89 28.3675 -10.25 27.6875 C-10.25 24.7175 -10.25 21.7475 -10.25 18.6875 C-10.91 18.6875 -11.57 18.6875 -12.25 18.6875 C-12.64168975 14.24834956 -11.56940842 11.46727668 -9.25 7.6875 C-8.26 7.3575 -7.27 7.0275 -6.25 6.6875 C-5.89587656 5.35953709 -5.56478446 4.02533393 -5.25 2.6875 C-3.56265411 0.24084846 -3.009847 -0.41803431 0 0 Z " fill="#551656" transform="translate(91.25,220.3125)"/>
<path d="M0 0 C5.01979136 0.02393226 8.15230119 0.47653412 12.3125 3.25 C12.125 5.0625 12.125 5.0625 11.3125 7.25 C8.60671489 9.41462808 6.75693949 10.19444506 3.3125 10.625 C-0.04419186 10.20541352 -1.94602831 9.18515649 -4.6875 7.25 C-4.625625 8.301875 -4.625625 8.301875 -4.5625 9.375 C-4.70418332 12.63371628 -5.55484686 15.2059947 -6.6875 18.25 C-7.6775 18.25 -8.6675 18.25 -9.6875 18.25 C-9.6875 19.9 -9.6875 21.55 -9.6875 23.25 C-11.72969706 21.55820672 -12.60543306 20.61272334 -13.19921875 17.98828125 C-13.25722656 17.18777344 -13.31523438 16.38726562 -13.375 15.5625 C-13.44074219 14.75425781 -13.50648437 13.94601563 -13.57421875 13.11328125 C-13.61160156 12.49839844 -13.64898437 11.88351563 -13.6875 11.25 C-14.6775 11.25 -15.6675 11.25 -16.6875 11.25 C-16.6875 10.59 -16.6875 9.93 -16.6875 9.25 C-16.0275 9.25 -15.3675 9.25 -14.6875 9.25 C-14.3575 6.94 -14.0275 4.63 -13.6875 2.25 C-11.9859375 2.0334375 -11.9859375 2.0334375 -10.25 1.8125 C-6.30678839 1.18988764 -4.19130731 0.06186431 0 0 Z " fill="#A83F21" transform="translate(118.6875,44.75)"/>
<path d="M0 0 C4.85707274 0.03898132 9.31997662 0.94834487 14 2.1875 C13.33333333 3.85416667 12.66666667 5.52083333 12 7.1875 C11.814375 8.05375 11.62875 8.92 11.4375 9.8125 C9.3902825 13.19485934 6.89914158 13.51606659 3.19140625 14.51171875 C0.74377399 15.15257326 0.74377399 15.15257326 -2 17.1875 C-5.5625 17.4375 -5.5625 17.4375 -9 17.1875 C-9.66 16.5275 -10.32 15.8675 -11 15.1875 C-11 12.0735118 -10.77001701 10.00870927 -8.58984375 7.68359375 C-7.10979929 6.45547175 -5.55824823 5.3147434 -4 4.1875 C-4.33 3.1975 -4.66 2.2075 -5 1.1875 C-3.47615222 -0.33634778 -2.12094628 0.01841099 0 0 Z " fill="#FAAA72" transform="translate(242,163.8125)"/>
<path d="M0 0 C2.475 4.455 2.475 4.455 5 9 C-1.0173277 15.56435749 -6.36625802 20.60464969 -15.5625 21.25 C-16.366875 21.1675 -17.17125 21.085 -18 21 C-18 20.34 -18 19.68 -18 19 C-17.34 19 -16.68 19 -16 19 C-15.731875 18.4225 -15.46375 17.845 -15.1875 17.25 C-14 15 -14 15 -12.4375 12.9375 C-10.81311272 10.95818504 -10.81311272 10.95818504 -10 8 C-12.31 8.33 -14.62 8.66 -17 9 C-15.54601078 5.19850864 -13.80320598 4.00635493 -10.1875 2.25 C-9.33542969 1.82203125 -8.48335938 1.3940625 -7.60546875 0.953125 C-5 0 -5 0 0 0 Z " fill="#F9AE74" transform="translate(290,388)"/>
<path d="M0 0 C2.46800047 1.15173355 4.04783565 2.04783565 6 4 C6.17318792 6.48040325 6.23236285 8.83559848 6.1875 11.3125 C6.18105469 12.62863281 6.17460937 13.94476563 6.16796875 15.30078125 C6.02973512 18.3451358 5.71349651 21.04897842 5 24 C3.081875 24.4640625 3.081875 24.4640625 1.125 24.9375 C-1.10101675 25.47605244 -2.94739999 25.9737 -5 27 C-7.48967762 22.33185446 -7.78194016 17.1708946 -7 12 C-5.48046875 9.69140625 -5.48046875 9.69140625 -4 8 C-3.67 8.99 -3.34 9.98 -3 11 C-2.86722656 10.28972656 -2.73445312 9.57945312 -2.59765625 8.84765625 C-2.42105469 7.92855469 -2.24445313 7.00945312 -2.0625 6.0625 C-1.88847656 5.14597656 -1.71445313 4.22945313 -1.53515625 3.28515625 C-1 1 -1 1 0 0 Z " fill="#FEA465" transform="translate(236,256)"/>
<path d="M0 0 C-0.02320313 0.69867188 -0.04640625 1.39734375 -0.0703125 2.1171875 C-0.08835937 3.02726562 -0.10640625 3.93734375 -0.125 4.875 C-0.14820313 5.77992188 -0.17140625 6.68484375 -0.1953125 7.6171875 C-0.24324836 10.18806994 -0.24324836 10.18806994 2 12 C2.125 14.625 2.125 14.625 2 17 C-2.89568983 17.5554725 -6.34105014 15.60609908 -10.5 13.3125 C-11.15097656 12.97283203 -11.80195313 12.63316406 -12.47265625 12.28320312 C-16.68432556 10.00720001 -19.77624187 7.5399344 -23 4 C-20.48159185 3.322781 -17.96091276 2.65808826 -15.4375 2 C-14.73302734 1.80921875 -14.02855469 1.6184375 -13.30273438 1.421875 C-8.72939791 0.24165914 -4.72223635 -0.19856973 0 0 Z " fill="#FEF3E4" transform="translate(274,302)"/>
<path d="M0 0 C2.1875 -0.3125 2.1875 -0.3125 5 0 C8.54742992 2.88744296 10.97827856 5.50442564 12 10 C11.91735384 14.67777293 11.62797194 18.0580421 9 22 C5.6875 21.4375 5.6875 21.4375 2 20 C-0.61679021 15.61054546 -1.37105816 12.07112816 -1 7 C-0.34 7 0.32 7 1 7 C0.67 4.69 0.34 2.38 0 0 Z " fill="#FAA770" transform="translate(155,21)"/>
<path d="M0 0 C3.15004548 1.41394087 3.68541713 3.64358686 5.0625 6.73828125 C6.9495041 10.94814639 8.67681238 13.79470835 12.0625 16.92578125 C15.0625 21.42578125 15.0625 21.42578125 15.0625 23.92578125 C12.0625 25.92578125 12.0625 25.92578125 9.57177734 25.8215332 C6.37408801 24.68003465 5.64240361 23.48268053 3.9140625 20.59375 C3.11935547 19.27213867 3.11935547 19.27213867 2.30859375 17.92382812 C1.77363281 16.99634766 1.23867187 16.06886719 0.6875 15.11328125 C0.12933594 14.19740234 -0.42882812 13.28152344 -1.00390625 12.33789062 C-5.00229785 5.56037005 -5.00229785 5.56037005 -4.70947266 2.69262695 C-3.63384562 0.23079493 -2.63826775 -0.10106268 0 0 Z " fill="#0E243B" transform="translate(65.9375,318.07421875)"/>
<path d="M0 0 C0.33 0 0.66 0 1 0 C1 13.53 1 27.06 1 41 C-1.64 39.35 -4.28 37.7 -7 36 C-6.23939012 28.37464521 -4.57537361 20.97873613 -2.9375 13.5 C-2.6526753 12.1875693 -2.3681675 10.87506978 -2.08398438 9.5625 C-1.39242867 6.37431099 -0.69768137 3.18685309 0 0 Z " fill="#F2E4E5" transform="translate(91,118)"/>
<path d="M0 0 C1.32 0.66 2.64 1.32 4 2 C3.55920845 10.77023183 2.68024862 19.47233175 1.625 28.1875 C1.51115967 29.20336182 1.39731934 30.21922363 1.2800293 31.26586914 C1.15926025 32.22356201 1.03849121 33.18125488 0.9140625 34.16796875 C0.8104541 35.02672607 0.7068457 35.8854834 0.60009766 36.77026367 C-0.08534051 39.31709313 -0.99547532 40.33566792 -3 42 C-3.34115764 13.49438424 -3.34115764 13.49438424 0 0 Z " fill="#823EE8" transform="translate(163,42)"/>
<path d="M0 0 C0.99 0.66 1.98 1.32 3 2 C3.4375 4.9375 3.4375 4.9375 3 8 C0.71847734 10.87670248 -2.01559033 11.37429876 -5.5 12 C-7.87109375 12.20703125 -7.87109375 12.20703125 -10 12 C-12.5625 9.6875 -12.5625 9.6875 -14 7 C-14 5 -14 5 -12.71484375 3.7109375 C-8.39560274 0.46438711 -5.58083857 -0.75126673 0 0 Z " fill="#F8AE7B" transform="translate(152,273)"/>
<path d="M0 0 C6.78478706 4.88089274 6.78478706 4.88089274 7.625 9.25 C7 12 7 12 4 14 C0.625 14.4375 0.625 14.4375 -3 14 C-6.49529336 11.26455302 -8.13587693 9.30222975 -9 5 C-8.43410156 4.72285156 -7.86820312 4.44570313 -7.28515625 4.16015625 C-6.55167969 3.79792969 -5.81820312 3.43570312 -5.0625 3.0625 C-3.96615234 2.52302734 -3.96615234 2.52302734 -2.84765625 1.97265625 C-1.03750973 1.13628173 -1.03750973 1.13628173 0 0 Z " fill="#EEAD81" transform="translate(86,328)"/>
<path d="M0 0 C2.31 1.65 4.62 3.3 7 5 C5.58707905 9.8274799 3.57025846 13.7162359 1 18 C-1.375 18.125 -1.375 18.125 -4 18 C-4.66 17.34 -5.32 16.68 -6 16 C-5.625 13.5625 -5.625 13.5625 -5 11 C-5 10.01 -5 9.02 -5 8 C-4.50930712 4.19713015 -2.79983919 2.52888701 0 0 Z " fill="#EFB289" transform="translate(327,211)"/>
<path d="M0 0 C3.78214542 4.2023838 9 11.09443215 9 17 C8.34 17 7.68 17 7 17 C7 17.66 7 18.32 7 19 C1.58823529 23 1.58823529 23 -1 23 C-1.09928082 15.24506486 -1.06059488 7.68931285 0 0 Z " fill="#FEF2DC" transform="translate(298,358)"/>
<path d="M0 0 C2.64 0.66 5.28 1.32 8 2 C7.4632339 4.14706442 6.92469025 6.29370801 6.375 8.4375 C5.96518359 11.23791213 6.29954562 13.27601074 7 16 C5.02 16.99 5.02 16.99 3 18 C-3 11.14782609 -3 11.14782609 -3 6.75 C-2.13826442 4.38022717 -1.25959204 2.18329287 0 0 Z " fill="#F8B07E" transform="translate(72,161)"/>
<path d="M0 0 C4 4.625 4 4.625 4 8 C-0.29059444 14.1233318 -6.0745142 16.75653277 -13 19 C-11.70280507 16.17199209 -10.28975118 14.0352968 -8.1875 11.75 C-4.96971617 8.10528662 -2.45643808 4.1846401 0 0 Z " fill="#FDA461" transform="translate(290,390)"/>
<path d="M0 0 C0.33 0 0.66 0 1 0 C1 3.63 1 7.26 1 11 C-5.38479413 13.43230253 -10.17716964 14.32489668 -17 14 C-16 11 -16 11 -13.92578125 9.82421875 C-13.06339844 9.44910156 -12.20101563 9.07398438 -11.3125 8.6875 C-6.49143928 6.42201588 -3.55669669 3.9214861 0 0 Z " fill="#E7C00E" transform="translate(294,397)"/>
<path d="M0 0 C0.33 0 0.66 0 1 0 C1.349746 6.30417167 0.04072396 11.84539417 -1.5 17.9375 C-1.73847656 18.90751953 -1.97695312 19.87753906 -2.22265625 20.87695312 C-2.80793388 23.25318032 -3.40053251 25.62732042 -4 28 C-5.98 28 -7.96 28 -10 28 C-9.34 27.67 -8.68 27.34 -8 27 C-8.12375 25.6078125 -8.12375 25.6078125 -8.25 24.1875 C-8.29451603 18.77880268 -6.00003767 13.93759299 -4 9 C-3.34 9 -2.68 9 -2 9 C-2.061875 7.88625 -2.061875 7.88625 -2.125 6.75 C-1.99601866 3.91241048 -1.42948778 2.41226062 0 0 Z " fill="#631FC7" transform="translate(86,135)"/>
<path d="M0 0 C0.33 0 0.66 0 1 0 C1.06673183 9.64089641 0.87720452 19.24099261 0.5 28.875 C0.45230469 30.14730469 0.40460938 31.41960937 0.35546875 32.73046875 C0.23930559 35.82040867 0.1207892 38.91023806 0 42 C-0.99 41.67 -1.98 41.34 -3 41 C-3.37983962 26.98813834 -2.48959976 13.79653202 0 0 Z " fill="#9652F6" transform="translate(74,119)"/>
<path d="M0 0 C2.1875 -0.3125 2.1875 -0.3125 5 0 C7.8125 2.5 7.8125 2.5 10 5 C3.84965831 12.48291572 3.84965831 12.48291572 0 15 C-1.35439668 12.29120665 -1.06501451 9.99066732 -1 7 C-0.34 7 0.32 7 1 7 C0.67 4.69 0.34 2.38 0 0 Z " fill="#F6BB92" transform="translate(155,21)"/>
<path d="M0 0 C1.32 0.66 2.64 1.32 4 2 C3.72285156 2.60328125 3.44570312 3.2065625 3.16015625 3.828125 C2.61681641 5.02695312 2.61681641 5.02695312 2.0625 6.25 C1.70285156 7.03890625 1.34320313 7.8278125 0.97265625 8.640625 C0.09966721 10.75823698 -0.51338508 12.76669362 -1 15 C-1.66 15 -2.32 15 -3 15 C-3.33 18.96 -3.66 22.92 -4 27 C-6.47256383 23.29115425 -7.17172617 21.52138003 -7.25 17.125 C-7.27578125 16.26132812 -7.3015625 15.39765625 -7.328125 14.5078125 C-6.94108924 11.54975351 -5.95124005 10.20798216 -4 8 C-3.67 8.99 -3.34 9.98 -3 11 C-2.86722656 10.28972656 -2.73445312 9.57945312 -2.59765625 8.84765625 C-2.42105469 7.92855469 -2.24445313 7.00945312 -2.0625 6.0625 C-1.88847656 5.14597656 -1.71445313 4.22945313 -1.53515625 3.28515625 C-1 1 -1 1 0 0 Z " fill="#F5B88D" transform="translate(236,256)"/>
<path d="M0 0 C2.16268757 2.70335947 3.05625689 4.1936512 2.8125 7.6875 C2 10 2 10 0 12 C-3.125 11.625 -3.125 11.625 -6 11 C-6 8.36 -6 5.72 -6 3 C-6.99 2.67 -7.98 2.34 -9 2 C-3.375 0 -3.375 0 0 0 Z " fill="#591737" transform="translate(105,220)"/>
<path d="M0 0 C0.99 0.495 0.99 0.495 2 1 C2 1.99 2 2.98 2 4 C2.66 4 3.32 4 4 4 C4.19335938 5.10859375 4.38671875 6.2171875 4.5859375 7.359375 C4.84863489 8.82297476 5.11167367 10.28651327 5.375 11.75 C5.50132812 12.47960937 5.62765625 13.20921875 5.7578125 13.9609375 C6.4253646 17.63247405 7.21021173 20.72900764 9 24 C9.125 26.75 9.125 26.75 9 29 C5.29511391 25.68285709 4.32575927 21.93447954 2.8125 17.3125 C2.53986328 16.53455078 2.26722656 15.75660156 1.98632812 14.95507812 C0.25960763 9.76626139 -0.2809861 5.46361866 0 0 Z " fill="#F8CF0D" transform="translate(232,285)"/>
<path d="M0 0 C0.66 0.33 1.32 0.66 2 1 C1.37557376 13.423929 -0.30822183 25.68487349 -2 38 C-2.33 38 -2.66 38 -3 38 C-2.90617464 33.3914965 -2.80001753 28.78350043 -2.68261719 24.17553711 C-2.64442591 22.60920919 -2.60955606 21.04279651 -2.578125 19.47631836 C-2.53225929 17.219582 -2.47430231 14.96342417 -2.4140625 12.70703125 C-2.40251129 12.01100296 -2.39096008 11.31497467 -2.37905884 10.59785461 C-2.26037251 6.65368487 -1.71878696 3.56120596 0 0 Z " fill="#9B5DF7" transform="translate(165,43)"/>
<path d="M0 0 C2.31 0 4.62 0 7 0 C7.67031719 1.9570868 8.33614683 3.91571113 9 5.875 C9.556875 7.51082031 9.556875 7.51082031 10.125 9.1796875 C11 12 11 12 11 14 C10.34 14 9.68 14 9 14 C8.67 12.68 8.34 11.36 8 10 C7.34 10 6.68 10 6 10 C2.38019915 6.90992611 0.41317222 4.82034262 0 0 Z " fill="#FDE15B" transform="translate(235,280)"/>
<path d="M0 0 C0.99 0.33 1.98 0.66 3 1 C3 1.66 3 2.32 3 3 C2.01 3.495 2.01 3.495 1 4 C0.67 4.99 0.34 5.98 0 7 C-0.66 7 -1.32 7 -2 7 C-2.03738281 7.65226562 -2.07476562 8.30453125 -2.11328125 8.9765625 C-2.51493762 14.31622957 -3.16761609 18.3204092 -6 23 C-6.33 23 -6.66 23 -7 23 C-7.0270043 21.54176788 -7.04639787 20.08339325 -7.0625 18.625 C-7.07410156 17.81289063 -7.08570313 17.00078125 -7.09765625 16.1640625 C-7 14 -7 14 -6 12 C-5.34 12 -4.68 12 -4 12 C-3.896875 10.948125 -3.79375 9.89625 -3.6875 8.8125 C-3.02266585 5.12569246 -2.11433704 3.03361401 0 0 Z " fill="#FAAC75" transform="translate(239,259)"/>
<path d="M0 0 C-3.73572939 6.62790698 -3.73572939 6.62790698 -7.3359375 7.6875 C-9.57451466 7.91347624 -11.75107018 8.0342974 -14 8 C-11.52193702 2.18936956 -6.35376591 -0.77015344 0 0 Z " fill="#F4B981" transform="translate(287,389)"/>
<path d="M0 0 C1.65 0 3.3 0 5 0 C4.7834375 0.8353125 4.7834375 0.8353125 4.5625 1.6875 C4.376875 2.450625 4.19125 3.21375 4 4 C3.79375 4.804375 3.5875 5.60875 3.375 6.4375 C2.96518359 9.23791213 3.29954562 11.27601074 4 14 C3.01 14.33 2.02 14.66 1 15 C1 13.35 1 11.7 1 10 C0.34 10 -0.32 10 -1 10 C-0.67 6.7 -0.34 3.4 0 0 Z " fill="#FDA86D" transform="translate(75,163)"/>
<path d="M0 0 C0.598125 0.226875 1.19625 0.45375 1.8125 0.6875 C1.28140625 1.26757812 0.7503125 1.84765625 0.203125 2.4453125 C-3.63109198 6.68534076 -7.18966242 10.81601393 -10.1875 15.6875 C-11.1875 12.6875 -11.1875 12.6875 -10.078125 10.3125 C-9.53671875 9.44625 -8.9953125 8.58 -8.4375 7.6875 C-7.90640625 6.82125 -7.3753125 5.955 -6.828125 5.0625 C-3.03181138 -0.43311591 -3.03181138 -0.43311591 0 0 Z " fill="#6827C7" transform="translate(91.1875,85.3125)"/>
<path d="M0 0 C0.99 0.99 1.98 1.98 3 3 C2.67 3.721875 2.34 4.44375 2 5.1875 C0.99396471 8.01697427 0.83022598 10.02895466 1 13 C1.66 13.33 2.32 13.66 3 14 C3 14.66 3 15.32 3 16 C0.54896452 15.01958581 -0.76758786 14.3486182 -2.25 12.125 C-3 10 -3 10 -3 6 C-2.34 6 -1.68 6 -1 6 C-0.67 4.02 -0.34 2.04 0 0 Z " fill="#0D80EE" transform="translate(330,199)"/>
<path d="M0 0 C0.99 0 1.98 0 3 0 C2.49516338 4.34159496 1.68099266 7.49408652 -1 11 C-1.99 11 -2.98 11 -4 11 C-3.49516338 6.65840504 -2.68099266 3.50591348 0 0 Z " fill="#126FE5" transform="translate(256,166)"/>
<path d="M0 0 C0.375 2.1875 0.375 2.1875 0 5 C-2.9375 7.6875 -2.9375 7.6875 -6 10 C-6.33 10.66 -6.66 11.32 -7 12 C-7.66 12 -8.32 12 -9 12 C-7.74337944 7.49710965 -6.16038089 4.4566666 -3 1 C-1 0 -1 0 0 0 Z " fill="#4C9AFC" transform="translate(290,142)"/>
<path d="M0 0 C-0.52268466 2.76276177 -1.10869587 5.3260876 -2 8 C-4.0625 8.6875 -4.0625 8.6875 -6 9 C-6.93423645 5.98968256 -7.04449911 5.13349732 -6 2 C-3.85412616 0.684787 -2.52986895 0 0 0 Z " fill="#F8AD78" transform="translate(311,128)"/>
<path d="M0 0 C-0.35010941 9.17286652 -0.35010941 9.17286652 -3.0625 12.625 C-3.701875 13.07875 -4.34125 13.5325 -5 14 C-4 6.57142857 -4 6.57142857 -3 3 C-3.66 2.67 -4.32 2.34 -5 2 C-2 0 -2 0 0 0 Z " fill="#FAAD78" transform="translate(290,313)"/>
<path d="M0 0 C5.75 1.75 5.75 1.75 8 4 C7.34 4 6.68 4 6 4 C5.814375 5.4540625 5.814375 5.4540625 5.625 6.9375 C5.41875 7.948125 5.2125 8.95875 5 10 C4.01 10.495 4.01 10.495 3 11 C2.86722656 10.37351562 2.73445313 9.74703125 2.59765625 9.1015625 C2.42105469 8.28429687 2.24445313 7.46703125 2.0625 6.625 C1.80146484 5.40683594 1.80146484 5.40683594 1.53515625 4.1640625 C1.07669307 1.970537 1.07669307 1.970537 0 0 Z " fill="#FCDE4D" transform="translate(262,314)"/>
<path d="M0 0 C0.66 0.33 1.32 0.66 2 1 C1.39254603 5.85963179 -0.72758967 9.7405518 -3 14 C-3.66 13.67 -4.32 13.34 -5 13 C-4.39254603 8.14036821 -2.27241033 4.2594482 0 0 Z " fill="#207DF2" transform="translate(343,195)"/>
<path d="M0 0 C0.66 0.33 1.32 0.66 2 1 C1.34 4.96 0.68 8.92 0 13 C-0.99 12.01 -1.98 11.02 -3 10 C-2.75896128 6.22372667 -1.88638485 3.26973374 0 0 Z " fill="#F3BB98" transform="translate(72,161)"/>
<path d="M0 0 C1.32 1.32 2.64 2.64 4 4 C3.34 6.31 2.68 8.62 2 11 C1.34 11 0.68 11 0 11 C0 7.37 0 3.74 0 0 Z " fill="#F7A978" transform="translate(110,69)"/>
<path d="M0 0 C0.66 0.33 1.32 0.66 2 1 C1.71935082 3.31386295 1.42518311 5.62609008 1.125 7.9375 C0.96257812 9.22527344 0.80015625 10.51304688 0.6328125 11.83984375 C0.42398438 12.88269531 0.21515625 13.92554688 0 15 C-0.99 15.495 -0.99 15.495 -2 16 C-2.2358396 10.22192976 -1.86783046 5.48675196 0 0 Z " fill="#7D37E1" transform="translate(163,42)"/>
<path d="M0 0 C0.33 0 0.66 0 1 0 C0.88601335 1.62580966 0.75844341 3.25067157 0.625 4.875 C0.52058594 6.23238281 0.52058594 6.23238281 0.4140625 7.6171875 C0 10 0 10 -2 12 C-3.6442351 7.06729471 -2.18615592 4.45975807 0 0 Z " fill="#5419AB" transform="translate(84,145)"/>
<path d="M0 0 C1.32 0.33 2.64 0.66 4 1 C3.67 1.99 3.34 2.98 3 4 C3.639375 4.2475 4.27875 4.495 4.9375 4.75 C7 6 7 6 7.75 8.125 C7.8325 8.74375 7.915 9.3625 8 10 C6 10 6 10 3.4375 7.8125 C0.98865517 4.98690982 0.31237863 3.64441732 0 0 Z " fill="#FCDA43" transform="translate(235,280)"/>
<path d="M0 0 C1.65 0 3.3 0 5 0 C5.33 0.66 5.66 1.32 6 2 C3.69 3.65 1.38 5.3 -1 7 C-0.67 4.69 -0.34 2.38 0 0 Z " fill="#CB601A" transform="translate(274,281)"/>
<path d="M0 0 C1.65 0 3.3 0 5 0 C5 0.99 5 1.98 5 3 C2.5 5.1875 2.5 5.1875 0 7 C0 4.69 0 2.38 0 0 Z " fill="#621FC3" transform="translate(156,41)"/>
<path d="M0 0 C0.99 0.33 1.98 0.66 3 1 C2.67 2.98 2.34 4.96 2 7 C0.02 7 -1.96 7 -4 7 C-3.01 6.67 -2.02 6.34 -1 6 C-0.67 4.02 -0.34 2.04 0 0 Z " fill="#642AA8" transform="translate(80,156)"/>
<path d="M0 0 C2.475 0.495 2.475 0.495 5 1 C5 1.99 5 2.98 5 4 C4.01 4.66 3.02 5.32 2 6 C1.34 5.34 0.68 4.68 0 4 C0 2.68 0 1.36 0 0 Z " fill="#226FCE" transform="translate(84,256)"/>
<path d="M0 0 C0.33 0 0.66 0 1 0 C1.28571429 7.42857143 1.28571429 7.42857143 -1 11 C-1.66 11 -2.32 11 -3 11 C-2.53199289 6.94393835 -2.12046792 3.53411321 0 0 Z " fill="#6428BA" transform="translate(86,135)"/>
<path d="M0 0 C2.05078125 0.03255208 4.1015625 0.06510417 6.15234375 0.09765625 C6.15234375 0.42765625 6.15234375 0.75765625 6.15234375 1.09765625 C5.26546875 1.36578125 4.37859375 1.63390625 3.46484375 1.91015625 C0.38356827 3.01476444 -2.1098703 4.32614769 -4.84765625 6.09765625 C-2.55432956 0.13500685 -2.55432956 0.13500685 0 0 Z " fill="#CD6626" transform="translate(297.84765625,93.90234375)"/>
<path d="M0 0 C2.31 0 4.62 0 7 0 C7 0.99 7 1.98 7 3 C4.69 3 2.38 3 0 3 C0 2.01 0 1.02 0 0 Z " fill="#F8A76F" transform="translate(91,254)"/>
<path d="M0 0 C1.32 0.33 2.64 0.66 4 1 C3.39816251 3.02045442 2.72693904 5.02111039 2 7 C1.01 7.495 1.01 7.495 0 8 C0 5.36 0 2.72 0 0 Z " fill="#F3A672" transform="translate(330,215)"/>
<path d="M0 0 C1.60080151 4.00200378 0.29279692 7.04556236 -1 11 C-1.66 10.67 -2.32 10.34 -3 10 C-2.39009109 6.44219804 -1.4216319 3.3171411 0 0 Z " fill="#1D7AEF" transform="translate(347,184)"/>
<path d="M0 0 C0.66 0.66 1.32 1.32 2 2 C-3.17578125 5.22265625 -3.17578125 5.22265625 -5 6 C-5.99 5.67 -6.98 5.34 -8 5 C-4.04 2.525 -4.04 2.525 0 0 Z " fill="#EBC61A" transform="translate(307,388)"/>
<path d="M0 0 C0.99 0 1.98 0 3 0 C1.68775452 3.93673644 0.08089673 6.22719294 -3 9 C-2.44271087 5.65626525 -1.64826111 2.96687001 0 0 Z " fill="#7033C7" transform="translate(83,92)"/>
<path d="M0 0 C-0.8125 2.9375 -0.8125 2.9375 -2 6 C-2.99 6.33 -3.98 6.66 -5 7 C-4.625 4.0625 -4.625 4.0625 -4 1 C-2 0 -2 0 0 0 Z " fill="#FDA568" transform="translate(309,129)"/>
<path d="M0 0 C0.99 0.33 1.98 0.66 3 1 C2.67 3.64 2.34 6.28 2 9 C1.34 9 0.68 9 0 9 C0 6.03 0 3.06 0 0 Z " fill="#CA8C81" transform="translate(302,290)"/>
<path d="M0 0 C0.99 0.33 1.98 0.66 3 1 C1.68 3.64 0.36 6.28 -1 9 C-2.07349791 4.70600835 -1.79682816 3.80504787 0 0 Z " fill="#F6C29D" transform="translate(236,256)"/>
<path d="M0 0 C0.94875 0.04125 1.8975 0.0825 2.875 0.125 C1.885 0.62 1.885 0.62 0.875 1.125 C0.875 2.115 0.875 3.105 0.875 4.125 C-1.105 3.465 -3.085 2.805 -5.125 2.125 C-3.125 0.125 -3.125 0.125 0 0 Z " fill="#468EE9" transform="translate(260.125,176.875)"/>
<path d="M0 0 C2.97 0 5.94 0 9 0 C9 0.33 9 0.66 9 1 C7.02 1 5.04 1 3 1 C3 1.99 3 2.98 3 4 C1.68 3.34 0.36 2.68 -1 2 C-0.67 1.34 -0.34 0.68 0 0 Z " fill="#FAC5A1" transform="translate(238,164)"/>
</svg>
